<svg id="Capa_1" enable-background="new 0 0 510 510" height="512" viewBox="0 0 510 510" width="512" xmlns="http://www.w3.org/2000/svg"><path d="m445.607 97.194-92.799-92.8c-.007-.007-.014-.012-.021-.019-2.794-2.785-6.638-4.375-10.586-4.375h-267.201c-8.284 0-15 6.716-15 15v480c0 8.284 6.716 15 15 15h360c8.284 0 15-6.716 15-15v-387.2c0-3.859-1.537-7.75-4.393-10.606zm-88.406-45.98c4.407 4.407 37.178 37.178 41.586 41.586h-41.586zm-267.201 428.786v-450h237.201v77.8c0 8.284 6.716 15 15 15h77.799v357.2z"/><path d="m140.29 220h87.114c8.284 0 15-6.716 15-15v-106c0-8.284-6.716-15-15-15h-87.114c-8.284 0-15 6.716-15 15v106c0 8.284 6.715 15 15 15zm15-106h57.114v76h-57.114z"/><path d="m369.71 261h-229.28c-8.284 0-15 6.716-15 15s6.716 15 15 15h229.28c8.284 0 15-6.716 15-15s-6.715-15-15-15z"/><path d="m369.71 193.5h-73.64c-8.284 0-15 6.716-15 15s6.716 15 15 15h73.64c8.284 0 15-6.716 15-15s-6.715-15-15-15z"/><path d="m369.71 328.5h-229.28c-8.284 0-15 6.716-15 15s6.716 15 15 15h229.28c8.284 0 15-6.716 15-15s-6.715-15-15-15z"/><path d="m369.71 396h-229.28c-8.284 0-15 6.716-15 15s6.716 15 15 15h229.28c8.284 0 15-6.716 15-15s-6.715-15-15-15z"/></svg>