<svg height="512pt" viewBox="0 -19 512.00877 512" width="512pt" xmlns="http://www.w3.org/2000/svg"><path d="m461.078125 473.078125c-6.835937 0-13.675781-2.605469-18.882813-7.8125l-395.699218-395.710937c-5.042969-5.039063-7.820313-11.746094-7.820313-18.878907 0-7.128906 2.777344-13.835937 7.820313-18.882812l24.230468-24.222657c10.078126-10.089843 27.671876-10.089843 37.761719 0l395.699219 395.710938c5.042969 5.039062 7.820312 11.746094 7.820312 18.875 0 7.132812-2.777343 13.839844-7.820312 18.878906l-24.21875 24.230469c-5.214844 5.207031-12.054688 7.8125-18.890625 7.8125zm-371.480469-455.792969c-2.445312 0-4.75.953125-6.476562 2.691406l-24.230469 24.21875c-1.734375 1.738282-2.683594 4.035157-2.683594 6.488282s.949219 4.75 2.683594 6.476562l395.699219 395.710938c3.578125 3.566406 9.398437 3.566406 12.964844 0l24.222656-24.230469c1.734375-1.734375 2.683594-4.03125 2.683594-6.484375 0-2.449219-.957032-4.753906-2.683594-6.480469l-395.703125-395.699219c-1.726563-1.738281-4.03125-2.691406-6.476563-2.691406zm0 0"/><path d="m163.1875 186.257812-87.921875-87.921874 61.984375-61.984376 87.933594 87.921876zm-63.132812-87.921874 63.132812 63.132812 37.195312-37.195312-63.132812-63.132813zm0 0"/><path d="m113.957031 130.15625c-2.242187 0-4.484375-.859375-6.195312-2.566406-3.429688-3.429688-3.429688-8.96875 0-12.398438l17.53125-17.53125c3.417969-3.425781 8.976562-3.425781 12.394531 0 3.429688 3.429688 3.429688 8.96875 0 12.394532l-17.53125 17.535156c-1.710938 1.714844-3.953125 2.566406-6.199219 2.566406zm0 0"/><path d="m140.257812 153.9375c-2.246093 0-4.488281-.859375-6.199218-2.566406-3.425782-3.429688-3.425782-8.96875 0-12.394532l17.53125-17.535156c3.421875-3.425781 8.976562-3.425781 12.398437 0 3.425781 3.429688 3.425781 8.96875 0 12.398438l-17.535156 17.53125c-1.707031 1.707031-3.953125 2.566406-6.195313 2.566406zm0 0"/><path d="m52.597656 265.277344-38.695312-38.695313 38.695312-38.691406 38.691406 38.691406zm-13.902344-38.695313 13.902344 13.902344 13.902344-13.902344-13.902344-13.902343zm0 0"/><path d="m52.597656 209.050781c-4.839844 0-8.765625-3.925781-8.765625-8.765625v-17.53125c0-4.839844 3.925781-8.765625 8.765625-8.765625 4.835938 0 8.765625 3.925781 8.765625 8.765625v17.53125c0 4.847656-3.929687 8.765625-8.765625 8.765625zm0 0"/><path d="m96.425781 235.347656h-17.53125c-4.839843 0-8.765625-3.925781-8.765625-8.765625 0-4.835937 3.925782-8.765625 8.765625-8.765625h17.53125c4.839844 0 8.765625 3.929688 8.765625 8.765625 0 4.839844-3.925781 8.765625-8.765625 8.765625zm0 0"/><path d="m52.597656 279.179688c-4.839844 0-8.765625-3.925782-8.765625-8.765626v-17.53125c0-4.839843 3.925781-8.765624 8.765625-8.765624 4.835938 0 8.765625 3.925781 8.765625 8.765624v17.53125c0 4.847657-3.929687 8.765626-8.765625 8.765626zm0 0"/><path d="m26.296875 235.347656h-17.53125c-4.839844 0-8.765625-3.925781-8.765625-8.765625 0-4.835937 3.925781-8.765625 8.765625-8.765625h17.53125c4.839844 0 8.765625 3.929688 8.765625 8.765625 0 4.839844-3.925781 8.765625-8.765625 8.765625zm0 0"/><path d="m236.683594 431.832031-38.691406-38.695312 38.691406-38.691407 38.695312 38.691407zm-13.902344-38.695312 13.902344 13.90625 13.902344-13.90625-13.902344-13.902344zm0 0"/><path d="m236.683594 375.605469c-4.839844 0-8.765625-3.925781-8.765625-8.765625v-17.53125c0-4.839844 3.925781-8.765625 8.765625-8.765625s8.765625 3.925781 8.765625 8.765625v17.53125c0 4.847656-3.925781 8.765625-8.765625 8.765625zm0 0"/><path d="m280.515625 401.90625h-17.535156c-4.835938 0-8.765625-3.929688-8.765625-8.769531 0-4.835938 3.929687-8.765625 8.765625-8.765625h17.535156c4.835937 0 8.765625 3.929687 8.765625 8.765625 0 4.839843-3.929688 8.769531-8.765625 8.769531zm0 0"/><path d="m236.683594 445.734375c-4.839844 0-8.765625-3.925781-8.765625-8.765625v-17.53125c0-4.839844 3.925781-8.765625 8.765625-8.765625s8.765625 3.925781 8.765625 8.765625v17.53125c0 4.847656-3.925781 8.765625-8.765625 8.765625zm0 0"/><path d="m210.386719 401.90625h-17.53125c-4.839844 0-8.769531-3.929688-8.769531-8.769531 0-4.835938 3.929687-8.765625 8.769531-8.765625h17.53125c4.839843 0 8.765625 3.929687 8.765625 8.765625 0 4.839843-3.925782 8.769531-8.765625 8.769531zm0 0"/><path d="m350.644531 133.785156-38.695312-38.691406 38.695312-38.695312 38.691407 38.695312zm-13.90625-38.691406 13.90625 13.902344 13.902344-13.902344-13.902344-13.90625zm0 0"/><path d="m350.644531 77.558594c-4.839843 0-8.769531-3.925782-8.769531-8.765625v-17.53125c0-4.839844 3.929688-8.765625 8.769531-8.765625 4.835938 0 8.765625 3.925781 8.765625 8.765625v17.53125c0 4.847656-3.929687 8.765625-8.765625 8.765625zm0 0"/><path d="m394.472656 103.859375h-17.53125c-4.839844 0-8.765625-3.929687-8.765625-8.765625 0-4.839844 3.925781-8.769531 8.765625-8.769531h17.53125c4.839844 0 8.765625 3.929687 8.765625 8.769531 0 4.835938-3.925781 8.765625-8.765625 8.765625zm0 0"/><path d="m350.644531 147.6875c-4.839843 0-8.769531-3.925781-8.769531-8.765625v-17.53125c0-4.839844 3.929688-8.765625 8.769531-8.765625 4.835938 0 8.765625 3.925781 8.765625 8.765625v17.53125c0 4.847656-3.929687 8.765625-8.765625 8.765625zm0 0"/><path d="m324.34375 103.859375h-17.53125c-4.839844 0-8.765625-3.929687-8.765625-8.765625 0-4.839844 3.925781-8.769531 8.765625-8.769531h17.53125c4.839844 0 8.765625 3.929687 8.765625 8.769531 0 4.835938-3.925781 8.765625-8.765625 8.765625zm0 0"/></svg>