<?xml version="1.0" encoding="UTF-8"?>
<svg width="375px" height="285px" viewBox="0 0 375 285" version="1.1" xmlns="http://www.w3.org/2000/svg" xmlns:xlink="http://www.w3.org/1999/xlink">
    <!-- Generator: Sketch 52.6 (67491) - http://www.bohemiancoding.com/sketch -->
    <title>Group</title>
    <desc>Created with Sketch.</desc>
    <defs>
        <path d="M179.275968,137.038308 C179.275968,137.038308 179.275968,137.038308 179.275968,137.038308 C182.173369,137.038308 186.321697,139.195776 190.640168,139.244339 C192.274756,139.262721 193.536892,141.931526 196.186751,141.895345 C197.334446,141.879674 197.04604,149.207856 199.094079,149.070806 C200.900059,148.949955 208.787292,149.435031 213.967659,148.050769 C215.300945,147.694498 219.5915,148.281909 223.358343,146.547692 C224.467072,146.037244 226.247028,144.631071 228.698209,142.329174 L228.698199,142.329163 C229.503387,141.573013 230.769102,141.612766 231.525252,142.417955 C231.590638,142.487581 231.650953,142.561802 231.705732,142.640048 C233.889512,145.759308 235.407811,148.023267 236.260628,149.431923 C237.278668,151.11349 238.585213,153.619188 240.180263,156.949015 C238.654951,156.611523 236.994679,156.611523 235.199446,156.949015 C234.371719,157.104623 233.830945,158.375048 232.783091,158.556923 C231.583525,158.765131 230.393094,154.362988 228.791624,154.625308 C226.166365,155.055323 220.562069,157.367749 211.978737,161.562587 L211.978741,161.562593 C211.425776,161.832837 211.028034,162.342628 210.900398,162.944716 C210.08973,166.768815 208.997862,169.400038 207.624794,170.838386 C206.696484,171.81083 204.379715,171.253369 202.386483,172.463154 C201.948012,172.729283 201.004112,173.836739 199.554784,175.785523 L199.55479,175.785527 C199.334321,176.081972 199.20027,176.433691 199.167506,176.801676 C199.124822,177.281056 197.604472,174.791213 194.606456,169.332145 C194.171049,168.539314 189.135918,170.310741 189.353124,169.332145 C190.048418,166.199573 192.01634,162.324651 190.640168,157.913385 C190.200823,156.50508 187.143212,156.614783 185.5,153.931077 C184.8228,152.825068 185.825601,150.754879 184.221239,147.289231 C183.961149,146.727401 186.446406,143.451808 185.5,142.029769 C185.13479,141.481016 182.957222,140.285482 178.967298,138.443168 L178.967274,138.44322 C178.598048,138.272733 178.436938,137.83521 178.607425,137.465984 C178.727813,137.205259 178.98879,137.038308 179.275968,137.038308 Z" id="path-1"></path>
        <filter x="-13.0%" y="-10.0%" width="126.0%" height="140.2%" filterUnits="objectBoundingBox" id="filter-2">
            <feOffset dx="0" dy="4" in="SourceAlpha" result="shadowOffsetOuter1"></feOffset>
            <feGaussianBlur stdDeviation="2" in="shadowOffsetOuter1" result="shadowBlurOuter1"></feGaussianBlur>
            <feComposite in="shadowBlurOuter1" in2="SourceAlpha" operator="out" result="shadowBlurOuter1"></feComposite>
            <feColorMatrix values="0 0 0 0 0   0 0 0 0 0   0 0 0 0 0  0 0 0 1 0" type="matrix" in="shadowBlurOuter1"></feColorMatrix>
        </filter>
        <path d="M218.554955,31.1178225 C219.571447,31.3964264 220.655932,31.6904855 221.80841,32 C223.580635,32.4759567 227.763516,29.485967 229.726916,30 C231.41724,30.4425398 223.417091,38.3346906 225.665099,38.9563428 C227.438436,39.446732 228.505251,48.3367116 231.728573,49 C232.724037,49.2048443 228.266415,52.8065436 229.726916,53 C232.80177,53.4072919 239.399012,53.639021 249.518643,53.6951872 C252.244122,53.7103142 255.033686,38.9981826 259.996893,38.9563428 C264.351641,38.9196323 267.405684,47.3700345 273.521965,52 C275.477259,53.480139 279.150571,54.5153942 284.541899,55.1057656 L284.541897,55.1057859 C285.513042,55.2121301 286.265237,56.0045252 286.320921,56.9798877 C286.518762,60.4453013 287.292009,63.1322833 288.640662,65.0408339 C289.901564,66.8252039 292.349806,68.8976421 295.985388,71.2581483 L295.985395,71.2581379 C296.911825,71.8596494 297.175223,73.0982908 296.573712,74.024721 C296.409182,74.2781247 296.189379,74.4909594 295.930809,74.647243 C294.328713,75.6155709 293.205456,76.3998232 292.561037,77 C290.71954,78.7150703 292.981505,81.4900932 290.491991,83.3016068 C289.590462,83.957611 285.898166,84.6086806 284.59958,86.6688048 C283.195552,88.896205 284.150408,92.5331503 282.245429,93 C280.609141,93.4010023 278.942454,89.9719304 277.116506,88.7348884 C275.267725,87.4823772 273.260496,88.4210788 271.741727,88.7348884 C269.335353,89.2320957 263.821736,87.6228526 261.068442,88.7348884 C257.927238,90.0035983 257.510288,93.9243132 254.217783,93 C249.944391,91.80032 246.648373,79.082845 238.819906,73 C235.647228,70.5347787 230.050649,65.934024 221.80841,62.4623023 C219.995092,61.6985129 216.617168,60.8403587 211.674637,59.8878396 L211.67464,59.8878281 C210.992453,59.7563579 210.290913,59.9883241 209.821567,60.5005511 C206.451819,64.1781704 204.294848,65.6915979 203.350655,65.0408339 C202.589784,64.5164204 199.589495,66.3212115 199.589495,64 C199.589495,57.2300773 205.205686,46.5071232 216.438068,31.8311378 L216.438063,31.8311335 C216.932789,31.1847348 217.769915,30.9026558 218.554955,31.1178225 Z" id="path-3"></path>
        <filter x="-8.2%" y="-6.3%" width="116.4%" height="125.3%" filterUnits="objectBoundingBox" id="filter-4">
            <feOffset dx="0" dy="4" in="SourceAlpha" result="shadowOffsetOuter1"></feOffset>
            <feGaussianBlur stdDeviation="2" in="shadowOffsetOuter1" result="shadowBlurOuter1"></feGaussianBlur>
            <feComposite in="shadowBlurOuter1" in2="SourceAlpha" operator="out" result="shadowBlurOuter1"></feComposite>
            <feColorMatrix values="0 0 0 0 0   0 0 0 0 0   0 0 0 0 0  0 0 0 1 0" type="matrix" in="shadowBlurOuter1"></feColorMatrix>
        </filter>
        <path d="M195.715988,88.9448754 C197.465975,86.3873937 198.483579,84.3951372 198.768801,82.9681056 C199.921648,77.2001445 198.801694,71.7677659 200.005127,70 C202.103985,66.9169126 206.979514,69.4070244 209.063288,68 C210.951004,66.7253601 210.110213,63.8472668 212.979097,63.2772604 C215.511393,62.7741294 219.351115,64.6817092 224.498265,69 C227.198352,71.4091126 229.335603,73.0470029 230.910018,73.9136708 C231.5089,74.2433373 232.548086,73.5795696 233.125063,73.9136708 C235.75151,75.4345274 236.768025,78.4865992 238.837598,80.256946 C241.083203,82.1778736 242.706006,85.575901 244.486779,87.5290961 C247.156007,90.4567704 249.564017,92.0751929 250.023228,96.11531 C250.397105,99.404669 235.623139,102.736579 234.875205,106.185077 C234.129072,109.625274 228.498941,113.019005 220.292707,119.535687 C218.052741,121.314474 215.570517,125.114497 210.76871,129 C208.853837,130.549468 204.980518,133.155147 199.148753,136.817036 L199.148751,136.817032 C198.802965,137.034159 198.531918,137.351917 198.372028,137.727612 C198.303945,137.887587 197.171771,137.869819 194.975506,137.674308 C194.22842,137.607802 193.498992,135.428192 192.469314,135.369298 C190.86886,135.277757 184.219822,135.164221 172.5222,135.02869 L172.5222,135.028703 C171.417697,135.015906 170.532695,134.110156 170.545492,133.005653 C170.547237,132.855019 170.565996,132.705065 170.60141,132.558644 C171.524302,128.742947 172.047505,126.202967 172.17102,124.938705 C172.338888,123.220464 170.068422,121.685009 170,120.356022 C169.857043,117.579333 171.62105,115.667282 171.268232,114.615385 C169.085779,108.108597 161.667869,110.392657 163.765493,106.613231 C165.064299,104.273089 169.354463,107.314642 172.794773,105.118166 C174.435273,104.070784 171.782206,98.4773379 175.100656,96.2203846 C176.259796,95.4320277 178.431261,92.5930075 181.365671,91.6438166 C182.447761,91.2937939 184.10261,91.9178481 186.372,91.6438166 C187.089882,91.5571314 185.646561,89.3872657 187.186745,89.090575 C187.922338,88.9488753 190.105336,89.1813797 193.73574,89.7880881 L193.735738,89.7880972 C194.503682,89.9164351 195.276306,89.5874395 195.715988,88.9448754 Z" id="path-5"></path>
        <filter x="-9.2%" y="-5.4%" width="118.5%" height="121.4%" filterUnits="objectBoundingBox" id="filter-6">
            <feOffset dx="0" dy="4" in="SourceAlpha" result="shadowOffsetOuter1"></feOffset>
            <feGaussianBlur stdDeviation="2" in="shadowOffsetOuter1" result="shadowBlurOuter1"></feGaussianBlur>
            <feComposite in="shadowBlurOuter1" in2="SourceAlpha" operator="out" result="shadowBlurOuter1"></feComposite>
            <feColorMatrix values="0 0 0 0 0   0 0 0 0 0   0 0 0 0 0  0 0 0 1 0" type="matrix" in="shadowBlurOuter1"></feColorMatrix>
        </filter>
        <path d="M264.329309,92.947422 C269.544081,91.7024032 272.750637,91.3433333 273.948979,91.8702124 C275.673724,92.6285373 274.710141,94.9639208 275.889182,96.11531 C277.560775,97.7476998 281.164241,98.1186536 282.362891,97.8856923 C284.720261,97.4275301 289.754925,86.4533897 291.398226,86.069635 C295.961503,85.0039882 290.544411,92.7295957 293.84386,91.8702124 C296.584633,91.1563434 300.873891,91.8614634 303.932914,90 C309.269502,86.7526024 313.264388,80.6324775 316,80.9752635 C316.757817,81.0702218 316.757817,84.4118006 316,91 C317.669662,99.3244695 318.263259,106.377675 317.780791,112.159615 C317.544782,114.987969 315.296413,117.994582 314.479884,121 C313.911429,123.092328 313.316247,126.297456 312.694339,130.615385 L313.061618,134.880102 C313.721709,142.544927 308.043249,149.293605 300.378424,149.953695 C299.895504,149.995284 299.410744,150.011639 298.92612,150.002692 C298.92612,150.002692 298.92612,150.002692 298.92612,150.002692 C290.129935,149.840312 277.252826,155.513083 260.294792,167.021005 L260.294794,167.021008 C259.511028,167.55288 258.461646,167.462022 257.780961,166.803353 C255.96622,165.047307 254.556853,163.856445 253.552859,163.230769 C250.14128,161.104715 246.364558,160.101304 244.670318,158.635692 C243.078165,157.258392 245.129468,155.100981 244.670318,153.274154 C244.125311,151.105726 241.170286,149.306911 240.243954,148.478462 C237.954782,146.431179 238.828462,141.138118 236.930469,140.045979 C234.616985,138.714758 232.299264,139.224446 229.862355,138.224308 C227.034932,137.063897 220.576384,144.941746 218.376727,143.923077 C215.293684,142.495308 207.070667,145.960719 203.33771,145.847308 C201.489662,145.791162 200.143399,144.657341 199.298921,142.445846 C206.977759,137.920233 212.404581,134.25296 215.579388,131.444027 C223.944629,124.042822 230.273638,115.047347 235.582343,110.826231 C243.860792,104.243778 253.302829,98.3348277 263.908455,93.0993807 L263.908446,93.0993616 C264.042608,93.0331323 264.183779,92.9821669 264.329309,92.947422 Z" id="path-7"></path>
        <filter x="-6.7%" y="-4.6%" width="113.5%" height="118.5%" filterUnits="objectBoundingBox" id="filter-8">
            <feOffset dx="0" dy="4" in="SourceAlpha" result="shadowOffsetOuter1"></feOffset>
            <feGaussianBlur stdDeviation="2" in="shadowOffsetOuter1" result="shadowBlurOuter1"></feGaussianBlur>
            <feComposite in="shadowBlurOuter1" in2="SourceAlpha" operator="out" result="shadowBlurOuter1"></feComposite>
            <feColorMatrix values="0 0 0 0 0   0 0 0 0 0   0 0 0 0 0  0 0 0 1 0" type="matrix" in="shadowBlurOuter1"></feColorMatrix>
        </filter>
        <path d="M322.524769,89.8661781 C322.269127,87.8575189 321.882458,86.6273297 321.364761,86.1756106 C318.521882,83.6950435 321.364761,81 325.282914,83.3556656 C326.639875,84.171495 328.676163,78.5212032 329.619468,81 C331.764048,86.6354809 333.769782,87.6104361 338.111462,91.171238 C340.329014,92.9899491 345.060986,95.3026911 352.307377,98.1094639 L352.307384,98.1094477 C352.557996,98.2065185 352.786474,98.3531033 352.979171,98.5404466 C357.970004,103.392629 361.706111,107.487891 364.187491,110.826231 C367.308395,115.024957 368.798536,119.836776 373,125.538462 C374.489332,127.559592 364.849394,129.066441 364.187491,130.681154 C363.601125,132.111596 362.967768,135.846433 364.187491,139.716615 C365.357114,143.427828 368.393016,147.266379 367.379183,149.184897 C365.620152,152.513588 352.984382,151.278382 348.908099,154.625308 C346.687339,156.448714 352.122404,160.795628 351.454788,165.30069 C350.796824,169.740617 343.176938,174.88377 328.595127,180.730149 L328.595121,180.730134 C324.876327,182.221134 322.466662,185.856046 322.541466,189.861907 C322.541466,189.861907 322.541466,189.861907 322.541466,189.861907 C322.582227,192.044777 326.299892,193.937362 322.541466,196 C320.19372,197.288452 315.462256,193.265207 312.928623,194 C310.455997,194.7171 309.379902,198.652695 306.673351,197.187988 C304.567315,196.048263 301.43458,192.775494 297.275145,187.369682 L297.275134,187.369691 C297.086913,187.125071 296.84463,186.927333 296.56725,186.791958 C293.32396,185.209076 291.012535,184.246091 289.632974,183.903004 C287.783058,183.442943 284.841446,184.585983 283.807951,184 C279.280304,181.432859 279.522284,177.534209 276.9958,175.197156 C273.051033,171.548162 267.680897,169.948225 267.784325,169.657238 C269.731109,164.180074 281.262389,161.677142 291.371002,157.233846 C292.710219,156.645186 299.734446,155.742195 305.074543,153.931077 C309.765759,152.340029 312.928623,149.841519 312.928623,149.070806 C312.928623,141.473065 315.519003,142.029769 317.787992,136.332769 C318.428372,134.724897 315.80201,135.533812 316.606844,130.615385 C316.924438,128.674529 318.694555,124.373238 319.727445,121 C320.403962,118.790615 320.926588,116.090603 321.364761,113.949 C321.854133,111.557153 322.234936,109.713034 322.541466,106.998692 C322.688848,105.69361 322.563305,103.970556 322.541466,101.864769 C322.512522,99.0739699 322.512276,95.1623766 322.540726,90.1299894 L322.54074,90.1299895 C322.541239,90.0417964 322.535903,89.9536669 322.524769,89.8661781 Z" id="path-9"></path>
        <filter x="-7.4%" y="-3.4%" width="115.0%" height="113.7%" filterUnits="objectBoundingBox" id="filter-10">
            <feOffset dx="0" dy="4" in="SourceAlpha" result="shadowOffsetOuter1"></feOffset>
            <feGaussianBlur stdDeviation="2" in="shadowOffsetOuter1" result="shadowBlurOuter1"></feGaussianBlur>
            <feComposite in="shadowBlurOuter1" in2="SourceAlpha" operator="out" result="shadowBlurOuter1"></feComposite>
            <feColorMatrix values="0 0 0 0 0   0 0 0 0 0   0 0 0 0 0  0 0 0 1 0" type="matrix" in="shadowBlurOuter1"></feColorMatrix>
        </filter>
        <path d="M92.6046751,229 C103.846799,218.470777 111.399375,211.470777 115.262403,208 C121.478108,202.415437 130.909578,198.504403 133.978492,196 C136.921308,193.598499 133.529201,189.702797 135.958593,188.348508 C143.458997,184.167332 149.708393,176.410072 158.677169,176.410072 C167.869961,176.410072 175.143585,172.520263 180.266467,172.463154 C197.344855,172.272765 194.720577,176.025233 195.419403,179 C196.009254,181.510881 196.12842,184.389844 195.776903,187.636891 L195.776897,187.63689 C195.658014,188.73504 194.671414,189.528893 193.573264,189.41001 C193.405554,189.391854 193.240815,189.352553 193.082971,189.293044 L187.000876,187 C172.910931,185.642089 163.469695,185.642089 158.677169,187 C150.894849,189.205036 148.27417,190.609867 145.154723,196 C141.682325,202 144.899533,204.398189 140.285941,208 C138.869748,209.105616 135.997913,211.105616 131.670435,214 C126.612238,219.333333 122.874795,225.666667 120.458108,233 C118.057647,240.284098 117.351325,246.342642 118.339144,251.175631 L118.339139,251.175632 C118.352897,251.242946 118.363178,251.310924 118.36994,251.379297 C118.690283,254.618419 118.686772,256.491987 118.359407,257 C113.718148,264.20241 91.5566131,273.373013 88.8620763,274 C85.0880973,274.878161 85.9852011,267.901072 83.0063375,266.423307 C80.54568,265.202615 77.319118,268.924776 74.9332971,268.5 C72.0642397,267.989188 70.2949661,263.346654 70.9947506,261.669 C72.5972448,257.8272 78.6455695,256.414432 83.0063375,250 C85.265544,246.676841 88.4649899,239.676841 92.6046751,229 Z" id="path-11"></path>
        <filter x="-6.4%" y="-3.9%" width="112.8%" height="115.7%" filterUnits="objectBoundingBox" id="filter-12">
            <feOffset dx="0" dy="4" in="SourceAlpha" result="shadowOffsetOuter1"></feOffset>
            <feGaussianBlur stdDeviation="2" in="shadowOffsetOuter1" result="shadowBlurOuter1"></feGaussianBlur>
            <feComposite in="shadowBlurOuter1" in2="SourceAlpha" operator="out" result="shadowBlurOuter1"></feComposite>
            <feColorMatrix values="0 0 0 0 0   0 0 0 0 0   0 0 0 0 0  0 0 0 1 0" type="matrix" in="shadowBlurOuter1"></feColorMatrix>
        </filter>
        <path d="M93.0037894,165.932105 C96.4021105,169.850114 99.0735293,172.206079 101.018046,173 C102.499328,173.604789 104.396184,173.645021 106.708614,173.120697 L106.708612,173.120691 C107.785841,172.876438 108.857113,173.551699 109.101366,174.628927 C109.121307,174.716872 109.135277,174.806065 109.14318,174.895895 C109.509415,179.058422 110.440506,181.41456 111.936451,181.964308 C116.666735,183.702648 126.825037,178.988433 127.342056,181 C128.01191,183.606202 128.815566,186.149861 129.98838,188.524861 C130.581678,189.726317 133.563378,190.887151 132,191.985914 C128.728049,194.285484 122.859519,196.323271 118.193367,200 C109.919708,206.51929 102.284337,215.606044 97.1950051,222 C95.585328,224.02231 93.0060733,225.130762 89.4572409,225.325358 L89.4572418,225.325374 C88.3968199,225.383521 87.5667596,226.260343 87.5667596,227.322358 L87.5667696,231.416411 C87.5667696,231.796917 87.4582249,232.169527 87.2538766,232.490505 C84.0143504,237.578945 81.9278132,241.169544 80.9942652,243.262303 C79.2247002,247.229181 79.2388331,251.651264 78.1561191,252.256297 C75.6967972,253.630592 70.4922158,259.007005 68.1287594,257 C66.5449655,255.65507 67.3056937,253.008086 66.5353962,250 C65.7328298,246.865901 63.408439,243.392369 62.1626712,243.262303 C50.8263784,242.078719 42.4897264,239.357789 48.5670028,239.357789 C54.2505785,239.357789 55.0209619,232.599927 55.2385024,231 C55.712214,227.516033 41.7072494,220.820099 44.4026011,215.397525 C45.3911032,213.408832 43.652268,215.008636 40.475399,207 C39.3088355,204.059186 42.998151,195.542537 40.475399,191.985914 C36.2295242,186 33.753276,179.08192 36.2295242,176.410072 C38.7878394,173.649674 46.9385753,163.243699 46.9385753,171.066963 C46.9385753,173.968889 59.1191907,175.331494 69.5849593,173 C75.3552004,171.714545 55.2385024,168.137031 83.622119,165.932105 C89.4552084,165.478973 92.5824318,165.478973 93.0037894,165.932105 Z" id="path-13"></path>
        <filter x="-8.2%" y="-4.4%" width="116.4%" height="117.4%" filterUnits="objectBoundingBox" id="filter-14">
            <feOffset dx="0" dy="4" in="SourceAlpha" result="shadowOffsetOuter1"></feOffset>
            <feGaussianBlur stdDeviation="2" in="shadowOffsetOuter1" result="shadowBlurOuter1"></feGaussianBlur>
            <feComposite in="shadowBlurOuter1" in2="SourceAlpha" operator="out" result="shadowBlurOuter1"></feComposite>
            <feColorMatrix values="0 0 0 0 0   0 0 0 0 0   0 0 0 0 0  0 0 0 1 0" type="matrix" in="shadowBlurOuter1"></feColorMatrix>
        </filter>
        <path d="M11.6419087,107.507048 C13.8913887,107.150561 16.0218234,106.981109 18.0332129,106.998692 C20.7650294,107.022573 23.9097131,109.38462 27.4675734,109.384615 C32.293411,109.384609 45.5217141,102.075673 51.4639332,102.031727 C53.9558976,102.013298 52.1356713,99.7535869 54.6341588,97.8953846 C55.8691761,96.9768641 59.145313,98.417907 61.7171482,97.8953846 C63.9689284,97.4378882 65.4871026,94.9496909 67.2026493,95.0535196 C68.4866114,95.1312278 73.824098,93.9404021 75.5211398,94.1566923 C76.7384005,94.3118338 80.0986019,100.361586 84.4532557,101.435308 C85.0789229,101.589578 89.7348204,99.6968936 92.0890236,103.878623 C93.5296711,106.43762 91.7813406,115.707969 94.5383684,116.11471 C96.7546359,116.441673 99.3822208,114.402991 103.89435,114.615385 C105.854717,114.707663 109.041978,117.30897 113.837143,118 C115.207165,118.197434 118.137189,118.238568 122.627213,118.123403 L122.627213,118.123393 C123.731425,118.095071 124.649525,118.967252 124.677847,120.071465 C124.684242,120.320793 124.643945,120.569119 124.559036,120.803631 C124.10959,122.044959 124.058213,123.423317 124.404905,124.938705 C124.856727,126.913614 131.902301,127.538632 132.128334,130.615385 C132.360568,133.776543 137.859556,136.774558 137.727278,141.096494 C137.670473,142.952516 135.147216,142.112062 134.498268,145.336846 C134.320501,146.220217 137.999636,153.136503 137.727278,154.625308 C137.463136,156.069204 135.630272,158.995105 134.498268,161.998077 C133.817316,163.804502 130.83855,167.418083 129,172.463154 C128.852514,172.867864 128.794508,173.583688 128.825982,174.610628 L128.825966,174.610629 C128.859804,175.714671 127.992231,176.637105 126.888189,176.670943 C126.783576,176.674149 126.678873,176.669138 126.575044,176.655957 C124.297598,176.366835 122.736801,176.284873 121.892651,176.410072 C119.112312,176.822432 117.298558,178.874156 116.420557,178.345432 C113.621099,176.659626 114.879947,170.336531 112.210778,168.70631 C109.700741,167.173281 106.339147,170.128114 103.89435,168.70631 C101.808498,167.493256 100.131148,164.40435 98.1025518,163.230769 C94.6881314,161.255464 85.1688566,159.748447 77.750817,162.105 C75.2000258,162.915332 69.1340175,162.6526 67.2026493,164 C64.3119835,166.016644 65.927963,169.52834 64.316032,168.70631 C61.3816444,167.209872 54.8510134,170.672427 52.7272794,168.70631 C50.9880116,167.096125 52.6467562,163.975653 51.4639332,161.998077 C50.7634676,160.82696 46.7790258,163.206211 46.1506598,161.998077 C45.5723188,160.886124 46.6123314,158.426089 46.1506598,157.233846 C45.249544,154.906762 44.7111843,152.188623 43.5012422,150.413462 C42.2427275,148.567037 40.3110178,147.675451 39.3131204,145.847308 C37.7660029,143.012996 35.4499725,139.847951 33.2552462,138.814308 C32.8057449,138.602607 33.8432701,138.369077 33.2552462,138.369077 C19.4279083,138.369077 14.3757117,138.546328 11.010039,140.255418 C10.9981117,140.261475 10.2123092,141.431249 8.65263175,143.76474 L8.65262697,143.764737 C8.041249,144.679443 6.8058663,144.928573 5.88776569,144.322305 C3.72721471,142.895586 2.39195135,141.698411 1.8819756,140.730778 C1.17375777,139.386999 0.171019035,138.43854 0.247360239,136.439143 C0.351182505,133.720009 5.97400895,131.464729 7.57270592,126.385769 C7.99354602,125.048787 5.25014721,123.743505 5.48534852,121 C5.58659719,119.818985 10.0550756,117.292891 11.010039,114 C11.2099645,113.31062 10.9153384,112.074636 10.1261607,110.29205 L10.1261444,110.292057 C9.67899139,109.282032 10.135289,108.100757 11.1453136,107.653604 C11.3037959,107.583441 11.4707261,107.534177 11.6419087,107.507048 Z" id="path-15"></path>
        <filter x="-5.8%" y="-4.7%" width="111.6%" height="119.0%" filterUnits="objectBoundingBox" id="filter-16">
            <feOffset dx="0" dy="4" in="SourceAlpha" result="shadowOffsetOuter1"></feOffset>
            <feGaussianBlur stdDeviation="2" in="shadowOffsetOuter1" result="shadowBlurOuter1"></feGaussianBlur>
            <feComposite in="shadowBlurOuter1" in2="SourceAlpha" operator="out" result="shadowBlurOuter1"></feComposite>
            <feColorMatrix values="0 0 0 0 0   0 0 0 0 0   0 0 0 0 0  0 0 0 1 0" type="matrix" in="shadowBlurOuter1"></feColorMatrix>
        </filter>
        <path d="M167.2968,21.5857709 C177.89849,18.3895903 183.966224,16.0378755 185.5,14.5306267 C187.678576,12.3897306 172.79737,7.93956111 179.885916,8 C181.993391,8.0179689 183.214056,7.07599899 185.5,5.16666667 C188.003354,3.07574278 191.565401,-2.77070034e-14 193.66825,-2.84217094e-14 C196.357925,-2.80643564e-14 192.388185,7.88896992 193.66825,9.76084997 C195.377993,12.2610599 199.850061,10.4987377 202.40545,11.7553901 C203.750098,12.4166416 203.700623,15.7372826 204.311298,17 C205.782358,20.0417725 210.926195,17.2476177 212.144045,19 C214.14374,21.8773903 215.429058,24.2107236 216,26 C207.63015,37.0447573 202.090363,45.3780907 199.380638,51 C196.670913,56.6219093 195.623453,61.9552427 196.238258,67 C196.336252,83.2939858 194.952587,90.3705213 192.087263,88.2296064 C183.630157,81.9106211 186.725613,81.4285966 183.009733,81.3332828 C180.880903,81.2786775 180.880903,90 170.618627,94.2459231 C166.413021,95.985954 169.835893,102.324637 169.146957,102.284692 C163.807594,101.975112 164.592082,102.504065 161.550379,101.801341 C160.278834,101.507576 160.145849,98.9758117 158.5,98.1286923 C155.532507,96.6013218 151.036806,96.29373 150.139011,94.2459231 C149.100694,91.8775981 153.033436,89.9487197 151.46836,88.2296064 C148.307937,84.7581289 141.434347,85.2129353 139.235043,85 C135.075756,84.5973003 132.958456,90.0035188 130.295708,90 C126.210134,89.9946009 131.593836,102.750846 128.180506,102.750846 C109.248093,102.750846 100.187924,102.833897 101,103 C96.9829269,99.5322031 94.5172524,97.0377307 93.6029765,95.5165826 C89.6980036,89.0195922 90.7305146,84.2793595 92.0787105,81.3332828 C94.5732006,75.882325 117.429171,71.0041652 117.429171,68 C117.429171,58.7539335 120.893795,54.7113237 122.013313,51.5 C123.907256,46.0672507 118.304545,45.6710633 119.745478,43 C121.156324,40.3847083 124.778696,38.8455592 126.131307,37 C127.892142,34.5974413 135.429648,41.1138744 137.236378,38.8951616 C139.857683,35.676129 151.600579,36.4216655 155.007792,34.2893621 C157.234688,32.8957252 157.225028,15.3890408 158.5,14.5306267 C162.961594,11.5267209 165.89386,13.8784357 167.2968,21.5857709 Z" id="path-17"></path>
        <filter x="-5.2%" y="-5.3%" width="110.4%" height="112.6%" filterUnits="objectBoundingBox" id="filter-18">
            <feOffset dx="0" dy="1" in="SourceAlpha" result="shadowOffsetOuter1"></feOffset>
            <feGaussianBlur stdDeviation="2" in="shadowOffsetOuter1" result="shadowBlurOuter1"></feGaussianBlur>
            <feComposite in="shadowBlurOuter1" in2="SourceAlpha" operator="out" result="shadowBlurOuter1"></feComposite>
            <feColorMatrix values="0 0 0 0 0   0 0 0 0 0   0 0 0 0 0  0 0 0 1 0" type="matrix" in="shadowBlurOuter1"></feColorMatrix>
        </filter>
        <path d="M137.064508,89 L142.593495,89.0000047 C143.347526,89.0000047 144.037466,89.4240903 144.377963,90.0968638 C145.210368,91.7415753 146.186894,93.6425437 147.307543,95.7997692 C147.793922,96.7360382 149.12461,99.2137143 151.094782,100.106772 C153.342921,101.12583 156.262929,100.567404 156.90421,101.782365 C157.948552,103.76096 159.357115,107.264536 161.944544,110.493077 C163.291382,112.173633 166.085944,113.338848 166.911277,115.11471 C167.4107,116.189313 164.911015,117.801487 165.207719,119.39096 C165.429829,120.580827 168.400898,121.674436 168.919492,122.976231 C169.501213,124.436491 164.92948,128.43054 165.904608,130.92384 C166.12296,131.482143 165.944208,134.806197 167.780059,136.139059 C168.836787,136.906263 171.101069,135.365037 172.49757,136.038308 C174.024141,136.774286 173.554253,139.462382 174.885441,140.532462 C177.150986,142.353628 180.907084,142.686037 181.572968,143.92706 C182.551696,145.751137 180.868961,148.856807 181.572968,152.274154 C181.90942,153.907338 186.153458,156.965539 187.423855,160.998077 C187.65464,161.730643 186.816472,163.483126 184.909352,166.255527 L184.909349,166.255525 C184.584432,166.727861 184.07244,167.038052 183.503345,167.107357 C169.062439,168.86597 158.925201,170.496851 153.091631,172 C150.112917,172.767532 137.341621,182.903004 134.661214,182.903004 C127.924547,182.903004 135.886023,173.248345 137.061056,169.190355 C137.300848,168.362234 137.048024,167.767389 136.302587,167.405821 L136.302596,167.405801 C135.308775,166.923758 134.893898,165.727333 135.375941,164.733512 C135.466745,164.546304 135.586205,164.374412 135.730011,164.22404 C139.126856,160.6721 141.000268,158.264087 141.350246,157 C142.556945,152.641519 138.309221,148.712116 138.554383,144.721231 C138.613265,143.762724 140.915496,142.496532 141.350246,141.029769 C141.735234,139.730891 140.261789,138.229695 140.261789,137.307692 C140.261789,136.473506 138.929157,134.017583 138.554383,133.412 C136.727065,130.459302 135.235509,129.434866 134.661214,125.167231 C134.534465,124.225349 130.148975,123.524473 129.313269,122.230769 C127.796478,119.882723 129.473004,116.602583 129.313269,113.615385 C129.277498,112.946432 123.236756,113.526767 116.944884,112.383308 C114.291385,111.901072 108.736544,110.157179 104.25647,110.128154 C102.03441,110.113758 100.076802,112.108237 98.8686228,111.751538 C93.330001,110.116335 95.4287327,106.172591 96.0242344,105.185077 C96.9362334,103.672719 118.309366,105.401768 129.313269,104.011154 C133.075352,103.535722 135.386466,100.625735 135.577352,99.9020769 C135.975816,98.3914826 135.814489,95.5369715 135.093372,91.3385438 L135.093388,91.3385411 C134.906408,90.2499215 135.637331,89.2158437 136.725951,89.0288638 C136.83778,89.0096561 136.951041,89 137.064508,89 Z" id="path-19"></path>
        <filter x="-8.7%" y="-4.3%" width="117.3%" height="117.0%" filterUnits="objectBoundingBox" id="filter-20">
            <feOffset dx="0" dy="4" in="SourceAlpha" result="shadowOffsetOuter1"></feOffset>
            <feGaussianBlur stdDeviation="2" in="shadowOffsetOuter1" result="shadowBlurOuter1"></feGaussianBlur>
            <feComposite in="shadowBlurOuter1" in2="SourceAlpha" operator="out" result="shadowBlurOuter1"></feComposite>
            <feColorMatrix values="0 0 0 0 0   0 0 0 0 0   0 0 0 0 0  0 0 0 1 0" type="matrix" in="shadowBlurOuter1"></feColorMatrix>
        </filter>
    </defs>
    <g id="Page-1" stroke="none" stroke-width="1" fill="none" fill-rule="evenodd">
        <g id="Municipalità" transform="translate(0.000000, -99.000000)">
            <g id="Group" transform="translate(0.000000, 102.000000)">
                <g id="V2">
                    <use fill="black" fill-opacity="1" filter="url(#filter-2)" xlink:href="#path-1"></use>
                    <path stroke="#000000" stroke-width="1" d="M189.844533,169.42571 C189.843433,169.43064 189.842337,169.435566 189.841245,169.440486 C189.844521,169.425725 189.846348,169.41083 189.846889,169.395955 Z M189.688181,169.117857 C189.686253,169.117051 189.684328,169.116298 189.682407,169.115598 C189.688015,169.117641 189.695068,169.119586 189.703513,169.121404 Z M189.912287,169.13558 C189.952214,169.135491 189.996476,169.134393 190.044677,169.13207 C190.409657,169.114485 190.774724,169.059852 191.7853,168.885785 C191.845972,168.875338 191.845972,168.875338 191.906792,168.864892 C194.080835,168.491868 194.696466,168.457335 195.044716,169.091461 C196.540324,171.814804 197.666699,173.796374 198.421965,175.033256 C198.618293,175.354779 198.788937,175.624907 198.932916,175.842486 C198.996161,175.718578 199.069887,175.599674 199.153576,175.487141 C200.652394,173.471811 201.60775,172.350913 202.127055,172.035723 C202.517833,171.798542 202.934883,171.613394 203.386803,171.468299 C204.002658,171.270571 204.37706,171.202935 205.536454,171.038234 C206.583609,170.889477 207.004081,170.764499 207.263128,170.493135 C208.558353,169.136332 209.618126,166.582453 210.411267,162.841026 C210.570812,162.088419 211.067987,161.45118 211.759194,161.113364 C220.390023,156.895314 226.018622,154.57286 228.710802,154.131883 C229.69604,153.970502 230.318886,154.626538 231.374124,156.325216 C232.206709,157.665476 232.519029,158.064286 232.698711,158.064092 C233.006633,158.010318 233.266731,157.8302 233.712141,157.397396 C233.870047,157.242766 233.953711,157.161404 234.036433,157.084442 C234.418702,156.728793 234.726359,156.529194 235.107067,156.457623 C236.591374,156.178583 237.992126,156.122326 239.307845,156.290481 C237.909345,153.407073 236.750295,151.206185 235.832906,149.690871 C234.98728,148.294092 233.474,146.037617 231.296135,142.926805 C231.25505,142.868121 231.209814,142.812455 231.160774,142.760235 C230.59366,142.156342 229.644375,142.126529 229.040489,142.693652 C226.551206,145.031331 224.740473,146.461819 223.567442,147.00187 C222.99784,147.264109 222.399784,147.483484 221.773083,147.664302 C219.973838,148.183424 218.600797,148.314128 215.79577,148.399287 C214.792298,148.429751 214.373883,148.459764 214.096737,148.533821 C212.584908,148.937801 210.779562,149.207464 208.705916,149.368667 C206.484167,149.541383 204.536124,149.575026 201.381444,149.554664 C199.87674,149.544951 199.479112,149.546159 199.127463,149.569691 C197.829179,149.656568 197.31076,148.402282 196.802629,145.572378 C196.754167,145.30248 196.600869,144.408731 196.588728,144.339448 C196.451249,143.554962 196.350422,143.083417 196.237046,142.738618 C196.185218,142.581 196.134446,142.465191 196.090479,142.395672 C194.864612,142.387638 193.931296,141.92987 192.698322,140.963508 C192.636764,140.915261 192.142976,140.521731 192.005941,140.416431 C191.764255,140.230714 191.572428,140.097283 191.394028,139.994051 C191.105327,139.826994 190.862219,139.746868 190.634546,139.744308 C188.769696,139.723337 187.066994,139.384131 184.356305,138.623129 C180.991447,137.678474 180.398605,137.538308 179.275968,137.538308 C179.183786,137.538308 179.100013,137.591898 179.06137,137.675589 C179.006648,137.7941 179.058354,137.934505 179.176903,137.989224 C183.309079,139.897221 185.471447,141.08441 185.916244,141.752748 C186.375999,142.443562 186.287828,143.356012 185.837265,144.548379 C185.721961,144.853519 185.586163,145.168809 185.412701,145.543149 C185.42912,145.507716 184.940703,146.537554 184.846997,146.758203 C184.748168,146.990918 184.708494,147.151581 184.674977,147.07918 C185.507242,148.876989 185.699795,150.109043 185.71982,152.155826 C185.729005,153.094563 185.767657,153.410698 185.926417,153.669985 C186.396404,154.437573 187.013436,154.999884 187.829921,155.478709 C188.096972,155.63532 188.375263,155.778342 188.731023,155.946485 C188.769832,155.964828 189.421023,156.26629 189.598401,156.353214 C190.468787,156.779743 190.926688,157.152902 191.11748,157.764479 C191.990355,160.562444 191.731946,162.906274 190.600866,166.718903 C190.550928,166.887232 190.365039,167.508642 190.385859,167.4389 C190.301174,167.722571 190.239619,167.931443 190.181588,168.133273 C190.072906,168.511264 189.985107,168.836449 189.912287,169.13558 Z" stroke-linejoin="square" fill="#00B9FF" fill-rule="evenodd"></path>
                </g>
                <g id="V7" >
                    <use fill="black" fill-opacity="1" filter="url(#filter-4)" xlink:href="#path-3"></use>
                    <path stroke="#000000" stroke-width="1" d="M231.234139,49.3779845 C229.840691,48.8669703 228.865693,47.2113954 227.713281,44.1640336 C227.554961,43.7453834 227.018863,42.2800718 227.048894,42.3613355 C226.797804,41.6818757 226.613299,41.2112295 226.434449,40.8059347 C226.056175,39.9487183 225.732709,39.4938048 225.531834,39.4382559 C224.582346,39.1756895 224.574007,38.3111545 225.12394,37.1701515 C225.480873,36.429585 226.036193,35.5805477 227.025113,34.1971228 C227.116183,34.0698348 227.116183,34.0698348 227.2073,33.9428271 C228.490054,32.1556418 228.744645,31.7896307 229.095448,31.1813494 C229.276138,30.8680395 229.391554,30.6203361 229.439561,30.4517458 C228.796836,30.3616286 227.837071,30.646464 226.073434,31.3710346 C225.967721,31.4145098 225.967721,31.4145098 225.861826,31.4581729 C223.420237,32.4651862 222.572735,32.7229884 221.678723,32.4828886 C220.525442,32.1731583 219.440134,31.8788758 218.422788,31.600038 C217.834006,31.4386627 217.206164,31.6502228 216.835122,32.1350262 C205.667105,46.726913 200.089495,57.3762055 200.089495,64 C200.089495,64.4242183 200.187106,64.5894372 200.381344,64.6629676 C200.595836,64.7441651 200.938919,64.7373255 201.474449,64.6477315 C201.569531,64.6318243 201.663381,64.614894 201.80684,64.5881432 C202.938286,64.3771621 203.236076,64.3546072 203.634403,64.6291453 C204.242864,65.0485136 206.296438,63.6076334 209.45292,60.1627653 C210.039605,59.5224785 210.916534,59.2325233 211.769256,59.3968738 C216.744232,60.3556459 220.147945,61.2203517 222.0025,62.0015107 C224.68591,63.1317923 227.228706,64.4370412 229.677052,65.9056377 C231.594735,67.0559258 233.396644,68.2695989 235.217104,69.6069408 C235.922722,70.125301 236.60854,70.6451632 237.374082,71.238179 C237.773843,71.547848 238.976499,72.4884787 239.126689,72.6051782 C241.716693,74.6176537 243.929019,77.3679824 246.281782,81.1797373 C246.817528,82.0477082 247.343565,82.9398573 247.999839,84.0831326 C248.055426,84.1799682 249.233832,86.2453686 249.560518,86.8081936 C250.751703,88.8604005 251.576973,90.1212948 252.382445,91.0475278 C253.090157,91.8613439 253.737852,92.3459387 254.352925,92.5186097 C255.59507,92.8673201 256.312725,92.5160765 257.397216,91.2770019 C257.527765,91.1278453 258.020255,90.5461845 258.132056,90.4173163 C259.071165,89.3348473 259.836589,88.6931828 260.881192,88.271275 C262.103833,87.7774589 263.698788,87.7351151 266.222659,87.971762 C266.549859,88.0024413 266.863048,88.0343406 267.357036,88.0864312 C269.962861,88.3612135 270.843999,88.4098164 271.640553,88.2452315 C271.893217,88.1930259 271.847755,88.2047565 272.689512,87.9811998 C274.067542,87.615218 274.889921,87.502535 275.82969,87.6758224 C276.384893,87.7781984 276.906805,87.9888792 277.396947,88.3209406 C278.008954,88.7355625 278.515484,89.2601608 279.434549,90.3430506 C280.970976,92.1533478 281.556801,92.6539653 282.126417,92.5143705 C282.714015,92.3703688 282.934292,91.8087344 283.163854,90.0649518 C283.25647,89.3614342 283.275045,89.2271922 283.328272,88.9098379 C283.503459,87.8653288 283.75077,87.0777333 284.1766,86.4021819 C284.771515,85.4583862 285.783112,84.7523258 287.217023,84.1197673 C287.632473,83.936495 289.951146,83.0730474 290.192368,82.9012255 C290.19514,82.8992441 290.19514,82.8992441 290.197803,82.8973128 C291.055901,82.2729115 291.288262,81.5857818 291.272334,80.2830354 C291.270973,80.1717326 291.26888,80.0804248 291.263534,79.8791113 C291.218448,78.1810812 291.367482,77.4283469 292.220267,76.6341098 C292.895636,76.0051074 294.042977,75.2040401 295.672174,74.219332 C295.866102,74.102119 296.030955,73.9424926 296.154352,73.7524395 C296.605487,73.057615 296.407936,72.1286354 295.713106,71.6775083 C292.028868,69.2854108 289.537604,67.1765543 288.232323,65.3293812 C286.823128,63.3351545 286.024493,60.5599499 285.821734,57.0083864 C285.779971,56.2768679 285.215826,55.6825675 284.487473,55.6027945 C279.013417,55.0033641 275.265795,53.9471658 273.220184,52.3986584 C271.499993,51.0964899 269.956756,49.4804704 268.189935,47.2637736 C267.57328,46.4901031 265.554556,43.8415737 265.627068,43.9353138 C264.676548,42.7065298 263.98205,41.8827504 263.308582,41.2155833 C262.102002,40.020292 261.05339,39.4474543 260.001108,39.456325 C258.186989,39.471618 256.54565,41.7362467 254.384089,46.531211 C254.120064,47.116895 253.261493,49.0693468 253.18659,49.2376569 C252.728051,50.2680124 252.38475,50.9985491 252.054865,51.6284594 C251.157034,53.3428523 250.416613,54.2001789 249.515868,54.1951795 C239.374475,54.1388925 232.764436,53.9067139 229.66126,53.4956705 C228.874794,53.3914961 228.767563,52.7483356 229.123883,52.0840103 C229.317102,51.7237713 229.619932,51.3304573 230.176424,50.675695 C230.224378,50.6193234 230.224378,50.6193234 230.272277,50.5631696 C230.912571,49.8128748 231.066499,49.6265716 231.234139,49.3779845 Z M272.963029,88.9432303 C272.957429,88.9447137 272.951819,88.9462019 272.946197,88.9476949 C272.956259,88.9450227 272.963951,88.942982 272.969481,88.9415173 Z" stroke-linejoin="square" fill="#004ABC" fill-rule="evenodd"></path>
                </g>
                <g id="V3">
                    <use fill="black" fill-opacity="1" filter="url(#filter-6)" xlink:href="#path-5"></use>
                    <path stroke="#000000" stroke-width="1" d="M195.029027,137.177094 C196.111494,137.27334 196.929767,137.325699 197.479682,137.334329 C197.734359,137.338326 197.926836,137.33276 198.051106,137.319056 C198.012237,137.330928 197.982902,137.365119 197.911959,137.531814 C198.111823,137.062192 198.450634,136.664994 198.882865,136.393594 C204.698152,132.742051 208.559679,130.144305 210.454193,128.611311 C213.426212,126.206427 219.401721,119.604753 219.981767,119.144131 C221.829322,117.676962 228.607141,112.521147 229.951805,111.413132 C232.652355,109.187854 233.984252,107.646512 234.35515,106.211264 C234.366562,106.167102 234.377033,106.12305 234.386566,106.079098 C234.741453,104.442818 236.643231,103.330102 242.233722,100.827493 C247.734989,98.3648257 249.645355,97.2181058 249.526427,96.1717777 C249.275612,93.9651215 248.477965,92.4892809 246.759961,90.627874 C246.452967,90.2952551 244.663506,88.4650635 244.117293,87.8659646 C243.767273,87.482054 243.410937,87.0326554 243.013669,86.4833182 C242.781446,86.1622027 242.543066,85.8185186 242.236096,85.3655268 C242.154745,85.2454783 241.613386,84.4417432 241.453236,84.2064189 C240.268532,82.465611 239.446134,81.4354749 238.51258,80.6368982 C237.777697,80.0082668 237.235125,79.3391116 236.30314,78.0175547 C236.153475,77.8050209 236.065312,77.6797811 236.004146,77.5931763 C234.769095,75.8444642 234.002227,74.9993739 232.87451,74.3463638 C232.785459,74.2947981 232.60188,74.3047915 232.122964,74.4024751 C232.109478,74.4052256 232.109478,74.4052256 232.095906,74.4079907 C231.394046,74.5509198 231.059976,74.5669669 230.668901,74.3516919 C229.054558,73.463045 226.891171,71.8051257 224.176901,69.3830472 C219.139597,65.1569136 215.410006,63.304047 213.076536,63.7676743 C211.91051,63.9993469 211.521408,64.4835958 210.950807,65.990266 C210.935591,66.0304487 210.935591,66.0304487 210.920277,66.0708568 C210.448772,67.3142456 210.103816,67.9007164 209.34309,68.4143804 C208.495725,68.9865451 207.657972,69.0436395 205.43202,68.9163124 C204.989324,68.8909896 204.76641,68.8795894 204.508462,68.8706855 C202.389238,68.7975345 201.197785,69.1365679 200.418443,70.2813712 C199.986991,70.9151463 199.886865,71.9728519 199.867506,75.0632361 C199.844132,78.7944371 199.735829,80.6809348 199.259103,83.0661028 C198.957572,84.5747321 197.91357,86.6186711 196.128632,89.2272317 C195.579028,90.030439 194.613246,90.4416816 193.653323,90.2812488 C190.100332,89.6874773 187.930902,89.4564181 187.281323,89.5815485 C186.967079,89.6420823 186.900668,89.7956604 186.956396,90.2964913 C186.967173,90.3933488 186.981626,90.4899341 187.007119,90.6427199 C187.081021,91.085631 187.094263,91.1856639 187.085438,91.3735963 C187.066747,91.7716229 186.854883,92.0891399 186.43194,92.1402107 C185.477484,92.2554625 184.702706,92.236228 183.47952,92.1227107 C182.222024,92.0060095 181.892702,91.9988457 181.519555,92.1195472 C180.352571,92.4970307 179.236932,93.2085427 178.024767,94.2570091 C177.68713,94.5490498 175.784993,96.3596346 175.381846,96.6338243 C174.305197,97.3660775 173.867093,98.5277454 173.817763,100.295814 C173.804616,100.767035 173.814966,101.179041 173.850474,101.972371 C173.955339,104.315347 173.875754,105.021226 173.063837,105.539597 C172.285655,106.03643 171.432574,106.314541 170.482695,106.418871 C169.607758,106.514971 168.853993,106.474563 167.487291,106.316359 C165.230983,106.055178 164.607347,106.126744 164.202673,106.85587 C163.616764,107.91154 163.801738,108.21503 165.138104,108.757548 C165.352153,108.844444 166.218567,109.173175 166.397713,109.243863 C166.956598,109.464389 167.414655,109.668009 167.85924,109.903234 C169.71385,110.884485 171.014406,112.2863 171.742277,114.456384 C171.869805,114.836596 171.82676,115.246013 171.656623,115.776718 C171.595791,115.96647 171.521326,116.165885 171.408754,116.447864 C171.438278,116.37391 171.187383,116.996505 171.119425,117.171416 C170.654187,118.368857 170.44583,119.291001 170.499339,120.330314 C170.518487,120.702245 170.706132,121.016175 171.492484,122.089436 C172.402515,123.331502 172.759211,124.060377 172.668651,124.987322 C172.542089,126.282771 172.015836,128.837556 171.087397,132.676188 C171.060836,132.786004 171.046767,132.89847 171.045458,133.011446 C171.035861,133.839825 171.699613,134.519135 172.527993,134.528723 C184.239397,134.664414 190.885714,134.777903 192.497866,134.870114 C193.149858,134.907406 193.572711,135.309742 194.236087,136.229482 C194.760423,136.956451 194.901979,137.126679 195.029027,137.177094 Z" stroke-linejoin="square" fill="#02928B" fill-rule="evenodd"></path>
                </g>
                <g id="V4">
                    <use fill="black" fill-opacity="1" filter="url(#filter-8)" xlink:href="#path-7"></use>
                    <path stroke="#000000" stroke-width="1" d="M199.925142,142.656782 C200.701202,144.43049 201.831915,145.301329 203.352894,145.347538 C204.590158,145.385128 205.842824,145.139311 209.629186,144.227667 C209.935213,144.153985 210.168477,144.098119 210.396076,144.044129 C214.767669,143.00713 217.035634,142.750998 218.586842,143.469368 C219.207589,143.756838 220.326101,143.087189 223.529154,140.662142 C223.758893,140.488205 223.943309,140.349286 224.121303,140.216335 C227.059547,138.021644 228.690091,137.202724 230.052195,137.761749 C230.913377,138.115189 231.592152,138.254379 233.1618,138.467738 C235.139287,138.736535 236.045223,138.959724 237.179841,139.612604 C238.11946,140.153277 238.448254,141.09238 238.872905,143.479002 C238.916934,143.727309 238.941191,143.864075 238.961361,143.976588 C238.995323,144.166037 239.024297,144.32381 239.053019,144.474596 C239.410709,146.352424 239.825373,147.433322 240.577268,148.105766 C240.72488,148.237781 242.183591,149.35365 242.68717,149.785619 C244.013829,150.923624 244.864523,151.995609 245.155236,153.152276 C245.301014,153.732285 245.253559,154.326597 245.059918,155.087266 C245.012231,155.274596 244.965836,155.437823 244.876167,155.741236 C244.428079,157.25743 244.420686,157.758626 244.997435,158.257546 C245.416151,158.619759 246.007963,158.97874 246.844291,159.390851 C247.136707,159.534942 250.992673,161.247849 252.242853,161.906607 C252.798978,162.199646 253.320829,162.497027 253.817306,162.806425 C254.858189,163.45509 256.290545,164.665376 258.128656,166.444036 C258.63917,166.938038 259.426206,167.006182 260.01403,166.607275 C277.051298,155.045583 290.007507,149.337966 298.935348,149.502777 C299.402577,149.511403 299.869938,149.495635 300.335523,149.455539 C307.725224,148.819142 313.199859,142.312704 312.563462,134.923003 L312.196183,130.658286 L312.199446,130.544105 C312.824018,126.207685 313.42245,122.985049 313.997375,120.868909 C314.005952,120.837461 314.005952,120.837461 314.014656,120.806031 C314.311356,119.738691 314.686764,118.850907 315.541432,117.049652 C316.775636,114.448508 317.175032,113.406213 317.282523,112.118038 C317.760655,106.38805 317.170871,99.3801465 315.509764,91.098328 L315.503275,90.9428636 C315.880185,87.6661386 316.068362,85.2004234 316.068362,83.5526663 C316.068362,82.2027372 315.906212,81.4674215 315.937834,81.4713838 C315.248822,81.3850472 314.325264,81.8548799 313.02321,82.9393685 C312.211762,83.6152289 308.92005,86.7338752 308.818032,86.8271495 C307.121388,88.3783783 305.682678,89.5205388 304.192832,90.4271334 C302.912695,91.2061165 301.416352,91.6033214 299.438699,91.8064053 C298.832692,91.8686358 298.405624,91.8983782 297.264542,91.9665798 C295.516981,92.0710302 294.747847,92.1514395 293.969886,92.3540691 C292.972938,92.6137368 292.324467,92.2277259 292.223846,91.3487042 C292.165805,90.8416635 292.238066,90.4140009 292.530603,89.1245036 C292.562388,88.9842085 292.562388,88.9842085 292.593537,88.8445866 C292.826975,87.7914752 292.888464,87.1927791 292.77078,86.8166571 C292.663842,86.4748806 292.356756,86.3592455 291.51193,86.5565348 C291.064296,86.6610693 290.36917,87.6860841 287.555142,92.2426161 C287.331056,92.6054601 287.13538,92.9200228 286.948338,93.2175584 C284.843352,96.5660629 283.573559,98.1597509 282.458282,98.3765084 C280.625563,98.732703 277.082917,97.9799129 275.539848,96.4730333 C275.008761,95.9544014 274.835718,95.4047085 274.678179,94.2672489 C274.673085,94.2304144 274.673085,94.2304144 274.668037,94.1938086 C274.500844,92.9815734 274.332846,92.585183 273.747735,92.327925 C272.694238,91.8647305 269.535964,92.2183938 264.44542,93.4337535 C264.336267,93.4598136 264.230412,93.4980334 264.129781,93.5477276 C253.555204,98.7678471 244.14331,104.657933 235.893527,111.217593 C234.157462,112.597993 232.298381,114.476608 229.500738,117.584412 C228.783193,118.381507 226.209178,121.27654 225.852322,121.675489 C224.330896,123.376374 223.097598,124.724565 221.857291,126.030301 C219.79926,128.196898 217.862217,130.091886 215.910705,131.818499 C212.758398,134.607525 207.432807,138.217053 199.925142,142.656782 Z" stroke-linejoin="square" fill="#A70062" fill-rule="evenodd"></path>
                </g>
                <g id="V6">
                    <use fill="black" fill-opacity="1" filter="url(#filter-10)" xlink:href="#path-9"></use>
                    <path stroke="#000000" stroke-width="1" d="M268.184195,169.365878 C268.17916,169.362717 268.174009,169.35954 268.168748,169.35633 C268.184348,169.365848 268.202833,169.376452 268.224299,169.388184 Z M268.394664,169.474927 C268.434301,169.494166 268.478235,169.515053 268.526617,169.537659 C268.698412,169.617925 269.703733,170.066793 270.023042,170.213201 C271.764622,171.011742 273.251786,171.802883 274.706933,172.775629 C275.665985,173.416743 276.545188,174.099217 277.335325,174.830111 C278.179898,175.611359 278.694327,176.429317 279.471897,178.020763 C279.399424,177.872446 279.785129,178.664968 279.876075,178.848417 C280.026813,179.152473 280.158663,179.408337 280.291582,179.652089 C281.236742,181.38536 282.312483,182.577302 284.054565,183.56505 C284.352787,183.73414 284.892763,183.70838 286.469114,183.486007 C286.814536,183.437279 287.034595,183.407789 287.265485,183.380516 C288.316874,183.256325 289.085684,183.251667 289.753645,183.417784 C291.176972,183.771755 293.513333,184.745129 296.78655,186.342617 C297.133263,186.51183 297.436115,186.758994 297.671417,187.064776 C301.788968,192.416152 304.887157,195.652831 306.911324,196.748251 C307.916769,197.292368 308.585273,197.025028 309.74497,195.850102 C309.861732,195.731806 309.98133,195.607765 310.225387,195.353787 C311.262776,194.278724 311.899072,193.777983 312.789353,193.519787 C313.949055,193.183456 315.021623,193.49114 317.703214,194.622325 C317.741968,194.638672 317.741968,194.638672 317.780694,194.655003 C320.357918,195.741715 321.478459,196.013034 322.300909,195.561671 C323.417625,194.948813 323.78386,194.412823 323.711908,193.820868 C323.663521,193.422786 323.495105,193.084394 322.954909,192.204228 C322.300756,191.138385 322.055074,190.59533 322.041553,189.871242 C321.962871,185.6577 324.497465,181.834342 328.409058,180.26606 C342.813874,174.490645 350.340271,169.410594 350.960189,165.227394 C351.190825,163.671069 350.715045,162.163094 349.49878,159.837408 C349.517662,159.873512 348.850015,158.614508 348.681341,158.279853 C348.391517,157.704833 348.193198,157.251442 348.059839,156.834704 C347.706455,155.730407 347.83142,154.862393 348.590812,154.238877 C350.219409,152.90168 352.715143,152.260898 357.545141,151.593021 C357.908608,151.542762 358.260058,151.495185 358.968861,151.39963 C364.255952,150.684683 366.316353,150.125978 366.937113,148.951287 C367.386727,148.100464 367.061126,147.185687 365.216879,143.422642 C364.636781,142.238995 364.266885,141.419307 363.957146,140.583879 C363.866383,140.339072 363.784235,140.100509 363.710614,139.866908 C362.64893,136.498187 362.83975,132.650718 363.724852,130.491509 C363.893648,130.079731 364.320826,129.748982 365.011762,129.401182 C365.74543,129.031872 366.265501,128.837239 368.488116,128.055661 C370.253174,127.434982 371.159413,127.075213 371.857994,126.677099 C372.58493,126.262825 372.736979,126.024382 372.59748,125.835071 C371.390262,124.196791 370.342361,122.552435 369.290463,120.696348 C368.879746,119.971633 368.481478,119.239448 367.993364,118.319159 C367.878908,118.103363 367.043672,116.517858 366.802734,116.066584 C365.64666,113.901262 364.797391,112.484913 363.786204,111.124507 C361.323192,107.810879 357.60391,103.73406 352.630633,98.8989446 C352.486108,98.7584348 352.314756,98.6485047 352.126784,98.5757108 C344.832676,95.7504558 340.065578,93.4205457 337.794389,91.5578446 C337.723452,91.4996656 334.627976,89.0239526 333.912617,88.3927277 C331.910509,86.6260906 330.706755,84.9549932 329.517922,82.0978763 C329.395836,81.8044673 329.274067,81.4981743 329.152162,81.1778333 C329.015492,80.8186948 329.037197,80.8276027 328.887324,80.92475 C328.630597,81.091159 328.387935,81.3681211 327.725379,82.2107435 C327.599844,82.3703949 327.516941,82.4748519 327.431435,82.5804174 C326.45574,83.7850179 325.808268,84.2549266 325.025283,83.7841816 C323.386841,82.7991209 321.863236,82.7205918 321.104493,83.3394999 C320.454722,83.8695202 320.57652,84.8242477 321.693491,85.7988661 C322.336821,86.3602073 322.749828,87.6741869 323.020768,89.8030524 C323.034692,89.9124613 323.041359,90.022651 323.040718,90.1328161 C323.012281,95.1627616 323.012528,99.071923 323.041439,101.859584 C323.046514,102.348922 323.05602,102.788434 323.075053,103.503142 C323.130639,105.590443 323.13102,106.233824 323.038307,107.0548 C322.863473,108.602977 322.65952,109.931005 322.376606,111.433219 C322.244318,112.135639 322.144905,112.6304 321.854613,114.049224 C321.844913,114.096631 321.570723,115.44517 321.485318,115.858947 C321.334711,116.588623 321.203157,117.204867 321.070617,117.794991 C320.780464,119.086873 320.500145,120.184246 320.205534,121.146392 C319.943686,122.00154 319.629983,122.93679 319.197868,124.16918 C319.132942,124.35435 319.064763,124.547925 318.988517,124.763695 C317.528961,128.894122 317.264147,129.694728 317.100281,130.696129 C316.772021,132.702165 316.980203,133.723398 317.560827,134.447103 C317.646506,134.553896 317.987488,134.922835 318.06138,135.015713 C318.414392,135.459429 318.491963,135.916542 318.252506,136.517775 C318.00746,137.133037 317.749231,137.701177 317.473706,138.238248 C317.129072,138.910031 316.769921,139.512178 316.339068,140.161877 C316.125874,140.483359 315.424921,141.494581 315.305268,141.673073 C313.9354,143.716569 313.428623,145.416844 313.428623,149.070806 C313.428623,150.34973 309.547815,152.94192 305.235135,154.404585 C304.076702,154.797473 302.788184,155.166334 301.358304,155.522755 C299.221946,156.055278 292.056251,157.478812 291.572201,157.691579 C290.348522,158.229454 289.048258,158.764079 287.585935,159.335769 C286.006007,159.953436 280.57215,161.978732 279.59021,162.358169 C272.854336,164.961015 269.514194,166.940247 268.394664,169.474927 Z M278.562683,178.437823 C278.565414,178.443385 278.572052,178.456968 278.583267,178.47995 C278.576382,178.465841 278.569521,178.451799 278.562683,178.437823 Z" stroke-linejoin="square" fill="#71008C" fill-rule="evenodd"></path>
                </g>
                <g id="V1">
                    <use fill="black" fill-opacity="1" filter="url(#filter-12)" xlink:href="#path-11"></use>
                    <path stroke="#000000" stroke-width="1" d="M93.029631,229.287047 C88.8964729,239.938761 85.6996194,246.927677 83.4198321,250.281109 C82.2941529,251.936916 81.0033489,253.356523 79.4806993,254.689683 C78.1818085,255.826931 74.0813686,258.81752 74.0874078,258.812743 C72.6997777,259.910176 71.8918547,260.817088 71.4562147,261.861486 C70.7529575,263.547466 72.772713,267.607463 75.0209397,268.007741 C75.7681151,268.14077 76.497571,267.870757 78.3402133,266.911607 C78.5984447,266.77719 78.7498424,266.699082 78.9138735,266.616291 C80.8185155,265.654965 82.0297496,265.380694 83.2285398,265.975394 C84.4307141,266.571773 85.0257496,267.654776 85.7861883,269.957181 C85.8222646,270.06641 85.8635972,270.192497 85.9398219,270.425128 C86.8162876,273.094456 87.3826586,273.830886 88.7487593,273.51301 C90.465219,273.11361 97.1251203,270.321094 102.654761,267.519754 C110.355967,263.61829 115.945163,259.823419 117.939113,256.729161 C118.173388,256.365609 118.17687,254.507459 117.872367,251.428506 C117.867296,251.377229 117.859585,251.326234 117.849271,251.275756 C116.841652,246.345889 117.557744,240.203541 119.98323,232.843505 C122.422707,225.441017 126.198051,219.043457 131.307648,213.655928 L131.392461,213.584392 C135.709902,210.69672 138.574817,208.701539 139.978255,207.605882 C141.015463,206.796138 141.664493,206.03538 142.057187,205.226258 C142.416721,204.485457 142.547234,203.845301 142.697953,202.41667 C143.001187,199.542362 143.368559,198.088128 144.72197,195.749551 C147.784721,190.457384 150.250991,188.867783 158.540865,186.518937 C163.412723,185.138549 172.898231,185.138549 187.048841,186.502306 L187.177264,186.532146 L193.259359,188.82519 C193.377742,188.869822 193.501296,188.899298 193.627079,188.912915 C194.45069,189.002077 195.190641,188.406687 195.279808,187.583077 C195.625554,184.389339 195.50871,181.566509 194.932654,179.114346 C194.840369,178.721507 194.805666,178.408131 194.756513,177.712892 C194.749813,177.618097 194.749813,177.618097 194.742992,177.524302 C194.487794,174.064008 191.982517,172.832575 180.272041,172.963123 C178.30689,172.98503 178.384701,172.966337 171.20927,174.918754 C166.225837,176.274734 162.675548,176.910072 158.677169,176.910072 C153.70761,176.910072 150.318042,178.692557 143.108892,184.079016 C143.104072,184.082617 143.104072,184.082617 143.099252,184.086219 C139.727816,186.605253 138.198076,187.672529 136.20205,188.785233 C135.484151,189.185433 135.406964,189.718962 135.634611,191.53729 C135.714432,192.174851 135.747824,192.513305 135.758771,192.909005 C135.799147,194.368435 135.395845,195.488719 134.294617,196.387382 C133.003101,197.44133 123.886613,202.509344 122.509923,203.356818 C119.748504,205.056714 117.473295,206.685768 115.596569,208.371932 C111.746481,211.831083 104.223339,218.803533 93.029631,229.287047 Z" stroke-linejoin="square" fill="#FF0000" fill-rule="evenodd"></path>
                </g>
                <g id="V10">
                    <use fill="black" fill-opacity="1" filter="url(#filter-14)" xlink:href="#path-13"></use>
                    <path stroke="#000000" stroke-width="1" d="M92.6342656,166.269162 C92.3614921,166.005817 89.1056338,166.007635 83.6608439,166.430603 C74.1844337,167.166759 69.5415038,168.104447 68.6011087,169.132285 C68.4491597,169.298363 68.4498863,169.41054 68.6028775,169.634786 C68.7762217,169.888865 69.0810606,170.159815 69.6396604,170.580157 C70.7954061,171.449848 70.8916175,171.530123 71.08483,171.91646 C71.4756592,172.697942 70.9000587,173.219288 69.6936808,173.488037 C59.229792,175.819111 46.4385753,174.608692 46.4385753,171.066963 C46.4385753,169.16542 46.023146,168.578791 45.2431947,168.732127 C44.3944444,168.898989 43.1267767,169.814885 41.5531911,171.344262 C41.0554715,171.827999 40.5326803,172.366924 39.973928,172.968357 C39.1279316,173.878975 36.8099619,176.519349 36.5962462,176.749947 C34.5045075,179.006912 36.4136324,185.395327 40.8832231,191.69664 C42.0138504,193.29062 42.1052623,195.584649 41.5574165,199.280912 C41.4884933,199.74593 41.4156104,200.200482 41.3026033,200.881123 C40.6736463,204.669331 40.5670877,205.875131 40.9401674,206.815635 C41.9318345,209.31555 42.8357353,211.028728 43.7188205,212.273723 C43.9894515,212.655265 44.9801244,213.830978 45.0950698,214.122492 C45.2676072,214.560067 45.1837766,214.949262 44.8503397,215.620079 C44.2423381,216.843271 44.5904429,218.241459 45.8336842,219.923957 C46.7362126,221.145363 47.9675514,222.36754 49.9843292,224.142313 C55.4282335,228.93297 55.9505717,229.474149 55.7339436,231.067365 C55.6955047,231.356525 55.6697734,231.544828 55.6373484,231.760022 C55.5872745,232.092346 55.5316773,232.413874 55.4654671,232.741815 C55.2918657,233.601668 55.0622358,234.420186 54.7566535,235.194181 C53.6119139,238.093638 51.6186641,239.857789 48.5670028,239.857789 C48.167936,239.857789 47.8317527,239.869919 47.5615976,239.892702 C47.9062193,240.032778 48.3937165,240.210657 48.9793382,240.387565 C51.9740236,241.292217 56.9932547,242.219864 62.2145922,242.765006 C63.7663166,242.927016 66.1844594,246.614008 67.0197671,249.875964 C67.2798175,250.891486 67.3607603,251.61451 67.4694086,253.305884 C67.5991903,255.32625 67.7832746,256.050665 68.4524026,256.618877 C69.270745,257.313798 70.7433318,256.881558 72.9257151,255.415592 C73.3987791,255.097822 73.8950681,254.7401 74.4872556,254.294872 C74.7796203,254.075062 76.025026,253.121805 76.3360807,252.889415 C77.0084696,252.387073 77.4960527,252.052377 77.9122127,251.819823 C78.1026689,251.713394 78.3289135,251.153681 78.5875863,250.028657 C78.6623678,249.703417 79.0269755,247.971553 79.1474182,247.445048 C79.4113286,246.291386 79.6817575,245.313417 80.0145827,244.373709 C80.1761697,243.91748 80.349776,243.479743 80.5376378,243.058608 C81.484152,240.936783 83.5799282,237.330285 86.8320994,232.221983 C86.9853609,231.981249 87.0667696,231.701791 87.0667696,231.416412 L87.0667596,227.322358 C87.0667596,225.994842 88.1043307,224.898812 89.4298652,224.826108 C92.8466125,224.638755 95.2921546,223.587766 96.8038008,221.688617 C104.25095,212.332429 110.91165,205.101113 117.883912,199.607269 C119.260531,198.522552 120.802559,197.524257 122.620266,196.505074 C123.998658,195.732213 129.197575,193.107493 130.259983,192.493266 C130.814676,192.172573 131.294008,191.870959 131.712497,191.57684 C131.977835,191.390357 131.993561,191.322673 131.885984,191.140412 C131.746444,190.903998 131.513957,190.68573 130.849706,190.13646 C130.074917,189.495787 129.75556,189.182637 129.540063,188.746247 C128.460687,186.560463 127.637487,184.158012 126.857796,181.124466 C126.828457,181.010317 126.372212,180.925181 125.375843,181.051035 C124.871758,181.114708 124.265344,181.225531 123.45937,181.39643 C123.140919,181.463955 122.806966,181.537288 122.332264,181.643303 C122.038154,181.709083 122.038154,181.709083 121.738107,181.776259 C121.497519,181.830072 121.310781,181.871651 121.127658,181.912103 C120.102807,182.138491 119.315773,182.300816 118.544939,182.439208 C115.569497,182.973407 113.384815,183.029263 111.763982,182.433621 C110.018439,181.792148 109.027346,179.284171 108.645104,174.939718 C108.639177,174.872345 108.628699,174.80545 108.613743,174.739492 C108.430554,173.931569 107.627099,173.425125 106.819178,173.608319 C104.414629,174.153531 102.416785,174.111156 100.829048,173.462904 C98.7927131,172.631494 96.0770735,170.237294 92.6342656,166.269162 Z" stroke-linejoin="square" fill="#E8C200" fill-rule="evenodd"></path>
                </g>
                <g id="V9">
                    <use fill="black" fill-opacity="1" filter="url(#filter-16)" xlink:href="#path-15"></use>
                    <path stroke="#000000" stroke-width="1" d="M33.9055184,138.592618 C35.8744383,139.739777 38.0074438,142.411738 39.7519947,145.607747 C40.1369246,146.312937 40.6195894,146.837618 41.620219,147.730719 C41.6600911,147.766307 41.935518,148.011339 42.0167421,148.084013 C42.9147771,148.887512 43.4355706,149.429345 43.9143987,150.131856 C44.6114724,151.154565 45.0260976,152.209708 45.768352,154.547362 C45.8352222,154.75809 45.8352222,154.75809 45.9021083,154.968501 C46.2007285,155.906525 46.3946549,156.479299 46.616923,157.053295 C46.8471006,157.647717 46.8197652,158.209008 46.6163922,159.616258 C46.6150806,159.625335 46.6150806,159.625335 46.6137698,159.634406 C46.4317852,160.893847 46.4160145,161.424679 46.5942477,161.767361 C46.6790467,161.930401 47.2524635,161.886812 48.6743855,161.52294 C48.6842787,161.520408 48.6842787,161.520408 48.6941778,161.517875 C50.7134395,161.001205 51.4177332,160.946759 51.8930356,161.741423 C52.3904983,162.573137 52.4783604,163.403809 52.408929,164.999563 C52.4048812,165.091513 52.4048812,165.091513 52.4007618,165.182923 C52.316908,167.04328 52.4275703,167.747472 53.0669552,168.339404 C53.812385,169.02951 55.06711,168.97723 58.4312961,168.332428 C58.6227439,168.295751 58.6227439,168.295751 58.8148514,168.259211 C61.7901713,167.695071 63.2867751,167.620161 64.543183,168.260886 C64.6253208,168.302774 64.6422994,168.320061 64.6325073,168.339442 C64.6339292,168.281332 64.6717685,168.113265 64.715219,167.821194 C64.9041257,166.551374 64.9726368,166.224472 65.2818604,165.542113 C65.6305253,164.772719 66.1594934,164.118096 66.9165679,163.58993 C67.9055247,162.899994 69.4697928,162.608118 72.7032567,162.304864 C72.8947028,162.286909 73.0765583,162.270138 73.4472908,162.236068 C75.7705698,162.022095 76.7895375,161.885754 77.5994329,161.628468 C84.3251713,159.491844 94.1322339,160.356224 98.3529309,162.797976 C99.2129076,163.295488 99.9141316,163.978209 101.142378,165.382862 C101.262853,165.520791 101.262853,165.520791 101.382953,165.65852 C102.706154,167.175573 103.347384,167.809808 104.145714,168.274088 C104.994001,168.76742 105.816348,168.708805 107.850435,168.193802 C107.958862,168.166353 107.958862,168.166353 108.067851,168.138904 C110.181578,167.607856 111.29748,167.562623 112.471394,168.279602 C113.74372,169.056688 114.172248,170.241667 114.740441,173.316529 C114.752755,173.383176 114.752755,173.383176 114.765062,173.449741 C115.276419,176.214117 115.690332,177.322039 116.678494,177.9171 C116.838462,178.013431 116.378145,178.220844 118.858846,176.941154 C119.906177,176.40088 120.816164,176.064259 121.819297,175.915482 C122.722387,175.781541 124.316921,175.865275 126.638014,176.159938 C126.715885,176.169824 126.794412,176.173582 126.872872,176.171177 C127.700901,176.145799 128.351583,175.453974 128.326217,174.625946 C128.292922,173.539623 128.355081,172.772552 128.530222,172.291955 C129.095567,170.740622 129.794875,169.237986 130.641373,167.689778 C131.207759,166.653884 133.783534,162.476613 134.030406,161.821711 C134.349041,160.976437 134.732061,160.104746 135.229522,159.063883 C135.4213,158.662616 136.323341,156.829275 136.532205,156.383294 C136.937636,155.517593 137.162245,154.935443 137.23544,154.535332 C137.318879,154.079224 136.83697,152.661293 135.824444,150.270476 C135.740893,150.073508 135.740893,150.073508 135.656993,149.876735 C133.934732,145.841495 133.902895,145.76097 134.008095,145.238205 C134.278581,143.894094 134.850729,143.081101 135.759946,142.473324 C135.880399,142.392806 136.003291,142.317411 136.154565,142.229512 C136.207085,142.198995 136.444469,142.063417 136.50529,142.027814 C137.056592,141.705091 137.214253,141.514415 137.227512,141.081198 C137.280232,139.358676 136.498348,137.933377 134.540252,135.57115 C132.630326,133.267036 132.325256,132.86044 131.91628,131.837495 C131.755366,131.435011 131.65833,131.042031 131.629678,130.652018 C131.552096,129.595975 130.483751,128.811305 128.062812,127.784498 C127.968905,127.744668 126.884499,127.292685 126.580589,127.160682 C124.905492,126.433104 124.109818,125.890844 123.917498,125.050214 C123.550234,123.444904 123.605237,121.969251 124.088903,120.633411 C124.152585,120.457526 124.182808,120.271282 124.178011,120.084285 C124.15677,119.256124 123.468194,118.60199 122.640033,118.623239 C118.120966,118.739149 115.173668,118.697772 113.765824,118.494888 C111.905986,118.226867 110.21793,117.689726 108.289476,116.848313 C107.762992,116.6186 106.022244,115.810179 105.670914,115.658459 C104.853928,115.305647 104.301865,115.135121 103.87084,115.114832 C102.066153,115.029882 100.589974,115.274846 98.6079077,115.854939 C95.6022692,116.7346 95.4899557,116.760509 94.4653938,116.609356 C92.7410936,116.354972 92.399817,114.602717 92.2907384,109.690122 C92.2877659,109.555472 92.2877659,109.555472 92.2848304,109.421025 C92.2140797,106.181346 92.090947,104.901253 91.653324,104.123911 C90.9406129,102.857934 89.9756977,102.132423 88.7863415,101.819815 C87.8413508,101.571435 86.8830198,101.59139 85.6722222,101.785575 C85.5539314,101.804546 85.0571753,101.889636 84.9438014,101.906755 C84.6577824,101.949943 84.4945518,101.960465 84.3335562,101.920768 C82.4779704,101.463239 80.7478317,100.209531 78.8470679,98.2210076 C78.4594585,97.815502 78.0837203,97.4009217 77.6167729,96.8696876 C77.4891316,96.7244733 76.9676678,96.1276572 77.0561556,96.2287854 C76.8599021,96.0044666 76.7206047,95.8467049 76.5891012,95.7004421 C75.9661261,95.0075478 75.5776328,94.667937 75.4579255,94.6526802 C74.8320027,94.5729055 73.6155342,94.6948981 71.5568687,95.0057052 C71.3917745,95.0306303 71.218878,95.0570569 71.0184622,95.0879442 C68.2003383,95.5222625 67.7260456,95.5861115 67.1724434,95.5526063 C66.9197816,95.5373147 66.650568,95.6002558 66.3421348,95.7453675 C65.9225101,95.9427926 65.8444983,95.9982087 64.6402372,96.9077228 C63.5035924,97.7661699 62.7510589,98.1955392 61.8166999,98.3853739 C61.1610812,98.5185766 60.4446106,98.5423738 59.6088243,98.481517 C59.1325133,98.4468349 58.6946695,98.3942907 57.9649857,98.2924124 C55.9674774,98.0135208 55.332023,97.9994858 54.9325466,98.2965887 C54.6123596,98.5347217 54.3628547,98.7857807 54.1695879,99.0535044 C53.8326515,99.5202469 53.731201,99.8314556 53.5354297,100.758585 C53.27065,102.012522 52.8122505,102.52177 51.4676308,102.531714 C49.1959628,102.548514 45.9926278,103.542788 40.224017,105.79961 C39.9334401,105.913291 39.6295704,106.032644 39.2724091,106.173297 C31.7303541,109.143417 29.5590918,109.884613 27.4675741,109.884615 C25.8823634,109.884618 24.5387245,109.52757 22.2399894,108.659309 C19.7471085,107.717716 19.0587486,107.507676 18.0288422,107.498673 C16.0460322,107.48134 13.9431189,107.648603 11.7201697,108.000886 C11.5917824,108.021232 11.4665844,108.05818 11.3477223,108.110802 C10.5902009,108.446168 10.2479811,109.332125 10.5833594,110.089641 C11.4183683,111.975751 11.7338594,113.299264 11.4902526,114.139266 C11.0897032,115.520435 10.1634396,116.791357 8.68764347,118.251234 C8.27357888,118.660833 6.95167536,119.887398 6.75808288,120.07752 C6.24332329,120.58305 5.99456974,120.913832 5.98352117,121.042708 C5.89871004,122.031988 6.21053879,122.816149 6.95085259,123.853582 C7.04403202,123.984158 7.35903568,124.411996 7.384583,124.44721 C7.55584028,124.683271 7.67594225,124.860797 7.77810751,125.035247 C8.06420049,125.523759 8.18091966,125.955374 8.08441656,126.404365 C8.07492083,126.448545 8.06332837,126.492395 8.04963686,126.535892 C7.43497292,128.488641 6.29632565,130.088501 4.47205116,131.905343 C4.06244222,132.313283 2.66478629,133.634342 2.409302,133.887244 C1.72260649,134.567 1.29373486,135.075919 1.03140437,135.549084 C0.851118754,135.874265 0.757913445,136.172294 0.746996169,136.45822 C0.70468407,137.566386 0.953028545,138.239373 1.68814291,139.424345 C1.7555085,139.53271 1.7555085,139.53271 1.82396522,139.642675 C2.05334192,140.011627 2.1876957,140.238455 2.3243036,140.497656 C2.78430272,141.370462 4.06816958,142.521557 6.16328838,143.905068 C6.85186298,144.359767 7.7784007,144.172921 8.23693713,143.486895 C9.01697315,142.319854 9.60353204,141.443756 9.99669397,140.858481 C10.1935355,140.565455 10.3419945,140.345187 10.4422286,140.197444 C10.5116805,140.095254 10.5116805,140.095254 10.558059,140.02783 C10.566269,139.998834 10.566269,139.998834 10.7836545,139.809604 C14.0170144,138.167702 17.9672592,137.869077 33.2552462,137.869077 C33.3701457,137.869077 33.4545265,137.875454 33.5358293,137.896709 C33.8141993,137.969482 34.0514243,138.236632 33.9055184,138.592618 Z M77.0701666,96.2448023 C77.0720191,96.2469205 77.0739855,96.2491689 77.076068,96.2515502 C77.0742422,96.2494625 77.0724213,96.2473804 77.0706053,96.245304 Z" stroke-linejoin="square" fill="#8CACF9" fill-rule="evenodd"></path>
                </g>
                <g id="V8">
                    <use fill="black" fill-opacity="1" filter="url(#filter-18)" xlink:href="#path-17"></use>
                    <path stroke="#000000" stroke-width="1" d="M178.66145,8.56092353 C178.633413,8.53817223 178.607331,8.51610135 178.583171,8.49468417 C178.489035,8.4112329 178.445069,8.35495729 178.44683,8.36101705 C178.479351,8.47293608 178.422908,8.60388235 178.35931,8.64458703 C178.4081,8.61335989 178.509474,8.58452597 178.66145,8.56092353 Z M215.442416,25.9080599 C215.471017,25.9905697 215.498099,26.0718819 215.523662,26.151995 L215.601499,25.6980113 C215.548358,25.7681364 215.49533,25.8381526 215.442416,25.9080599 Z M168.675892,101.757768 C168.688844,101.8115 168.69875,101.854051 168.704392,101.880843 C168.7323,102.013376 168.743647,102.100382 168.742113,102.126242 C168.751068,101.97529 168.896544,101.769333 169.175899,101.785531 C169.00265,101.775486 168.836284,101.766246 168.675892,101.757768 Z" stroke-linejoin="square" fill="#000000" fill-rule="evenodd"></path>
                </g>
                <g id="V5">
                    <use fill="black" fill-opacity="1" filter="url(#filter-20)" xlink:href="#path-19"></use>
                    <path stroke="#000000" stroke-width="1" d="M137.064508,89.5 C136.979408,89.5 136.894463,89.507242 136.810591,89.5216478 C135.994129,89.6618822 135.445934,90.4374402 135.586156,91.2539038 C136.318986,95.5205275 136.483302,98.4279357 136.060815,100.029605 C135.644881,101.606433 132.598542,104.099956 129.375958,104.507208 C126.056073,104.926758 121.715419,105.092888 115.864873,105.097607 C113.984709,105.099124 112.322793,105.087323 109.272897,105.056431 C100.195773,104.964492 96.6789951,105.06753 96.4524071,105.443279 C95.9194023,106.327154 95.579186,107.264086 95.6448787,108.19004 C95.7402954,109.534961 96.7313528,110.599202 99.0101997,111.272001 C99.3516073,111.372797 99.6097053,111.275549 101.182407,110.511441 C102.435573,109.902581 103.292125,109.621896 104.25971,109.628164 C105.423609,109.635705 106.706421,109.755357 108.123005,109.974684 C109.433267,110.17755 110.795298,110.453419 112.422298,110.829593 C112.836343,110.925323 113.251094,111.023556 113.779067,111.150329 C113.754948,111.144538 114.75726,111.385863 115.020643,111.448662 C115.95056,111.670384 116.544926,111.802431 117.034288,111.891366 C119.917573,112.415362 121.791816,112.545724 126.531918,112.713585 C129.497003,112.818586 129.773139,112.851559 129.812556,113.588686 C129.84903,114.270784 129.800283,114.985006 129.676735,115.861646 C129.630236,116.19158 129.584474,116.476232 129.491785,117.02761 C129.02691,119.792999 129.025464,120.863769 129.733261,121.959463 C129.972783,122.330252 130.699319,122.709242 132.097223,123.238296 C132.207903,123.280184 132.846232,123.518642 133.024012,123.586496 C133.374543,123.720284 133.642389,123.828828 133.877886,123.934912 C134.669943,124.291709 135.089999,124.604535 135.156748,125.100547 C135.464753,127.389361 135.997757,128.727376 137.095964,130.367044 C136.97714,130.189635 138.504824,132.381785 138.979551,133.148879 C139.757615,134.406125 140.761789,136.504166 140.761789,137.307692 C140.761789,137.519636 140.844546,137.712674 141.283785,138.576486 C141.560864,139.121392 141.715079,139.477764 141.817084,139.8672 C141.938327,140.330082 141.951314,140.761326 141.829631,141.171859 C141.62893,141.848987 141.183867,142.41834 140.337619,143.250942 C139.236042,144.334757 139.067194,144.528038 139.053442,144.751888 C139.026451,145.191267 139.058358,145.647219 139.146262,146.130317 C139.332658,147.154707 139.633055,147.944849 140.512624,149.934295 C142.01213,153.325936 142.426159,154.987796 141.832118,157.133412 C141.451008,158.509944 139.551518,160.951479 136.091366,164.569616 C135.983512,164.682395 135.893917,164.811313 135.825815,164.951719 C135.464284,165.697081 135.775439,166.594402 136.520793,166.955948 C137.488617,167.425382 137.847894,168.270692 137.541327,169.329423 C137.225127,170.421425 136.940026,170.979316 135.032047,174.470187 C134.838996,174.823398 134.679267,175.118322 134.528619,175.400526 C133.258101,177.780541 132.605146,179.354418 132.498611,180.530023 C132.382212,181.814474 132.959438,182.403004 134.661214,182.403004 C135.650954,182.403004 138.29839,180.824612 143.660445,177.206439 C143.802826,177.110346 143.802826,177.110346 143.945193,177.014203 C150.111655,172.849378 151.701104,171.841968 152.96687,171.515815 C158.827274,170.005752 168.981634,168.372116 183.442902,166.611024 C183.869723,166.559045 184.253717,166.326402 184.497407,165.972152 C186.297009,163.356052 187.108171,161.660034 186.946961,161.148316 C186.489278,159.695523 185.620643,158.299571 184.280149,156.670112 C183.858299,156.157327 182.472657,154.57186 182.262643,154.319292 C181.558471,153.472437 181.192241,152.90409 181.083252,152.37504 C180.789851,150.950832 180.84327,149.743749 181.146694,147.666338 C181.467533,145.469697 181.487065,144.824489 181.132383,144.16346 C180.985584,143.889867 180.500156,143.604649 179.555335,143.244192 C179.424879,143.194422 177.754391,142.596294 177.226111,142.383847 C176.129633,141.942898 175.277395,141.489053 174.572178,140.922162 C173.952113,140.42372 173.6887,139.822613 173.348564,138.54115 C173.333367,138.48383 173.333367,138.48383 173.3183,138.426896 C172.986404,137.173164 172.766901,136.72323 172.280432,136.488697 C171.907461,136.308884 171.399462,136.325628 170.549971,136.512911 C170.445156,136.536019 170.345529,136.558999 170.180218,136.597849 C168.663496,136.954301 168.109657,136.996233 167.486306,136.543669 C166.687779,135.963923 166.180816,135.060067 165.873314,133.895146 C165.760334,133.46714 165.678253,133.020448 165.612648,132.521496 C165.574481,132.231225 165.482955,131.36188 165.49416,131.460046 C165.4707,131.254509 165.449902,131.13395 165.438954,131.105957 C165.045344,130.099538 165.329416,128.947478 166.129634,127.486058 C166.351693,127.080516 166.600888,126.670821 166.948287,126.12876 C168.323953,123.98226 168.584,123.485112 168.454993,123.161273 C168.301824,122.776783 167.860178,122.387813 166.808665,121.651313 C166.187771,121.216427 166.026466,121.100375 165.764898,120.889836 C165.159114,120.402234 164.808366,119.976404 164.716209,119.482709 C164.700171,119.396795 164.690041,119.310091 164.685666,119.222682 C164.648301,118.476281 164.948414,117.86671 165.672775,116.847565 C166.399434,115.825187 166.550845,115.525529 166.457853,115.325439 C166.129225,114.618332 165.517123,114.048934 164.078952,112.986855 C163.979438,112.913414 163.979438,112.913414 163.879417,112.839653 C162.632342,111.919724 162.069467,111.448476 161.554381,110.805763 C161.163617,110.318176 160.788406,109.811053 160.426005,109.28338 C159.569204,108.03584 158.821282,106.73649 158.043682,105.207541 C157.759395,104.648565 156.699264,102.465227 156.462025,102.015759 C156.285923,101.682119 155.760367,101.518409 154.347104,101.342971 C153.313708,101.214689 153.089831,101.183739 152.603287,101.087611 C151.959124,100.960343 151.398911,100.7936 150.888354,100.562171 C149.189618,99.7921518 147.996268,98.2101641 146.863841,96.0302661 C145.742426,93.8715647 144.765108,91.9690562 143.931845,90.3226484 C143.676473,89.8180686 143.159018,89.5000047 142.593495,89.5000047 L137.064508,89.5 Z" stroke-linejoin="square" fill="#4F7401" fill-rule="evenodd"></path>
                </g>
                <text id="2" font-family="SFProDisplay-Bold, SF Pro Display" font-size="18" font-weight="bold" fill="#FFFFFF">
                    <tspan x="195" y="166">2</tspan>
                </text>
                <text id="8" font-family="SFProDisplay-Bold, SF Pro Display" font-size="18" font-weight="bold" fill="#FFFFFF">
                    <tspan x="159" y="63">8</tspan>
                </text>
                <text id="9" font-family="SFProDisplay-Bold, SF Pro Display" font-size="18" font-weight="bold" fill="#FFFFFF">
                    <tspan x="65" y="136">9</tspan>
                </text>
                <text id="5" font-family="SFProDisplay-Bold, SF Pro Display" font-size="18" font-weight="bold" fill="#FFFFFF">
                    <tspan x="153" y="157">5</tspan>
                </text>
                <text id="4" font-family="SFProDisplay-Bold, SF Pro Display" font-size="18" font-weight="bold" fill="#FFFFFF">
                    <tspan x="268" y="132">4</tspan>
                </text>
                <text id="7" font-family="SFProDisplay-Bold, SF Pro Display" font-size="18" font-weight="bold" fill="#FFFFFF">
                    <tspan x="260" y="76">7</tspan>
                </text>
                <text id="3" font-family="SFProDisplay-Bold, SF Pro Display" font-size="18" font-weight="bold" fill="#FFFFFF">
                    <tspan x="196" y="115">3</tspan>
                </text>
                <text id="10" font-family="SFProDisplay-Bold, SF Pro Display" font-size="18" font-weight="bold" fill="#FFFFFF">
                    <tspan x="62" y="205">10</tspan>
                </text>
                <text id="6" font-family="SFProDisplay-Bold, SF Pro Display" font-size="18" font-weight="bold" fill="#FFFFFF">
                    <tspan x="305" y="178">6</tspan>
                </text>
                <text id="1" font-family="SFProDisplay-Bold, SF Pro Display" font-size="18" font-weight="bold" fill="#FFFFFF">
                    <tspan x="102" y="247">1</tspan>
                </text>
            </g>
        </g>
    </g>
</svg>