<svg height="60" viewBox="0 0 60 60" width="60" xmlns="http://www.w3.org/2000/svg"><g id="Page-1" fill="none" fill-rule="evenodd"><g id="072---Edit-Folder" fill="rgb(0,0,0)" fill-rule="nonzero"><path id="Shape" d="m.5 50.864 15.161 8.817c.9293794.4635481 2.0324014.4134357 2.9159191-.132476.8835176-.5459117 1.4218349-1.509957 1.4230809-2.548524v-6h3.526l-2.339 6.237c-.2763078.7347275-.0972678 1.5631593.4577864 2.1182136.5550543.5550542 1.3834861.7340942 2.1182136.4577864l9.254-3.471c.1532601-.0642163.2915129-.159563.406-.28l25.405-25.4c.7501901-.7501514 1.1716458-1.7675983 1.1716458-2.8285s-.4214557-2.0783486-1.1716458-2.8285l-2.828-2.833c-1.5836906-1.5092067-4.0733094-1.5092067-5.657 0l-4.949 4.949-3.016 3.015-.984-1.72c-.259765-.4484109-.395736-.9577846-.394-1.476v-22.94c0-2.209139-1.790861-4-4-4h-36c-.55228475 0-1 .44771525-1 1v49c.00072257.3565418.19122471.6857295.5.864zm22.564 7.075 2.925-7.8 4.874 4.874zm9.6-3.948-2.12-2.121 8.485-8.485c.3789722-.3923789.3735524-1.0160848-.0121814-1.4018186s-1.0094397-.3911536-1.4018186-.0121814l-8.485 8.485-2.122-2.121 19.092-19.093 2.121 2.122-7.071 7.072c-.2599566.2510745-.3642126.6228779-.2726972.9725073.0915155.3496295.3645604.6226744.7141899.7141899.3496294.0915154.7214328-.0127406.9725073-.2726972l7.071-7.072 2.122 2.122zm19.091-30.4c.7915033-.7559402 2.0374967-.7559402 2.829 0l2.828 2.828c.375248.375096.5860729.8839266.5860729 1.4145s-.2108249 1.039404-.5860729 1.4145l-1.412 1.409-5.657-5.657zm-2.828 2.828 5.657 5.657-1.415 1.414-2.828-2.828-2.828-2.829zm-11.927-24.419c1.1045695 0 2 .8954305 2 2v22.94c-.0018922.8696325.2265146 1.7242605.662 2.477l1.25 2.186-16.025 16.025c-.1423145.1660534-.2479532.3602922-.31.57l-.3.8h-4.277v-3.422c-.0000766-.1881975.0529555-.3725967.153-.532l2.388-3.8c.2997719-.4776339.4588536-1.0300875.459-1.594v-24.1c.0041084-1.44351-.7738959-2.776029-2.033-3.482l-16.422-10.068zm-35 .786 17.963 11.014c.6380308.3505171 1.0352181 1.0200286 1.037 1.748v24.1c.000265.1885374-.0527745.3733089-.153.533l-2.388 3.8c-.3004071.4795623-.4594948 1.0341164-.459 1.6v11.419c.0029357.3473579-.1771262.6706335-.474.851-.2731695.1801496-.6195014.2080675-.918.074l-14.608-8.5z"/><path id="Shape" d="m5 8c-.55228475 0-1 .44771525-1 1v2c0 .5522847.44771525 1 1 1s1-.4477153 1-1v-2c0-.55228475-.44771525-1-1-1z"/><path id="Shape" d="m5 15c-.55228475 0-1 .4477153-1 1v18c0 .5522847.44771525 1 1 1s1-.4477153 1-1v-18c0-.5522847-.44771525-1-1-1z"/></g></g></svg>