<?xml version="1.0" encoding="UTF-8"?>
<svg width="348px" height="126px" viewBox="0 0 348 126" version="1.1" xmlns="http://www.w3.org/2000/svg" xmlns:xlink="http://www.w3.org/1999/xlink">
    <!-- Generator: Sketch 52.4 (67378) - http://www.bohemiancoding.com/sketch -->
    <title>Group 4</title>
    <desc>Created with Sketch.</desc>
    <g id="Page-2" stroke="none" stroke-width="1" fill="none" fill-rule="evenodd">
        <g id="Artboard" transform="translate(-26.000000, -136.000000)">
            <g id="Group-4" transform="translate(27.000000, 139.000000)">
                <g id="Group-5">
                    <g id="Group-3">
                        <text id="Le-quotazioni" font-family="HelveticaNeue-Medium, Helvetica Neue" font-size="20" font-weight="400" letter-spacing="-1.5" fill="#233B63">
                            <tspan x="0" y="115">Le quotazioni</tspan>
                        </text>
                        <text id="sempre-in-tasca" font-family="HelveticaNeue-Medium, Helvetica Neue" font-size="20" font-weight="400" letter-spacing="-1.5" fill="#233B63">
                            <tspan x="192" y="115"> sempre in tasca</tspan>
                        </text>
                        <path d="M1.60683761,95 L346,95" id="Line-2" stroke="#233B63" stroke-width="2" stroke-linecap="square"></path>
                        <path d="M1.60683761,95 L346,95" id="Line-2" stroke="#A48B17" stroke-width="2" stroke-linecap="square"></path>
                        <path d="M0.606837607,122 L345,122" id="Line-2" stroke="#233B63" stroke-width="2" stroke-linecap="square"></path>
                        <g id="Group-2">
                            <g id="F" transform="translate(0.000000, 6.000000)" fill="#FFFFFF" stroke="#233B63" stroke-width="6">
                                <rect id="Rectangle" x="3" y="3" width="94.1446417" height="17.7948718"></rect>
                                <path d="M3,38.6923077 L3,80.154016 L28.9380814,80.154016 L28.9380814,56.4871795 L97.1446417,56.4871795 L97.1446417,38.6923077 L3,38.6923077 Z" id="Rectangle"></path>
                            </g>
                            <g id="i-1" transform="translate(109.000000, 0.000000)" fill="#FFFFFF" stroke="#233B63" stroke-width="6">
                                <rect id="Rectangle" x="3" y="42.5970132" width="25.4740302" height="40.9297934"></rect>
                                <ellipse id="Oval" cx="15.0216963" cy="15.3988384" rx="15.0216963" ry="15.3988384"></ellipse>
                            </g>
                            <path d="M226,57.4741006 L269.15161,57.4741006 C271.087504,56.1168745 272.055451,54.7022968 272.055451,53.2303674 C272.055451,51.9776191 271.087504,50.803959 269.15161,49.7093874 L226.576165,49.7093874 L226.576165,35.329676 C255.449121,35.082815 270.020186,34.9745909 270.28936,35.0050038 C275.843511,35.6325435 280.022831,38.4457952 283.137745,43.6929439 C285.668898,47.9567313 285.886641,52.0493238 285.974076,53.2303674 C286.145968,55.5522492 285.546795,60.1195383 281.619487,65.7234601 C280.127552,67.852321 276.350843,69.8700443 270.28936,71.77663 L245.061159,72.2370503 L245.061159,87 L226,87 L226,57.4741006 Z" id="P" fill="#A48B17"></path>
                            <path d="M286,57.4741006 L329.15161,57.4741006 C331.087504,56.1168745 332.055451,54.7022968 332.055451,53.2303674 C332.055451,51.9776191 331.087504,50.803959 329.15161,49.7093874 L286.576165,49.7093874 L286.576165,35.329676 C315.449121,35.082815 330.020186,34.9745909 330.28936,35.0050038 C335.843511,35.6325435 340.022831,38.4457952 343.137745,43.6929439 C345.668898,47.9567313 345.886641,52.0493238 345.974076,53.2303674 C346.145968,55.5522492 345.546795,60.1195383 341.619487,65.7234601 C340.127552,67.852321 336.350843,69.8700443 330.28936,71.77663 L305.061159,72.2370503 L305.061159,87 L286,87 L286,57.4741006 Z" id="P" fill="#A48B17"></path>
                            <g id="Group" transform="translate(146.000000, 35.000000)" fill="#A48B17">
                                <polygon id="Rectangle" points="28.36355 23.0226244 71.3064713 23.0226244 71.3064713 52.106158 52.7985419 52.106158 52.7985419 37.6036199 33.0264423 37.6036199 19.4001471 52.1846154 0 52.1846154"></polygon>
                                <path d="M56.1814017,0.330284301 C59.5113047,-0.745881914 64.7416804,1.01672329 66.9094768,2.61840962 C68.5238168,3.8111722 69.9495951,6.68896892 71.1868118,11.2517998 L71.3064713,15.3484163 L35.6532357,15.3484163 C41.7471744,7.78976965 48.5898964,2.78372565 56.1814017,0.330284301 Z" id="Rectangle"></path>
                            </g>
                        </g>
                    </g>
                    <g id="Group-2" transform="translate(114.000000, 100.000000)" fill="#233B63">
                        <g id="F" transform="translate(0.000000, 1.000000)">
                            <rect id="Rectangle" x="0" y="0" width="19" height="4.57142857"></rect>
                            <polygon id="Rectangle" points="-2.84217094e-14 6.85714286 19 6.85714286 19 11.4285714 6.05947095 11.4285714 6.05947095 15.9754021 -2.84217094e-14 15.9754021"></polygon>
                        </g>
                        <g id="i-1" transform="translate(20.000000, 0.000000)">
                            <rect id="Rectangle" x="0" y="7.3220339" width="7" height="8.6779661"></rect>
                            <ellipse id="Oval" cx="3.34090909" cy="2.84745763" rx="3.34090909" ry="2.84745763"></ellipse>
                        </g>
                        <g id="i-2" transform="translate(52.000000, 0.000000)">
                            <rect id="Rectangle" x="0" y="7.3220339" width="7" height="8.6779661"></rect>
                            <ellipse id="Oval" cx="3.34090909" cy="2.84745763" rx="3.34090909" ry="2.84745763"></ellipse>
                        </g>
                        <path d="M60,7.91510787 L73.6646766,7.91510787 C74.2777097,7.49749986 74.5842263,7.06224517 74.5842263,6.60934382 C74.5842263,6.22388278 74.2777097,5.86275663 73.6646766,5.52596535 L60.1824522,5.52596535 L60.1824522,1.10143877 C69.3255548,1.02548153 73.9397254,0.992181812 74.0249641,1.00153962 C75.7837786,1.19462878 77.1072298,2.06024468 78.0936193,3.67475197 C78.8951509,4.98668657 78.964103,6.24594578 78.9917906,6.60934382 C79.0462233,7.32376898 78.856485,8.7290887 77.6128377,10.4533723 C77.1403914,11.1084064 75.9444335,11.7292444 74.0249641,12.3158861 L66.0360335,12.4575539 L66.0360335,17 L60,17 L60,7.91510787 Z" id="P"></path>
                        <g id="Group" transform="translate(27.000000, 1.000000)">
                            <polygon id="Rectangle" points="9.13315991 6.89655172 22.9609272 6.89655172 22.9609272 15.7003882 17.0013107 15.7003882 17.0013107 11.3103448 10.6346272 11.3103448 6.24691358 15.7241379 -2.13162821e-14 15.7241379"></polygon>
                            <path d="M18.0611583,0.275862069 C19.1484831,-0.04042061 20.856376,0.477604847 21.564234,0.948336633 C22.0913701,1.29888671 22.5569345,2.14466428 22.9609272,3.48566937 L23,4.68965517 L11.3580247,4.68965517 C13.3478997,2.46818699 15.5822776,0.996922619 18.0611583,0.275862069 Z" id="Rectangle"></path>
                        </g>
                    </g>
                </g>
            </g>
        </g>
    </g>
</svg>