<?xml version="1.0" encoding="UTF-8"?>
<svg width="133px" height="110px" viewBox="0 0 133 110" version="1.1" xmlns="http://www.w3.org/2000/svg" xmlns:xlink="http://www.w3.org/1999/xlink">
    <!-- Generator: Sketch 52.6 (67491) - http://www.bohemiancoding.com/sketch -->
    <title>V1</title>
    <desc>Created with Sketch.</desc>
    <defs>
        <path d="M92.6046751,229 C103.846799,218.470777 111.399375,211.470777 115.262403,208 C121.478108,202.415437 130.909578,198.504403 133.978492,196 C136.921308,193.598499 133.529201,189.702797 135.958593,188.348508 C143.458997,184.167332 149.708393,176.410072 158.677169,176.410072 C167.869961,176.410072 175.143585,172.520263 180.266467,172.463154 C197.344855,172.272765 194.720577,176.025233 195.419403,179 C196.009254,181.510881 196.12842,184.389844 195.776903,187.636891 L195.776897,187.63689 C195.658014,188.73504 194.671414,189.528893 193.573264,189.41001 C193.405554,189.391854 193.240815,189.352553 193.082971,189.293044 L187.000876,187 C172.910931,185.642089 163.469695,185.642089 158.677169,187 C150.894849,189.205036 148.27417,190.609867 145.154723,196 C141.682325,202 144.899533,204.398189 140.285941,208 C138.869748,209.105616 135.997913,211.105616 131.670435,214 C126.612238,219.333333 122.874795,225.666667 120.458108,233 C118.057647,240.284098 117.351325,246.342642 118.339144,251.175631 L118.339139,251.175632 C118.352897,251.242946 118.363178,251.310924 118.36994,251.379297 C118.690283,254.618419 118.686772,256.491987 118.359407,257 C113.718148,264.20241 91.5566131,273.373013 88.8620763,274 C85.0880973,274.878161 85.9852011,267.901072 83.0063375,266.423307 C80.54568,265.202615 77.319118,268.924776 74.9332971,268.5 C72.0642397,267.989188 70.2949661,263.346654 70.9947506,261.669 C72.5972448,257.8272 78.6455695,256.414432 83.0063375,250 C85.265544,246.676841 88.4649899,239.676841 92.6046751,229 Z" id="path-1"></path>
        <filter x="-6.4%" y="-3.9%" width="112.8%" height="115.7%" filterUnits="objectBoundingBox" id="filter-2">
            <feOffset dx="0" dy="4" in="SourceAlpha" result="shadowOffsetOuter1"></feOffset>
            <feGaussianBlur stdDeviation="2" in="shadowOffsetOuter1" result="shadowBlurOuter1"></feGaussianBlur>
            <feComposite in="shadowBlurOuter1" in2="SourceAlpha" operator="out" result="shadowBlurOuter1"></feComposite>
            <feColorMatrix values="0 0 0 0 0   0 0 0 0 0   0 0 0 0 0  0 0 0 1 0" type="matrix" in="shadowBlurOuter1"></feColorMatrix>
        </filter>
    </defs>
    <g id="Page-1" stroke="none" stroke-width="1" fill="none" fill-rule="evenodd">
        <g id="Municipalità" transform="translate(-67.000000, -274.000000)">
            <g id="Group" transform="translate(0.000000, 102.000000)">
                <g id="V1">
                    <use fill="black" fill-opacity="1" filter="url(#filter-2)" xlink:href="#path-1"></use>
                    <path stroke="#000000" stroke-width="1" d="M93.029631,229.287047 C88.8964729,239.938761 85.6996194,246.927677 83.4198321,250.281109 C82.2941529,251.936916 81.0033489,253.356523 79.4806993,254.689683 C78.1818085,255.826931 74.0813686,258.81752 74.0874078,258.812743 C72.6997777,259.910176 71.8918547,260.817088 71.4562147,261.861486 C70.7529575,263.547466 72.772713,267.607463 75.0209397,268.007741 C75.7681151,268.14077 76.497571,267.870757 78.3402133,266.911607 C78.5984447,266.77719 78.7498424,266.699082 78.9138735,266.616291 C80.8185155,265.654965 82.0297496,265.380694 83.2285398,265.975394 C84.4307141,266.571773 85.0257496,267.654776 85.7861883,269.957181 C85.8222646,270.06641 85.8635972,270.192497 85.9398219,270.425128 C86.8162876,273.094456 87.3826586,273.830886 88.7487593,273.51301 C90.465219,273.11361 97.1251203,270.321094 102.654761,267.519754 C110.355967,263.61829 115.945163,259.823419 117.939113,256.729161 C118.173388,256.365609 118.17687,254.507459 117.872367,251.428506 C117.867296,251.377229 117.859585,251.326234 117.849271,251.275756 C116.841652,246.345889 117.557744,240.203541 119.98323,232.843505 C122.422707,225.441017 126.198051,219.043457 131.307648,213.655928 L131.392461,213.584392 C135.709902,210.69672 138.574817,208.701539 139.978255,207.605882 C141.015463,206.796138 141.664493,206.03538 142.057187,205.226258 C142.416721,204.485457 142.547234,203.845301 142.697953,202.41667 C143.001187,199.542362 143.368559,198.088128 144.72197,195.749551 C147.784721,190.457384 150.250991,188.867783 158.540865,186.518937 C163.412723,185.138549 172.898231,185.138549 187.048841,186.502306 L187.177264,186.532146 L193.259359,188.82519 C193.377742,188.869822 193.501296,188.899298 193.627079,188.912915 C194.45069,189.002077 195.190641,188.406687 195.279808,187.583077 C195.625554,184.389339 195.50871,181.566509 194.932654,179.114346 C194.840369,178.721507 194.805666,178.408131 194.756513,177.712892 C194.749813,177.618097 194.749813,177.618097 194.742992,177.524302 C194.487794,174.064008 191.982517,172.832575 180.272041,172.963123 C178.30689,172.98503 178.384701,172.966337 171.20927,174.918754 C166.225837,176.274734 162.675548,176.910072 158.677169,176.910072 C153.70761,176.910072 150.318042,178.692557 143.108892,184.079016 C143.104072,184.082617 143.104072,184.082617 143.099252,184.086219 C139.727816,186.605253 138.198076,187.672529 136.20205,188.785233 C135.484151,189.185433 135.406964,189.718962 135.634611,191.53729 C135.714432,192.174851 135.747824,192.513305 135.758771,192.909005 C135.799147,194.368435 135.395845,195.488719 134.294617,196.387382 C133.003101,197.44133 123.886613,202.509344 122.509923,203.356818 C119.748504,205.056714 117.473295,206.685768 115.596569,208.371932 C111.746481,211.831083 104.223339,218.803533 93.029631,229.287047 Z" stroke-linejoin="square" fill="#FF0000" fill-rule="evenodd"></path>
                </g>
            </g>
        </g>
    </g>
</svg>