<?xml version="1.0" encoding="UTF-8"?>
<svg width="105px" height="100px" viewBox="0 0 105 100" version="1.1" xmlns="http://www.w3.org/2000/svg" xmlns:xlink="http://www.w3.org/1999/xlink">
    <!-- Generator: Sketch 52.6 (67491) - http://www.bohemiancoding.com/sketch -->
    <title>V10</title>
    <desc>Created with Sketch.</desc>
    <defs>
        <path d="M93.0037894,165.932105 C96.4021105,169.850114 99.0735293,172.206079 101.018046,173 C102.499328,173.604789 104.396184,173.645021 106.708614,173.120697 L106.708612,173.120691 C107.785841,172.876438 108.857113,173.551699 109.101366,174.628927 C109.121307,174.716872 109.135277,174.806065 109.14318,174.895895 C109.509415,179.058422 110.440506,181.41456 111.936451,181.964308 C116.666735,183.702648 126.825037,178.988433 127.342056,181 C128.01191,183.606202 128.815566,186.149861 129.98838,188.524861 C130.581678,189.726317 133.563378,190.887151 132,191.985914 C128.728049,194.285484 122.859519,196.323271 118.193367,200 C109.919708,206.51929 102.284337,215.606044 97.1950051,222 C95.585328,224.02231 93.0060733,225.130762 89.4572409,225.325358 L89.4572418,225.325374 C88.3968199,225.383521 87.5667596,226.260343 87.5667596,227.322358 L87.5667696,231.416411 C87.5667696,231.796917 87.4582249,232.169527 87.2538766,232.490505 C84.0143504,237.578945 81.9278132,241.169544 80.9942652,243.262303 C79.2247002,247.229181 79.2388331,251.651264 78.1561191,252.256297 C75.6967972,253.630592 70.4922158,259.007005 68.1287594,257 C66.5449655,255.65507 67.3056937,253.008086 66.5353962,250 C65.7328298,246.865901 63.408439,243.392369 62.1626712,243.262303 C50.8263784,242.078719 42.4897264,239.357789 48.5670028,239.357789 C54.2505785,239.357789 55.0209619,232.599927 55.2385024,231 C55.712214,227.516033 41.7072494,220.820099 44.4026011,215.397525 C45.3911032,213.408832 43.652268,215.008636 40.475399,207 C39.3088355,204.059186 42.998151,195.542537 40.475399,191.985914 C36.2295242,186 33.753276,179.08192 36.2295242,176.410072 C38.7878394,173.649674 46.9385753,163.243699 46.9385753,171.066963 C46.9385753,173.968889 59.1191907,175.331494 69.5849593,173 C75.3552004,171.714545 55.2385024,168.137031 83.622119,165.932105 C89.4552084,165.478973 92.5824318,165.478973 93.0037894,165.932105 Z" id="path-1"></path>
        <filter x="-8.2%" y="-4.4%" width="116.4%" height="117.4%" filterUnits="objectBoundingBox" id="filter-2">
            <feOffset dx="0" dy="4" in="SourceAlpha" result="shadowOffsetOuter1"></feOffset>
            <feGaussianBlur stdDeviation="2" in="shadowOffsetOuter1" result="shadowBlurOuter1"></feGaussianBlur>
            <feComposite in="shadowBlurOuter1" in2="SourceAlpha" operator="out" result="shadowBlurOuter1"></feComposite>
            <feColorMatrix values="0 0 0 0 0   0 0 0 0 0   0 0 0 0 0  0 0 0 1 0" type="matrix" in="shadowBlurOuter1"></feColorMatrix>
        </filter>
    </defs>
    <g id="Page-1" stroke="none" stroke-width="1" fill="none" fill-rule="evenodd">
        <g id="Municipalità" transform="translate(-31.000000, -267.000000)">
            <g id="Group" transform="translate(0.000000, 102.000000)">
                <g id="V10">
                    <use fill="black" fill-opacity="1" filter="url(#filter-2)" xlink:href="#path-1"></use>
                    <path stroke="#000000" stroke-width="1" d="M92.6342656,166.269162 C92.3614921,166.005817 89.1056338,166.007635 83.6608439,166.430603 C74.1844337,167.166759 69.5415038,168.104447 68.6011087,169.132285 C68.4491597,169.298363 68.4498863,169.41054 68.6028775,169.634786 C68.7762217,169.888865 69.0810606,170.159815 69.6396604,170.580157 C70.7954061,171.449848 70.8916175,171.530123 71.08483,171.91646 C71.4756592,172.697942 70.9000587,173.219288 69.6936808,173.488037 C59.229792,175.819111 46.4385753,174.608692 46.4385753,171.066963 C46.4385753,169.16542 46.023146,168.578791 45.2431947,168.732127 C44.3944444,168.898989 43.1267767,169.814885 41.5531911,171.344262 C41.0554715,171.827999 40.5326803,172.366924 39.973928,172.968357 C39.1279316,173.878975 36.8099619,176.519349 36.5962462,176.749947 C34.5045075,179.006912 36.4136324,185.395327 40.8832231,191.69664 C42.0138504,193.29062 42.1052623,195.584649 41.5574165,199.280912 C41.4884933,199.74593 41.4156104,200.200482 41.3026033,200.881123 C40.6736463,204.669331 40.5670877,205.875131 40.9401674,206.815635 C41.9318345,209.31555 42.8357353,211.028728 43.7188205,212.273723 C43.9894515,212.655265 44.9801244,213.830978 45.0950698,214.122492 C45.2676072,214.560067 45.1837766,214.949262 44.8503397,215.620079 C44.2423381,216.843271 44.5904429,218.241459 45.8336842,219.923957 C46.7362126,221.145363 47.9675514,222.36754 49.9843292,224.142313 C55.4282335,228.93297 55.9505717,229.474149 55.7339436,231.067365 C55.6955047,231.356525 55.6697734,231.544828 55.6373484,231.760022 C55.5872745,232.092346 55.5316773,232.413874 55.4654671,232.741815 C55.2918657,233.601668 55.0622358,234.420186 54.7566535,235.194181 C53.6119139,238.093638 51.6186641,239.857789 48.5670028,239.857789 C48.167936,239.857789 47.8317527,239.869919 47.5615976,239.892702 C47.9062193,240.032778 48.3937165,240.210657 48.9793382,240.387565 C51.9740236,241.292217 56.9932547,242.219864 62.2145922,242.765006 C63.7663166,242.927016 66.1844594,246.614008 67.0197671,249.875964 C67.2798175,250.891486 67.3607603,251.61451 67.4694086,253.305884 C67.5991903,255.32625 67.7832746,256.050665 68.4524026,256.618877 C69.270745,257.313798 70.7433318,256.881558 72.9257151,255.415592 C73.3987791,255.097822 73.8950681,254.7401 74.4872556,254.294872 C74.7796203,254.075062 76.025026,253.121805 76.3360807,252.889415 C77.0084696,252.387073 77.4960527,252.052377 77.9122127,251.819823 C78.1026689,251.713394 78.3289135,251.153681 78.5875863,250.028657 C78.6623678,249.703417 79.0269755,247.971553 79.1474182,247.445048 C79.4113286,246.291386 79.6817575,245.313417 80.0145827,244.373709 C80.1761697,243.91748 80.349776,243.479743 80.5376378,243.058608 C81.484152,240.936783 83.5799282,237.330285 86.8320994,232.221983 C86.9853609,231.981249 87.0667696,231.701791 87.0667696,231.416412 L87.0667596,227.322358 C87.0667596,225.994842 88.1043307,224.898812 89.4298652,224.826108 C92.8466125,224.638755 95.2921546,223.587766 96.8038008,221.688617 C104.25095,212.332429 110.91165,205.101113 117.883912,199.607269 C119.260531,198.522552 120.802559,197.524257 122.620266,196.505074 C123.998658,195.732213 129.197575,193.107493 130.259983,192.493266 C130.814676,192.172573 131.294008,191.870959 131.712497,191.57684 C131.977835,191.390357 131.993561,191.322673 131.885984,191.140412 C131.746444,190.903998 131.513957,190.68573 130.849706,190.13646 C130.074917,189.495787 129.75556,189.182637 129.540063,188.746247 C128.460687,186.560463 127.637487,184.158012 126.857796,181.124466 C126.828457,181.010317 126.372212,180.925181 125.375843,181.051035 C124.871758,181.114708 124.265344,181.225531 123.45937,181.39643 C123.140919,181.463955 122.806966,181.537288 122.332264,181.643303 C122.038154,181.709083 122.038154,181.709083 121.738107,181.776259 C121.497519,181.830072 121.310781,181.871651 121.127658,181.912103 C120.102807,182.138491 119.315773,182.300816 118.544939,182.439208 C115.569497,182.973407 113.384815,183.029263 111.763982,182.433621 C110.018439,181.792148 109.027346,179.284171 108.645104,174.939718 C108.639177,174.872345 108.628699,174.80545 108.613743,174.739492 C108.430554,173.931569 107.627099,173.425125 106.819178,173.608319 C104.414629,174.153531 102.416785,174.111156 100.829048,173.462904 C98.7927131,172.631494 96.0770735,170.237294 92.6342656,166.269162 Z" stroke-linejoin="square" fill="#E8C200" fill-rule="evenodd"></path>
                </g>
            </g>
        </g>
    </g>
</svg>