<?xml version="1.0" encoding="UTF-8"?>
<svg width="69px" height="47px" viewBox="0 0 69 47" version="1.1" xmlns="http://www.w3.org/2000/svg" xmlns:xlink="http://www.w3.org/1999/xlink">
    <!-- Generator: Sketch 52.6 (67491) - http://www.bohemiancoding.com/sketch -->
    <title>V2</title>
    <desc>Created with Sketch.</desc>
    <defs>
        <path d="M179.275968,137.038308 C179.275968,137.038308 179.275968,137.038308 179.275968,137.038308 C182.173369,137.038308 186.321697,139.195776 190.640168,139.244339 C192.274756,139.262721 193.536892,141.931526 196.186751,141.895345 C197.334446,141.879674 197.04604,149.207856 199.094079,149.070806 C200.900059,148.949955 208.787292,149.435031 213.967659,148.050769 C215.300945,147.694498 219.5915,148.281909 223.358343,146.547692 C224.467072,146.037244 226.247028,144.631071 228.698209,142.329174 L228.698199,142.329163 C229.503387,141.573013 230.769102,141.612766 231.525252,142.417955 C231.590638,142.487581 231.650953,142.561802 231.705732,142.640048 C233.889512,145.759308 235.407811,148.023267 236.260628,149.431923 C237.278668,151.11349 238.585213,153.619188 240.180263,156.949015 C238.654951,156.611523 236.994679,156.611523 235.199446,156.949015 C234.371719,157.104623 233.830945,158.375048 232.783091,158.556923 C231.583525,158.765131 230.393094,154.362988 228.791624,154.625308 C226.166365,155.055323 220.562069,157.367749 211.978737,161.562587 L211.978741,161.562593 C211.425776,161.832837 211.028034,162.342628 210.900398,162.944716 C210.08973,166.768815 208.997862,169.400038 207.624794,170.838386 C206.696484,171.81083 204.379715,171.253369 202.386483,172.463154 C201.948012,172.729283 201.004112,173.836739 199.554784,175.785523 L199.55479,175.785527 C199.334321,176.081972 199.20027,176.433691 199.167506,176.801676 C199.124822,177.281056 197.604472,174.791213 194.606456,169.332145 C194.171049,168.539314 189.135918,170.310741 189.353124,169.332145 C190.048418,166.199573 192.01634,162.324651 190.640168,157.913385 C190.200823,156.50508 187.143212,156.614783 185.5,153.931077 C184.8228,152.825068 185.825601,150.754879 184.221239,147.289231 C183.961149,146.727401 186.446406,143.451808 185.5,142.029769 C185.13479,141.481016 182.957222,140.285482 178.967298,138.443168 L178.967274,138.44322 C178.598048,138.272733 178.436938,137.83521 178.607425,137.465984 C178.727813,137.205259 178.98879,137.038308 179.275968,137.038308 Z" id="path-1"></path>
        <filter x="-13.0%" y="-10.0%" width="126.0%" height="140.2%" filterUnits="objectBoundingBox" id="filter-2">
            <feOffset dx="0" dy="4" in="SourceAlpha" result="shadowOffsetOuter1"></feOffset>
            <feGaussianBlur stdDeviation="2" in="shadowOffsetOuter1" result="shadowBlurOuter1"></feGaussianBlur>
            <feComposite in="shadowBlurOuter1" in2="SourceAlpha" operator="out" result="shadowBlurOuter1"></feComposite>
            <feColorMatrix values="0 0 0 0 0   0 0 0 0 0   0 0 0 0 0  0 0 0 1 0" type="matrix" in="shadowBlurOuter1"></feColorMatrix>
        </filter>
    </defs>
    <g id="Page-1" stroke="none" stroke-width="1" fill="none" fill-rule="evenodd">
        <g id="Municipalità" transform="translate(-175.000000, -239.000000)">
            <g id="Group" transform="translate(0.000000, 102.000000)">
                <g id="V2">
                    <use fill="black" fill-opacity="1" filter="url(#filter-2)" xlink:href="#path-1"></use>
                    <path stroke="#000000" stroke-width="1" d="M189.844533,169.42571 C189.843433,169.43064 189.842337,169.435566 189.841245,169.440486 C189.844521,169.425725 189.846348,169.41083 189.846889,169.395955 Z M189.688181,169.117857 C189.686253,169.117051 189.684328,169.116298 189.682407,169.115598 C189.688015,169.117641 189.695068,169.119586 189.703513,169.121404 Z M189.912287,169.13558 C189.952214,169.135491 189.996476,169.134393 190.044677,169.13207 C190.409657,169.114485 190.774724,169.059852 191.7853,168.885785 C191.845972,168.875338 191.845972,168.875338 191.906792,168.864892 C194.080835,168.491868 194.696466,168.457335 195.044716,169.091461 C196.540324,171.814804 197.666699,173.796374 198.421965,175.033256 C198.618293,175.354779 198.788937,175.624907 198.932916,175.842486 C198.996161,175.718578 199.069887,175.599674 199.153576,175.487141 C200.652394,173.471811 201.60775,172.350913 202.127055,172.035723 C202.517833,171.798542 202.934883,171.613394 203.386803,171.468299 C204.002658,171.270571 204.37706,171.202935 205.536454,171.038234 C206.583609,170.889477 207.004081,170.764499 207.263128,170.493135 C208.558353,169.136332 209.618126,166.582453 210.411267,162.841026 C210.570812,162.088419 211.067987,161.45118 211.759194,161.113364 C220.390023,156.895314 226.018622,154.57286 228.710802,154.131883 C229.69604,153.970502 230.318886,154.626538 231.374124,156.325216 C232.206709,157.665476 232.519029,158.064286 232.698711,158.064092 C233.006633,158.010318 233.266731,157.8302 233.712141,157.397396 C233.870047,157.242766 233.953711,157.161404 234.036433,157.084442 C234.418702,156.728793 234.726359,156.529194 235.107067,156.457623 C236.591374,156.178583 237.992126,156.122326 239.307845,156.290481 C237.909345,153.407073 236.750295,151.206185 235.832906,149.690871 C234.98728,148.294092 233.474,146.037617 231.296135,142.926805 C231.25505,142.868121 231.209814,142.812455 231.160774,142.760235 C230.59366,142.156342 229.644375,142.126529 229.040489,142.693652 C226.551206,145.031331 224.740473,146.461819 223.567442,147.00187 C222.99784,147.264109 222.399784,147.483484 221.773083,147.664302 C219.973838,148.183424 218.600797,148.314128 215.79577,148.399287 C214.792298,148.429751 214.373883,148.459764 214.096737,148.533821 C212.584908,148.937801 210.779562,149.207464 208.705916,149.368667 C206.484167,149.541383 204.536124,149.575026 201.381444,149.554664 C199.87674,149.544951 199.479112,149.546159 199.127463,149.569691 C197.829179,149.656568 197.31076,148.402282 196.802629,145.572378 C196.754167,145.30248 196.600869,144.408731 196.588728,144.339448 C196.451249,143.554962 196.350422,143.083417 196.237046,142.738618 C196.185218,142.581 196.134446,142.465191 196.090479,142.395672 C194.864612,142.387638 193.931296,141.92987 192.698322,140.963508 C192.636764,140.915261 192.142976,140.521731 192.005941,140.416431 C191.764255,140.230714 191.572428,140.097283 191.394028,139.994051 C191.105327,139.826994 190.862219,139.746868 190.634546,139.744308 C188.769696,139.723337 187.066994,139.384131 184.356305,138.623129 C180.991447,137.678474 180.398605,137.538308 179.275968,137.538308 C179.183786,137.538308 179.100013,137.591898 179.06137,137.675589 C179.006648,137.7941 179.058354,137.934505 179.176903,137.989224 C183.309079,139.897221 185.471447,141.08441 185.916244,141.752748 C186.375999,142.443562 186.287828,143.356012 185.837265,144.548379 C185.721961,144.853519 185.586163,145.168809 185.412701,145.543149 C185.42912,145.507716 184.940703,146.537554 184.846997,146.758203 C184.748168,146.990918 184.708494,147.151581 184.674977,147.07918 C185.507242,148.876989 185.699795,150.109043 185.71982,152.155826 C185.729005,153.094563 185.767657,153.410698 185.926417,153.669985 C186.396404,154.437573 187.013436,154.999884 187.829921,155.478709 C188.096972,155.63532 188.375263,155.778342 188.731023,155.946485 C188.769832,155.964828 189.421023,156.26629 189.598401,156.353214 C190.468787,156.779743 190.926688,157.152902 191.11748,157.764479 C191.990355,160.562444 191.731946,162.906274 190.600866,166.718903 C190.550928,166.887232 190.365039,167.508642 190.385859,167.4389 C190.301174,167.722571 190.239619,167.931443 190.181588,168.133273 C190.072906,168.511264 189.985107,168.836449 189.912287,169.13558 Z" stroke-linejoin="square" fill="#00B9FF" fill-rule="evenodd"></path>
                </g>
            </g>
        </g>
    </g>
</svg>