<?xml version="1.0" encoding="UTF-8"?>
<svg width="95px" height="83px" viewBox="0 0 95 83" version="1.1" xmlns="http://www.w3.org/2000/svg" xmlns:xlink="http://www.w3.org/1999/xlink">
    <!-- Generator: Sketch 52.6 (67491) - http://www.bohemiancoding.com/sketch -->
    <title>V3</title>
    <desc>Created with Sketch.</desc>
    <defs>
        <path d="M195.715988,88.9448754 C197.465975,86.3873937 198.483579,84.3951372 198.768801,82.9681056 C199.921648,77.2001445 198.801694,71.7677659 200.005127,70 C202.103985,66.9169126 206.979514,69.4070244 209.063288,68 C210.951004,66.7253601 210.110213,63.8472668 212.979097,63.2772604 C215.511393,62.7741294 219.351115,64.6817092 224.498265,69 C227.198352,71.4091126 229.335603,73.0470029 230.910018,73.9136708 C231.5089,74.2433373 232.548086,73.5795696 233.125063,73.9136708 C235.75151,75.4345274 236.768025,78.4865992 238.837598,80.256946 C241.083203,82.1778736 242.706006,85.575901 244.486779,87.5290961 C247.156007,90.4567704 249.564017,92.0751929 250.023228,96.11531 C250.397105,99.404669 235.623139,102.736579 234.875205,106.185077 C234.129072,109.625274 228.498941,113.019005 220.292707,119.535687 C218.052741,121.314474 215.570517,125.114497 210.76871,129 C208.853837,130.549468 204.980518,133.155147 199.148753,136.817036 L199.148751,136.817032 C198.802965,137.034159 198.531918,137.351917 198.372028,137.727612 C198.303945,137.887587 197.171771,137.869819 194.975506,137.674308 C194.22842,137.607802 193.498992,135.428192 192.469314,135.369298 C190.86886,135.277757 184.219822,135.164221 172.5222,135.02869 L172.5222,135.028703 C171.417697,135.015906 170.532695,134.110156 170.545492,133.005653 C170.547237,132.855019 170.565996,132.705065 170.60141,132.558644 C171.524302,128.742947 172.047505,126.202967 172.17102,124.938705 C172.338888,123.220464 170.068422,121.685009 170,120.356022 C169.857043,117.579333 171.62105,115.667282 171.268232,114.615385 C169.085779,108.108597 161.667869,110.392657 163.765493,106.613231 C165.064299,104.273089 169.354463,107.314642 172.794773,105.118166 C174.435273,104.070784 171.782206,98.4773379 175.100656,96.2203846 C176.259796,95.4320277 178.431261,92.5930075 181.365671,91.6438166 C182.447761,91.2937939 184.10261,91.9178481 186.372,91.6438166 C187.089882,91.5571314 185.646561,89.3872657 187.186745,89.090575 C187.922338,88.9488753 190.105336,89.1813797 193.73574,89.7880881 L193.735738,89.7880972 C194.503682,89.9164351 195.276306,89.5874395 195.715988,88.9448754 Z" id="path-1"></path>
        <filter x="-9.2%" y="-5.4%" width="118.5%" height="121.4%" filterUnits="objectBoundingBox" id="filter-2">
            <feOffset dx="0" dy="4" in="SourceAlpha" result="shadowOffsetOuter1"></feOffset>
            <feGaussianBlur stdDeviation="2" in="shadowOffsetOuter1" result="shadowBlurOuter1"></feGaussianBlur>
            <feComposite in="shadowBlurOuter1" in2="SourceAlpha" operator="out" result="shadowBlurOuter1"></feComposite>
            <feColorMatrix values="0 0 0 0 0   0 0 0 0 0   0 0 0 0 0  0 0 0 1 0" type="matrix" in="shadowBlurOuter1"></feColorMatrix>
        </filter>
    </defs>
    <g id="Page-1" stroke="none" stroke-width="1" fill="none" fill-rule="evenodd">
        <g id="Municipalità" transform="translate(-159.000000, -165.000000)">
            <g id="Group" transform="translate(0.000000, 102.000000)">
                <g id="V3">
                    <use fill="black" fill-opacity="1" filter="url(#filter-2)" xlink:href="#path-1"></use>
                    <path stroke="#000000" stroke-width="1" d="M195.029027,137.177094 C196.111494,137.27334 196.929767,137.325699 197.479682,137.334329 C197.734359,137.338326 197.926836,137.33276 198.051106,137.319056 C198.012237,137.330928 197.982902,137.365119 197.911959,137.531814 C198.111823,137.062192 198.450634,136.664994 198.882865,136.393594 C204.698152,132.742051 208.559679,130.144305 210.454193,128.611311 C213.426212,126.206427 219.401721,119.604753 219.981767,119.144131 C221.829322,117.676962 228.607141,112.521147 229.951805,111.413132 C232.652355,109.187854 233.984252,107.646512 234.35515,106.211264 C234.366562,106.167102 234.377033,106.12305 234.386566,106.079098 C234.741453,104.442818 236.643231,103.330102 242.233722,100.827493 C247.734989,98.3648257 249.645355,97.2181058 249.526427,96.1717777 C249.275612,93.9651215 248.477965,92.4892809 246.759961,90.627874 C246.452967,90.2952551 244.663506,88.4650635 244.117293,87.8659646 C243.767273,87.482054 243.410937,87.0326554 243.013669,86.4833182 C242.781446,86.1622027 242.543066,85.8185186 242.236096,85.3655268 C242.154745,85.2454783 241.613386,84.4417432 241.453236,84.2064189 C240.268532,82.465611 239.446134,81.4354749 238.51258,80.6368982 C237.777697,80.0082668 237.235125,79.3391116 236.30314,78.0175547 C236.153475,77.8050209 236.065312,77.6797811 236.004146,77.5931763 C234.769095,75.8444642 234.002227,74.9993739 232.87451,74.3463638 C232.785459,74.2947981 232.60188,74.3047915 232.122964,74.4024751 C232.109478,74.4052256 232.109478,74.4052256 232.095906,74.4079907 C231.394046,74.5509198 231.059976,74.5669669 230.668901,74.3516919 C229.054558,73.463045 226.891171,71.8051257 224.176901,69.3830472 C219.139597,65.1569136 215.410006,63.304047 213.076536,63.7676743 C211.91051,63.9993469 211.521408,64.4835958 210.950807,65.990266 C210.935591,66.0304487 210.935591,66.0304487 210.920277,66.0708568 C210.448772,67.3142456 210.103816,67.9007164 209.34309,68.4143804 C208.495725,68.9865451 207.657972,69.0436395 205.43202,68.9163124 C204.989324,68.8909896 204.76641,68.8795894 204.508462,68.8706855 C202.389238,68.7975345 201.197785,69.1365679 200.418443,70.2813712 C199.986991,70.9151463 199.886865,71.9728519 199.867506,75.0632361 C199.844132,78.7944371 199.735829,80.6809348 199.259103,83.0661028 C198.957572,84.5747321 197.91357,86.6186711 196.128632,89.2272317 C195.579028,90.030439 194.613246,90.4416816 193.653323,90.2812488 C190.100332,89.6874773 187.930902,89.4564181 187.281323,89.5815485 C186.967079,89.6420823 186.900668,89.7956604 186.956396,90.2964913 C186.967173,90.3933488 186.981626,90.4899341 187.007119,90.6427199 C187.081021,91.085631 187.094263,91.1856639 187.085438,91.3735963 C187.066747,91.7716229 186.854883,92.0891399 186.43194,92.1402107 C185.477484,92.2554625 184.702706,92.236228 183.47952,92.1227107 C182.222024,92.0060095 181.892702,91.9988457 181.519555,92.1195472 C180.352571,92.4970307 179.236932,93.2085427 178.024767,94.2570091 C177.68713,94.5490498 175.784993,96.3596346 175.381846,96.6338243 C174.305197,97.3660775 173.867093,98.5277454 173.817763,100.295814 C173.804616,100.767035 173.814966,101.179041 173.850474,101.972371 C173.955339,104.315347 173.875754,105.021226 173.063837,105.539597 C172.285655,106.03643 171.432574,106.314541 170.482695,106.418871 C169.607758,106.514971 168.853993,106.474563 167.487291,106.316359 C165.230983,106.055178 164.607347,106.126744 164.202673,106.85587 C163.616764,107.91154 163.801738,108.21503 165.138104,108.757548 C165.352153,108.844444 166.218567,109.173175 166.397713,109.243863 C166.956598,109.464389 167.414655,109.668009 167.85924,109.903234 C169.71385,110.884485 171.014406,112.2863 171.742277,114.456384 C171.869805,114.836596 171.82676,115.246013 171.656623,115.776718 C171.595791,115.96647 171.521326,116.165885 171.408754,116.447864 C171.438278,116.37391 171.187383,116.996505 171.119425,117.171416 C170.654187,118.368857 170.44583,119.291001 170.499339,120.330314 C170.518487,120.702245 170.706132,121.016175 171.492484,122.089436 C172.402515,123.331502 172.759211,124.060377 172.668651,124.987322 C172.542089,126.282771 172.015836,128.837556 171.087397,132.676188 C171.060836,132.786004 171.046767,132.89847 171.045458,133.011446 C171.035861,133.839825 171.699613,134.519135 172.527993,134.528723 C184.239397,134.664414 190.885714,134.777903 192.497866,134.870114 C193.149858,134.907406 193.572711,135.309742 194.236087,136.229482 C194.760423,136.956451 194.901979,137.126679 195.029027,137.177094 Z" stroke-linejoin="square" fill="#02928B" fill-rule="evenodd"></path>
                </g>
            </g>
        </g>
    </g>
</svg>