<?xml version="1.0" encoding="UTF-8"?>
<svg width="127px" height="94px" viewBox="0 0 127 94" version="1.1" xmlns="http://www.w3.org/2000/svg" xmlns:xlink="http://www.w3.org/1999/xlink">
    <!-- Generator: Sketch 52.6 (67491) - http://www.bohemiancoding.com/sketch -->
    <title>V4</title>
    <desc>Created with Sketch.</desc>
    <defs>
        <path d="M264.329309,92.947422 C269.544081,91.7024032 272.750637,91.3433333 273.948979,91.8702124 C275.673724,92.6285373 274.710141,94.9639208 275.889182,96.11531 C277.560775,97.7476998 281.164241,98.1186536 282.362891,97.8856923 C284.720261,97.4275301 289.754925,86.4533897 291.398226,86.069635 C295.961503,85.0039882 290.544411,92.7295957 293.84386,91.8702124 C296.584633,91.1563434 300.873891,91.8614634 303.932914,90 C309.269502,86.7526024 313.264388,80.6324775 316,80.9752635 C316.757817,81.0702218 316.757817,84.4118006 316,91 C317.669662,99.3244695 318.263259,106.377675 317.780791,112.159615 C317.544782,114.987969 315.296413,117.994582 314.479884,121 C313.911429,123.092328 313.316247,126.297456 312.694339,130.615385 L313.061618,134.880102 C313.721709,142.544927 308.043249,149.293605 300.378424,149.953695 C299.895504,149.995284 299.410744,150.011639 298.92612,150.002692 C298.92612,150.002692 298.92612,150.002692 298.92612,150.002692 C290.129935,149.840312 277.252826,155.513083 260.294792,167.021005 L260.294794,167.021008 C259.511028,167.55288 258.461646,167.462022 257.780961,166.803353 C255.96622,165.047307 254.556853,163.856445 253.552859,163.230769 C250.14128,161.104715 246.364558,160.101304 244.670318,158.635692 C243.078165,157.258392 245.129468,155.100981 244.670318,153.274154 C244.125311,151.105726 241.170286,149.306911 240.243954,148.478462 C237.954782,146.431179 238.828462,141.138118 236.930469,140.045979 C234.616985,138.714758 232.299264,139.224446 229.862355,138.224308 C227.034932,137.063897 220.576384,144.941746 218.376727,143.923077 C215.293684,142.495308 207.070667,145.960719 203.33771,145.847308 C201.489662,145.791162 200.143399,144.657341 199.298921,142.445846 C206.977759,137.920233 212.404581,134.25296 215.579388,131.444027 C223.944629,124.042822 230.273638,115.047347 235.582343,110.826231 C243.860792,104.243778 253.302829,98.3348277 263.908455,93.0993807 L263.908446,93.0993616 C264.042608,93.0331323 264.183779,92.9821669 264.329309,92.947422 Z" id="path-1"></path>
        <filter x="-6.7%" y="-4.6%" width="113.5%" height="118.5%" filterUnits="objectBoundingBox" id="filter-2">
            <feOffset dx="0" dy="4" in="SourceAlpha" result="shadowOffsetOuter1"></feOffset>
            <feGaussianBlur stdDeviation="2" in="shadowOffsetOuter1" result="shadowBlurOuter1"></feGaussianBlur>
            <feComposite in="shadowBlurOuter1" in2="SourceAlpha" operator="out" result="shadowBlurOuter1"></feComposite>
            <feColorMatrix values="0 0 0 0 0   0 0 0 0 0   0 0 0 0 0  0 0 0 1 0" type="matrix" in="shadowBlurOuter1"></feColorMatrix>
        </filter>
    </defs>
    <g id="Page-1" stroke="none" stroke-width="1" fill="none" fill-rule="evenodd">
        <g id="Municipalità" transform="translate(-195.000000, -183.000000)">
            <g id="Group" transform="translate(0.000000, 102.000000)">
                <g id="V4">
                    <use fill="black" fill-opacity="1" filter="url(#filter-2)" xlink:href="#path-1"></use>
                    <path stroke="#000000" stroke-width="1" d="M199.925142,142.656782 C200.701202,144.43049 201.831915,145.301329 203.352894,145.347538 C204.590158,145.385128 205.842824,145.139311 209.629186,144.227667 C209.935213,144.153985 210.168477,144.098119 210.396076,144.044129 C214.767669,143.00713 217.035634,142.750998 218.586842,143.469368 C219.207589,143.756838 220.326101,143.087189 223.529154,140.662142 C223.758893,140.488205 223.943309,140.349286 224.121303,140.216335 C227.059547,138.021644 228.690091,137.202724 230.052195,137.761749 C230.913377,138.115189 231.592152,138.254379 233.1618,138.467738 C235.139287,138.736535 236.045223,138.959724 237.179841,139.612604 C238.11946,140.153277 238.448254,141.09238 238.872905,143.479002 C238.916934,143.727309 238.941191,143.864075 238.961361,143.976588 C238.995323,144.166037 239.024297,144.32381 239.053019,144.474596 C239.410709,146.352424 239.825373,147.433322 240.577268,148.105766 C240.72488,148.237781 242.183591,149.35365 242.68717,149.785619 C244.013829,150.923624 244.864523,151.995609 245.155236,153.152276 C245.301014,153.732285 245.253559,154.326597 245.059918,155.087266 C245.012231,155.274596 244.965836,155.437823 244.876167,155.741236 C244.428079,157.25743 244.420686,157.758626 244.997435,158.257546 C245.416151,158.619759 246.007963,158.97874 246.844291,159.390851 C247.136707,159.534942 250.992673,161.247849 252.242853,161.906607 C252.798978,162.199646 253.320829,162.497027 253.817306,162.806425 C254.858189,163.45509 256.290545,164.665376 258.128656,166.444036 C258.63917,166.938038 259.426206,167.006182 260.01403,166.607275 C277.051298,155.045583 290.007507,149.337966 298.935348,149.502777 C299.402577,149.511403 299.869938,149.495635 300.335523,149.455539 C307.725224,148.819142 313.199859,142.312704 312.563462,134.923003 L312.196183,130.658286 L312.199446,130.544105 C312.824018,126.207685 313.42245,122.985049 313.997375,120.868909 C314.005952,120.837461 314.005952,120.837461 314.014656,120.806031 C314.311356,119.738691 314.686764,118.850907 315.541432,117.049652 C316.775636,114.448508 317.175032,113.406213 317.282523,112.118038 C317.760655,106.38805 317.170871,99.3801465 315.509764,91.098328 L315.503275,90.9428636 C315.880185,87.6661386 316.068362,85.2004234 316.068362,83.5526663 C316.068362,82.2027372 315.906212,81.4674215 315.937834,81.4713838 C315.248822,81.3850472 314.325264,81.8548799 313.02321,82.9393685 C312.211762,83.6152289 308.92005,86.7338752 308.818032,86.8271495 C307.121388,88.3783783 305.682678,89.5205388 304.192832,90.4271334 C302.912695,91.2061165 301.416352,91.6033214 299.438699,91.8064053 C298.832692,91.8686358 298.405624,91.8983782 297.264542,91.9665798 C295.516981,92.0710302 294.747847,92.1514395 293.969886,92.3540691 C292.972938,92.6137368 292.324467,92.2277259 292.223846,91.3487042 C292.165805,90.8416635 292.238066,90.4140009 292.530603,89.1245036 C292.562388,88.9842085 292.562388,88.9842085 292.593537,88.8445866 C292.826975,87.7914752 292.888464,87.1927791 292.77078,86.8166571 C292.663842,86.4748806 292.356756,86.3592455 291.51193,86.5565348 C291.064296,86.6610693 290.36917,87.6860841 287.555142,92.2426161 C287.331056,92.6054601 287.13538,92.9200228 286.948338,93.2175584 C284.843352,96.5660629 283.573559,98.1597509 282.458282,98.3765084 C280.625563,98.732703 277.082917,97.9799129 275.539848,96.4730333 C275.008761,95.9544014 274.835718,95.4047085 274.678179,94.2672489 C274.673085,94.2304144 274.673085,94.2304144 274.668037,94.1938086 C274.500844,92.9815734 274.332846,92.585183 273.747735,92.327925 C272.694238,91.8647305 269.535964,92.2183938 264.44542,93.4337535 C264.336267,93.4598136 264.230412,93.4980334 264.129781,93.5477276 C253.555204,98.7678471 244.14331,104.657933 235.893527,111.217593 C234.157462,112.597993 232.298381,114.476608 229.500738,117.584412 C228.783193,118.381507 226.209178,121.27654 225.852322,121.675489 C224.330896,123.376374 223.097598,124.724565 221.857291,126.030301 C219.79926,128.196898 217.862217,130.091886 215.910705,131.818499 C212.758398,134.607525 207.432807,138.217053 199.925142,142.656782 Z" stroke-linejoin="square" fill="#A70062" fill-rule="evenodd"></path>
                </g>
            </g>
        </g>
    </g>
</svg>