<?xml version="1.0" encoding="UTF-8"?>
<svg width="100px" height="102px" viewBox="0 0 100 102" version="1.1" xmlns="http://www.w3.org/2000/svg" xmlns:xlink="http://www.w3.org/1999/xlink">
    <!-- Generator: Sketch 52.6 (67491) - http://www.bohemiancoding.com/sketch -->
    <title>V5</title>
    <desc>Created with Sketch.</desc>
    <defs>
        <path d="M137.064508,89 L142.593495,89.0000047 C143.347526,89.0000047 144.037466,89.4240903 144.377963,90.0968638 C145.210368,91.7415753 146.186894,93.6425437 147.307543,95.7997692 C147.793922,96.7360382 149.12461,99.2137143 151.094782,100.106772 C153.342921,101.12583 156.262929,100.567404 156.90421,101.782365 C157.948552,103.76096 159.357115,107.264536 161.944544,110.493077 C163.291382,112.173633 166.085944,113.338848 166.911277,115.11471 C167.4107,116.189313 164.911015,117.801487 165.207719,119.39096 C165.429829,120.580827 168.400898,121.674436 168.919492,122.976231 C169.501213,124.436491 164.92948,128.43054 165.904608,130.92384 C166.12296,131.482143 165.944208,134.806197 167.780059,136.139059 C168.836787,136.906263 171.101069,135.365037 172.49757,136.038308 C174.024141,136.774286 173.554253,139.462382 174.885441,140.532462 C177.150986,142.353628 180.907084,142.686037 181.572968,143.92706 C182.551696,145.751137 180.868961,148.856807 181.572968,152.274154 C181.90942,153.907338 186.153458,156.965539 187.423855,160.998077 C187.65464,161.730643 186.816472,163.483126 184.909352,166.255527 L184.909349,166.255525 C184.584432,166.727861 184.07244,167.038052 183.503345,167.107357 C169.062439,168.86597 158.925201,170.496851 153.091631,172 C150.112917,172.767532 137.341621,182.903004 134.661214,182.903004 C127.924547,182.903004 135.886023,173.248345 137.061056,169.190355 C137.300848,168.362234 137.048024,167.767389 136.302587,167.405821 L136.302596,167.405801 C135.308775,166.923758 134.893898,165.727333 135.375941,164.733512 C135.466745,164.546304 135.586205,164.374412 135.730011,164.22404 C139.126856,160.6721 141.000268,158.264087 141.350246,157 C142.556945,152.641519 138.309221,148.712116 138.554383,144.721231 C138.613265,143.762724 140.915496,142.496532 141.350246,141.029769 C141.735234,139.730891 140.261789,138.229695 140.261789,137.307692 C140.261789,136.473506 138.929157,134.017583 138.554383,133.412 C136.727065,130.459302 135.235509,129.434866 134.661214,125.167231 C134.534465,124.225349 130.148975,123.524473 129.313269,122.230769 C127.796478,119.882723 129.473004,116.602583 129.313269,113.615385 C129.277498,112.946432 123.236756,113.526767 116.944884,112.383308 C114.291385,111.901072 108.736544,110.157179 104.25647,110.128154 C102.03441,110.113758 100.076802,112.108237 98.8686228,111.751538 C93.330001,110.116335 95.4287327,106.172591 96.0242344,105.185077 C96.9362334,103.672719 118.309366,105.401768 129.313269,104.011154 C133.075352,103.535722 135.386466,100.625735 135.577352,99.9020769 C135.975816,98.3914826 135.814489,95.5369715 135.093372,91.3385438 L135.093388,91.3385411 C134.906408,90.2499215 135.637331,89.2158437 136.725951,89.0288638 C136.83778,89.0096561 136.951041,89 137.064508,89 Z" id="path-1"></path>
        <filter x="-8.7%" y="-4.3%" width="117.3%" height="117.0%" filterUnits="objectBoundingBox" id="filter-2">
            <feOffset dx="0" dy="4" in="SourceAlpha" result="shadowOffsetOuter1"></feOffset>
            <feGaussianBlur stdDeviation="2" in="shadowOffsetOuter1" result="shadowBlurOuter1"></feGaussianBlur>
            <feComposite in="shadowBlurOuter1" in2="SourceAlpha" operator="out" result="shadowBlurOuter1"></feComposite>
            <feColorMatrix values="0 0 0 0 0   0 0 0 0 0   0 0 0 0 0  0 0 0 1 0" type="matrix" in="shadowBlurOuter1"></feColorMatrix>
        </filter>
    </defs>
    <g id="Page-1" stroke="none" stroke-width="1" fill="none" fill-rule="evenodd">
        <g id="Municipalità" transform="translate(-91.000000, -191.000000)">
            <g id="Group" transform="translate(0.000000, 102.000000)">
                <g id="V5">
                    <use fill="black" fill-opacity="1" filter="url(#filter-2)" xlink:href="#path-1"></use>
                    <path stroke="#000000" stroke-width="1" d="M137.064508,89.5 C136.979408,89.5 136.894463,89.507242 136.810591,89.5216478 C135.994129,89.6618822 135.445934,90.4374402 135.586156,91.2539038 C136.318986,95.5205275 136.483302,98.4279357 136.060815,100.029605 C135.644881,101.606433 132.598542,104.099956 129.375958,104.507208 C126.056073,104.926758 121.715419,105.092888 115.864873,105.097607 C113.984709,105.099124 112.322793,105.087323 109.272897,105.056431 C100.195773,104.964492 96.6789951,105.06753 96.4524071,105.443279 C95.9194023,106.327154 95.579186,107.264086 95.6448787,108.19004 C95.7402954,109.534961 96.7313528,110.599202 99.0101997,111.272001 C99.3516073,111.372797 99.6097053,111.275549 101.182407,110.511441 C102.435573,109.902581 103.292125,109.621896 104.25971,109.628164 C105.423609,109.635705 106.706421,109.755357 108.123005,109.974684 C109.433267,110.17755 110.795298,110.453419 112.422298,110.829593 C112.836343,110.925323 113.251094,111.023556 113.779067,111.150329 C113.754948,111.144538 114.75726,111.385863 115.020643,111.448662 C115.95056,111.670384 116.544926,111.802431 117.034288,111.891366 C119.917573,112.415362 121.791816,112.545724 126.531918,112.713585 C129.497003,112.818586 129.773139,112.851559 129.812556,113.588686 C129.84903,114.270784 129.800283,114.985006 129.676735,115.861646 C129.630236,116.19158 129.584474,116.476232 129.491785,117.02761 C129.02691,119.792999 129.025464,120.863769 129.733261,121.959463 C129.972783,122.330252 130.699319,122.709242 132.097223,123.238296 C132.207903,123.280184 132.846232,123.518642 133.024012,123.586496 C133.374543,123.720284 133.642389,123.828828 133.877886,123.934912 C134.669943,124.291709 135.089999,124.604535 135.156748,125.100547 C135.464753,127.389361 135.997757,128.727376 137.095964,130.367044 C136.97714,130.189635 138.504824,132.381785 138.979551,133.148879 C139.757615,134.406125 140.761789,136.504166 140.761789,137.307692 C140.761789,137.519636 140.844546,137.712674 141.283785,138.576486 C141.560864,139.121392 141.715079,139.477764 141.817084,139.8672 C141.938327,140.330082 141.951314,140.761326 141.829631,141.171859 C141.62893,141.848987 141.183867,142.41834 140.337619,143.250942 C139.236042,144.334757 139.067194,144.528038 139.053442,144.751888 C139.026451,145.191267 139.058358,145.647219 139.146262,146.130317 C139.332658,147.154707 139.633055,147.944849 140.512624,149.934295 C142.01213,153.325936 142.426159,154.987796 141.832118,157.133412 C141.451008,158.509944 139.551518,160.951479 136.091366,164.569616 C135.983512,164.682395 135.893917,164.811313 135.825815,164.951719 C135.464284,165.697081 135.775439,166.594402 136.520793,166.955948 C137.488617,167.425382 137.847894,168.270692 137.541327,169.329423 C137.225127,170.421425 136.940026,170.979316 135.032047,174.470187 C134.838996,174.823398 134.679267,175.118322 134.528619,175.400526 C133.258101,177.780541 132.605146,179.354418 132.498611,180.530023 C132.382212,181.814474 132.959438,182.403004 134.661214,182.403004 C135.650954,182.403004 138.29839,180.824612 143.660445,177.206439 C143.802826,177.110346 143.802826,177.110346 143.945193,177.014203 C150.111655,172.849378 151.701104,171.841968 152.96687,171.515815 C158.827274,170.005752 168.981634,168.372116 183.442902,166.611024 C183.869723,166.559045 184.253717,166.326402 184.497407,165.972152 C186.297009,163.356052 187.108171,161.660034 186.946961,161.148316 C186.489278,159.695523 185.620643,158.299571 184.280149,156.670112 C183.858299,156.157327 182.472657,154.57186 182.262643,154.319292 C181.558471,153.472437 181.192241,152.90409 181.083252,152.37504 C180.789851,150.950832 180.84327,149.743749 181.146694,147.666338 C181.467533,145.469697 181.487065,144.824489 181.132383,144.16346 C180.985584,143.889867 180.500156,143.604649 179.555335,143.244192 C179.424879,143.194422 177.754391,142.596294 177.226111,142.383847 C176.129633,141.942898 175.277395,141.489053 174.572178,140.922162 C173.952113,140.42372 173.6887,139.822613 173.348564,138.54115 C173.333367,138.48383 173.333367,138.48383 173.3183,138.426896 C172.986404,137.173164 172.766901,136.72323 172.280432,136.488697 C171.907461,136.308884 171.399462,136.325628 170.549971,136.512911 C170.445156,136.536019 170.345529,136.558999 170.180218,136.597849 C168.663496,136.954301 168.109657,136.996233 167.486306,136.543669 C166.687779,135.963923 166.180816,135.060067 165.873314,133.895146 C165.760334,133.46714 165.678253,133.020448 165.612648,132.521496 C165.574481,132.231225 165.482955,131.36188 165.49416,131.460046 C165.4707,131.254509 165.449902,131.13395 165.438954,131.105957 C165.045344,130.099538 165.329416,128.947478 166.129634,127.486058 C166.351693,127.080516 166.600888,126.670821 166.948287,126.12876 C168.323953,123.98226 168.584,123.485112 168.454993,123.161273 C168.301824,122.776783 167.860178,122.387813 166.808665,121.651313 C166.187771,121.216427 166.026466,121.100375 165.764898,120.889836 C165.159114,120.402234 164.808366,119.976404 164.716209,119.482709 C164.700171,119.396795 164.690041,119.310091 164.685666,119.222682 C164.648301,118.476281 164.948414,117.86671 165.672775,116.847565 C166.399434,115.825187 166.550845,115.525529 166.457853,115.325439 C166.129225,114.618332 165.517123,114.048934 164.078952,112.986855 C163.979438,112.913414 163.979438,112.913414 163.879417,112.839653 C162.632342,111.919724 162.069467,111.448476 161.554381,110.805763 C161.163617,110.318176 160.788406,109.811053 160.426005,109.28338 C159.569204,108.03584 158.821282,106.73649 158.043682,105.207541 C157.759395,104.648565 156.699264,102.465227 156.462025,102.015759 C156.285923,101.682119 155.760367,101.518409 154.347104,101.342971 C153.313708,101.214689 153.089831,101.183739 152.603287,101.087611 C151.959124,100.960343 151.398911,100.7936 150.888354,100.562171 C149.189618,99.7921518 147.996268,98.2101641 146.863841,96.0302661 C145.742426,93.8715647 144.765108,91.9690562 143.931845,90.3226484 C143.676473,89.8180686 143.159018,89.5000047 142.593495,89.5000047 L137.064508,89.5 Z" stroke-linejoin="square" fill="#4F7401" fill-rule="evenodd"></path>
                </g>
            </g>
        </g>
    </g>
</svg>