<?xml version="1.0" encoding="UTF-8"?>
<svg width="111px" height="125px" viewBox="0 0 111 125" version="1.1" xmlns="http://www.w3.org/2000/svg" xmlns:xlink="http://www.w3.org/1999/xlink">
    <!-- Generator: Sketch 52.6 (67491) - http://www.bohemiancoding.com/sketch -->
    <title>V6</title>
    <desc>Created with Sketch.</desc>
    <defs>
        <path d="M322.524769,89.8661781 C322.269127,87.8575189 321.882458,86.6273297 321.364761,86.1756106 C318.521882,83.6950435 321.364761,81 325.282914,83.3556656 C326.639875,84.171495 328.676163,78.5212032 329.619468,81 C331.764048,86.6354809 333.769782,87.6104361 338.111462,91.171238 C340.329014,92.9899491 345.060986,95.3026911 352.307377,98.1094639 L352.307384,98.1094477 C352.557996,98.2065185 352.786474,98.3531033 352.979171,98.5404466 C357.970004,103.392629 361.706111,107.487891 364.187491,110.826231 C367.308395,115.024957 368.798536,119.836776 373,125.538462 C374.489332,127.559592 364.849394,129.066441 364.187491,130.681154 C363.601125,132.111596 362.967768,135.846433 364.187491,139.716615 C365.357114,143.427828 368.393016,147.266379 367.379183,149.184897 C365.620152,152.513588 352.984382,151.278382 348.908099,154.625308 C346.687339,156.448714 352.122404,160.795628 351.454788,165.30069 C350.796824,169.740617 343.176938,174.88377 328.595127,180.730149 L328.595121,180.730134 C324.876327,182.221134 322.466662,185.856046 322.541466,189.861907 C322.541466,189.861907 322.541466,189.861907 322.541466,189.861907 C322.582227,192.044777 326.299892,193.937362 322.541466,196 C320.19372,197.288452 315.462256,193.265207 312.928623,194 C310.455997,194.7171 309.379902,198.652695 306.673351,197.187988 C304.567315,196.048263 301.43458,192.775494 297.275145,187.369682 L297.275134,187.369691 C297.086913,187.125071 296.84463,186.927333 296.56725,186.791958 C293.32396,185.209076 291.012535,184.246091 289.632974,183.903004 C287.783058,183.442943 284.841446,184.585983 283.807951,184 C279.280304,181.432859 279.522284,177.534209 276.9958,175.197156 C273.051033,171.548162 267.680897,169.948225 267.784325,169.657238 C269.731109,164.180074 281.262389,161.677142 291.371002,157.233846 C292.710219,156.645186 299.734446,155.742195 305.074543,153.931077 C309.765759,152.340029 312.928623,149.841519 312.928623,149.070806 C312.928623,141.473065 315.519003,142.029769 317.787992,136.332769 C318.428372,134.724897 315.80201,135.533812 316.606844,130.615385 C316.924438,128.674529 318.694555,124.373238 319.727445,121 C320.403962,118.790615 320.926588,116.090603 321.364761,113.949 C321.854133,111.557153 322.234936,109.713034 322.541466,106.998692 C322.688848,105.69361 322.563305,103.970556 322.541466,101.864769 C322.512522,99.0739699 322.512276,95.1623766 322.540726,90.1299894 L322.54074,90.1299895 C322.541239,90.0417964 322.535903,89.9536669 322.524769,89.8661781 Z" id="path-1"></path>
        <filter x="-7.4%" y="-3.4%" width="115.0%" height="113.7%" filterUnits="objectBoundingBox" id="filter-2">
            <feOffset dx="0" dy="4" in="SourceAlpha" result="shadowOffsetOuter1"></feOffset>
            <feGaussianBlur stdDeviation="2" in="shadowOffsetOuter1" result="shadowBlurOuter1"></feGaussianBlur>
            <feComposite in="shadowBlurOuter1" in2="SourceAlpha" operator="out" result="shadowBlurOuter1"></feComposite>
            <feColorMatrix values="0 0 0 0 0   0 0 0 0 0   0 0 0 0 0  0 0 0 1 0" type="matrix" in="shadowBlurOuter1"></feColorMatrix>
        </filter>
    </defs>
    <g id="Page-1" stroke="none" stroke-width="1" fill="none" fill-rule="evenodd">
        <g id="Municipalità" transform="translate(-264.000000, -182.000000)">
            <g id="Group" transform="translate(0.000000, 102.000000)">
                <g id="V6">
                    <use fill="black" fill-opacity="1" filter="url(#filter-2)" xlink:href="#path-1"></use>
                    <path stroke="#000000" stroke-width="1" d="M268.184195,169.365878 C268.17916,169.362717 268.174009,169.35954 268.168748,169.35633 C268.184348,169.365848 268.202833,169.376452 268.224299,169.388184 Z M268.394664,169.474927 C268.434301,169.494166 268.478235,169.515053 268.526617,169.537659 C268.698412,169.617925 269.703733,170.066793 270.023042,170.213201 C271.764622,171.011742 273.251786,171.802883 274.706933,172.775629 C275.665985,173.416743 276.545188,174.099217 277.335325,174.830111 C278.179898,175.611359 278.694327,176.429317 279.471897,178.020763 C279.399424,177.872446 279.785129,178.664968 279.876075,178.848417 C280.026813,179.152473 280.158663,179.408337 280.291582,179.652089 C281.236742,181.38536 282.312483,182.577302 284.054565,183.56505 C284.352787,183.73414 284.892763,183.70838 286.469114,183.486007 C286.814536,183.437279 287.034595,183.407789 287.265485,183.380516 C288.316874,183.256325 289.085684,183.251667 289.753645,183.417784 C291.176972,183.771755 293.513333,184.745129 296.78655,186.342617 C297.133263,186.51183 297.436115,186.758994 297.671417,187.064776 C301.788968,192.416152 304.887157,195.652831 306.911324,196.748251 C307.916769,197.292368 308.585273,197.025028 309.74497,195.850102 C309.861732,195.731806 309.98133,195.607765 310.225387,195.353787 C311.262776,194.278724 311.899072,193.777983 312.789353,193.519787 C313.949055,193.183456 315.021623,193.49114 317.703214,194.622325 C317.741968,194.638672 317.741968,194.638672 317.780694,194.655003 C320.357918,195.741715 321.478459,196.013034 322.300909,195.561671 C323.417625,194.948813 323.78386,194.412823 323.711908,193.820868 C323.663521,193.422786 323.495105,193.084394 322.954909,192.204228 C322.300756,191.138385 322.055074,190.59533 322.041553,189.871242 C321.962871,185.6577 324.497465,181.834342 328.409058,180.26606 C342.813874,174.490645 350.340271,169.410594 350.960189,165.227394 C351.190825,163.671069 350.715045,162.163094 349.49878,159.837408 C349.517662,159.873512 348.850015,158.614508 348.681341,158.279853 C348.391517,157.704833 348.193198,157.251442 348.059839,156.834704 C347.706455,155.730407 347.83142,154.862393 348.590812,154.238877 C350.219409,152.90168 352.715143,152.260898 357.545141,151.593021 C357.908608,151.542762 358.260058,151.495185 358.968861,151.39963 C364.255952,150.684683 366.316353,150.125978 366.937113,148.951287 C367.386727,148.100464 367.061126,147.185687 365.216879,143.422642 C364.636781,142.238995 364.266885,141.419307 363.957146,140.583879 C363.866383,140.339072 363.784235,140.100509 363.710614,139.866908 C362.64893,136.498187 362.83975,132.650718 363.724852,130.491509 C363.893648,130.079731 364.320826,129.748982 365.011762,129.401182 C365.74543,129.031872 366.265501,128.837239 368.488116,128.055661 C370.253174,127.434982 371.159413,127.075213 371.857994,126.677099 C372.58493,126.262825 372.736979,126.024382 372.59748,125.835071 C371.390262,124.196791 370.342361,122.552435 369.290463,120.696348 C368.879746,119.971633 368.481478,119.239448 367.993364,118.319159 C367.878908,118.103363 367.043672,116.517858 366.802734,116.066584 C365.64666,113.901262 364.797391,112.484913 363.786204,111.124507 C361.323192,107.810879 357.60391,103.73406 352.630633,98.8989446 C352.486108,98.7584348 352.314756,98.6485047 352.126784,98.5757108 C344.832676,95.7504558 340.065578,93.4205457 337.794389,91.5578446 C337.723452,91.4996656 334.627976,89.0239526 333.912617,88.3927277 C331.910509,86.6260906 330.706755,84.9549932 329.517922,82.0978763 C329.395836,81.8044673 329.274067,81.4981743 329.152162,81.1778333 C329.015492,80.8186948 329.037197,80.8276027 328.887324,80.92475 C328.630597,81.091159 328.387935,81.3681211 327.725379,82.2107435 C327.599844,82.3703949 327.516941,82.4748519 327.431435,82.5804174 C326.45574,83.7850179 325.808268,84.2549266 325.025283,83.7841816 C323.386841,82.7991209 321.863236,82.7205918 321.104493,83.3394999 C320.454722,83.8695202 320.57652,84.8242477 321.693491,85.7988661 C322.336821,86.3602073 322.749828,87.6741869 323.020768,89.8030524 C323.034692,89.9124613 323.041359,90.022651 323.040718,90.1328161 C323.012281,95.1627616 323.012528,99.071923 323.041439,101.859584 C323.046514,102.348922 323.05602,102.788434 323.075053,103.503142 C323.130639,105.590443 323.13102,106.233824 323.038307,107.0548 C322.863473,108.602977 322.65952,109.931005 322.376606,111.433219 C322.244318,112.135639 322.144905,112.6304 321.854613,114.049224 C321.844913,114.096631 321.570723,115.44517 321.485318,115.858947 C321.334711,116.588623 321.203157,117.204867 321.070617,117.794991 C320.780464,119.086873 320.500145,120.184246 320.205534,121.146392 C319.943686,122.00154 319.629983,122.93679 319.197868,124.16918 C319.132942,124.35435 319.064763,124.547925 318.988517,124.763695 C317.528961,128.894122 317.264147,129.694728 317.100281,130.696129 C316.772021,132.702165 316.980203,133.723398 317.560827,134.447103 C317.646506,134.553896 317.987488,134.922835 318.06138,135.015713 C318.414392,135.459429 318.491963,135.916542 318.252506,136.517775 C318.00746,137.133037 317.749231,137.701177 317.473706,138.238248 C317.129072,138.910031 316.769921,139.512178 316.339068,140.161877 C316.125874,140.483359 315.424921,141.494581 315.305268,141.673073 C313.9354,143.716569 313.428623,145.416844 313.428623,149.070806 C313.428623,150.34973 309.547815,152.94192 305.235135,154.404585 C304.076702,154.797473 302.788184,155.166334 301.358304,155.522755 C299.221946,156.055278 292.056251,157.478812 291.572201,157.691579 C290.348522,158.229454 289.048258,158.764079 287.585935,159.335769 C286.006007,159.953436 280.57215,161.978732 279.59021,162.358169 C272.854336,164.961015 269.514194,166.940247 268.394664,169.474927 Z M278.562683,178.437823 C278.565414,178.443385 278.572052,178.456968 278.583267,178.47995 C278.576382,178.465841 278.569521,178.451799 278.562683,178.437823 Z" stroke-linejoin="square" fill="#71008C" fill-rule="evenodd"></path>
                </g>
            </g>
        </g>
    </g>
</svg>