<?xml version="1.0" encoding="UTF-8"?>
<svg width="105px" height="72px" viewBox="0 0 105 72" version="1.1" xmlns="http://www.w3.org/2000/svg" xmlns:xlink="http://www.w3.org/1999/xlink">
    <!-- Generator: Sketch 52.6 (67491) - http://www.bohemiancoding.com/sketch -->
    <title>V7</title>
    <desc>Created with Sketch.</desc>
    <defs>
        <path d="M218.554955,31.1178225 C219.571447,31.3964264 220.655932,31.6904855 221.80841,32 C223.580635,32.4759567 227.763516,29.485967 229.726916,30 C231.41724,30.4425398 223.417091,38.3346906 225.665099,38.9563428 C227.438436,39.446732 228.505251,48.3367116 231.728573,49 C232.724037,49.2048443 228.266415,52.8065436 229.726916,53 C232.80177,53.4072919 239.399012,53.639021 249.518643,53.6951872 C252.244122,53.7103142 255.033686,38.9981826 259.996893,38.9563428 C264.351641,38.9196323 267.405684,47.3700345 273.521965,52 C275.477259,53.480139 279.150571,54.5153942 284.541899,55.1057656 L284.541897,55.1057859 C285.513042,55.2121301 286.265237,56.0045252 286.320921,56.9798877 C286.518762,60.4453013 287.292009,63.1322833 288.640662,65.0408339 C289.901564,66.8252039 292.349806,68.8976421 295.985388,71.2581483 L295.985395,71.2581379 C296.911825,71.8596494 297.175223,73.0982908 296.573712,74.024721 C296.409182,74.2781247 296.189379,74.4909594 295.930809,74.647243 C294.328713,75.6155709 293.205456,76.3998232 292.561037,77 C290.71954,78.7150703 292.981505,81.4900932 290.491991,83.3016068 C289.590462,83.957611 285.898166,84.6086806 284.59958,86.6688048 C283.195552,88.896205 284.150408,92.5331503 282.245429,93 C280.609141,93.4010023 278.942454,89.9719304 277.116506,88.7348884 C275.267725,87.4823772 273.260496,88.4210788 271.741727,88.7348884 C269.335353,89.2320957 263.821736,87.6228526 261.068442,88.7348884 C257.927238,90.0035983 257.510288,93.9243132 254.217783,93 C249.944391,91.80032 246.648373,79.082845 238.819906,73 C235.647228,70.5347787 230.050649,65.934024 221.80841,62.4623023 C219.995092,61.6985129 216.617168,60.8403587 211.674637,59.8878396 L211.67464,59.8878281 C210.992453,59.7563579 210.290913,59.9883241 209.821567,60.5005511 C206.451819,64.1781704 204.294848,65.6915979 203.350655,65.0408339 C202.589784,64.5164204 199.589495,66.3212115 199.589495,64 C199.589495,57.2300773 205.205686,46.5071232 216.438068,31.8311378 L216.438063,31.8311335 C216.932789,31.1847348 217.769915,30.9026558 218.554955,31.1178225 Z" id="path-1"></path>
        <filter x="-8.2%" y="-6.3%" width="116.4%" height="125.3%" filterUnits="objectBoundingBox" id="filter-2">
            <feOffset dx="0" dy="4" in="SourceAlpha" result="shadowOffsetOuter1"></feOffset>
            <feGaussianBlur stdDeviation="2" in="shadowOffsetOuter1" result="shadowBlurOuter1"></feGaussianBlur>
            <feComposite in="shadowBlurOuter1" in2="SourceAlpha" operator="out" result="shadowBlurOuter1"></feComposite>
            <feColorMatrix values="0 0 0 0 0   0 0 0 0 0   0 0 0 0 0  0 0 0 1 0" type="matrix" in="shadowBlurOuter1"></feColorMatrix>
        </filter>
    </defs>
    <g id="Page-1" stroke="none" stroke-width="1" fill="none" fill-rule="evenodd">
        <g id="Municipalità" transform="translate(-196.000000, -131.000000)">
            <g id="Group" transform="translate(0.000000, 102.000000)">
                <g id="V7">
                    <use fill="black" fill-opacity="1" filter="url(#filter-2)" xlink:href="#path-1"></use>
                    <path stroke="#000000" stroke-width="1" d="M231.234139,49.3779845 C229.840691,48.8669703 228.865693,47.2113954 227.713281,44.1640336 C227.554961,43.7453834 227.018863,42.2800718 227.048894,42.3613355 C226.797804,41.6818757 226.613299,41.2112295 226.434449,40.8059347 C226.056175,39.9487183 225.732709,39.4938048 225.531834,39.4382559 C224.582346,39.1756895 224.574007,38.3111545 225.12394,37.1701515 C225.480873,36.429585 226.036193,35.5805477 227.025113,34.1971228 C227.116183,34.0698348 227.116183,34.0698348 227.2073,33.9428271 C228.490054,32.1556418 228.744645,31.7896307 229.095448,31.1813494 C229.276138,30.8680395 229.391554,30.6203361 229.439561,30.4517458 C228.796836,30.3616286 227.837071,30.646464 226.073434,31.3710346 C225.967721,31.4145098 225.967721,31.4145098 225.861826,31.4581729 C223.420237,32.4651862 222.572735,32.7229884 221.678723,32.4828886 C220.525442,32.1731583 219.440134,31.8788758 218.422788,31.600038 C217.834006,31.4386627 217.206164,31.6502228 216.835122,32.1350262 C205.667105,46.726913 200.089495,57.3762055 200.089495,64 C200.089495,64.4242183 200.187106,64.5894372 200.381344,64.6629676 C200.595836,64.7441651 200.938919,64.7373255 201.474449,64.6477315 C201.569531,64.6318243 201.663381,64.614894 201.80684,64.5881432 C202.938286,64.3771621 203.236076,64.3546072 203.634403,64.6291453 C204.242864,65.0485136 206.296438,63.6076334 209.45292,60.1627653 C210.039605,59.5224785 210.916534,59.2325233 211.769256,59.3968738 C216.744232,60.3556459 220.147945,61.2203517 222.0025,62.0015107 C224.68591,63.1317923 227.228706,64.4370412 229.677052,65.9056377 C231.594735,67.0559258 233.396644,68.2695989 235.217104,69.6069408 C235.922722,70.125301 236.60854,70.6451632 237.374082,71.238179 C237.773843,71.547848 238.976499,72.4884787 239.126689,72.6051782 C241.716693,74.6176537 243.929019,77.3679824 246.281782,81.1797373 C246.817528,82.0477082 247.343565,82.9398573 247.999839,84.0831326 C248.055426,84.1799682 249.233832,86.2453686 249.560518,86.8081936 C250.751703,88.8604005 251.576973,90.1212948 252.382445,91.0475278 C253.090157,91.8613439 253.737852,92.3459387 254.352925,92.5186097 C255.59507,92.8673201 256.312725,92.5160765 257.397216,91.2770019 C257.527765,91.1278453 258.020255,90.5461845 258.132056,90.4173163 C259.071165,89.3348473 259.836589,88.6931828 260.881192,88.271275 C262.103833,87.7774589 263.698788,87.7351151 266.222659,87.971762 C266.549859,88.0024413 266.863048,88.0343406 267.357036,88.0864312 C269.962861,88.3612135 270.843999,88.4098164 271.640553,88.2452315 C271.893217,88.1930259 271.847755,88.2047565 272.689512,87.9811998 C274.067542,87.615218 274.889921,87.502535 275.82969,87.6758224 C276.384893,87.7781984 276.906805,87.9888792 277.396947,88.3209406 C278.008954,88.7355625 278.515484,89.2601608 279.434549,90.3430506 C280.970976,92.1533478 281.556801,92.6539653 282.126417,92.5143705 C282.714015,92.3703688 282.934292,91.8087344 283.163854,90.0649518 C283.25647,89.3614342 283.275045,89.2271922 283.328272,88.9098379 C283.503459,87.8653288 283.75077,87.0777333 284.1766,86.4021819 C284.771515,85.4583862 285.783112,84.7523258 287.217023,84.1197673 C287.632473,83.936495 289.951146,83.0730474 290.192368,82.9012255 C290.19514,82.8992441 290.19514,82.8992441 290.197803,82.8973128 C291.055901,82.2729115 291.288262,81.5857818 291.272334,80.2830354 C291.270973,80.1717326 291.26888,80.0804248 291.263534,79.8791113 C291.218448,78.1810812 291.367482,77.4283469 292.220267,76.6341098 C292.895636,76.0051074 294.042977,75.2040401 295.672174,74.219332 C295.866102,74.102119 296.030955,73.9424926 296.154352,73.7524395 C296.605487,73.057615 296.407936,72.1286354 295.713106,71.6775083 C292.028868,69.2854108 289.537604,67.1765543 288.232323,65.3293812 C286.823128,63.3351545 286.024493,60.5599499 285.821734,57.0083864 C285.779971,56.2768679 285.215826,55.6825675 284.487473,55.6027945 C279.013417,55.0033641 275.265795,53.9471658 273.220184,52.3986584 C271.499993,51.0964899 269.956756,49.4804704 268.189935,47.2637736 C267.57328,46.4901031 265.554556,43.8415737 265.627068,43.9353138 C264.676548,42.7065298 263.98205,41.8827504 263.308582,41.2155833 C262.102002,40.020292 261.05339,39.4474543 260.001108,39.456325 C258.186989,39.471618 256.54565,41.7362467 254.384089,46.531211 C254.120064,47.116895 253.261493,49.0693468 253.18659,49.2376569 C252.728051,50.2680124 252.38475,50.9985491 252.054865,51.6284594 C251.157034,53.3428523 250.416613,54.2001789 249.515868,54.1951795 C239.374475,54.1388925 232.764436,53.9067139 229.66126,53.4956705 C228.874794,53.3914961 228.767563,52.7483356 229.123883,52.0840103 C229.317102,51.7237713 229.619932,51.3304573 230.176424,50.675695 C230.224378,50.6193234 230.224378,50.6193234 230.272277,50.5631696 C230.912571,49.8128748 231.066499,49.6265716 231.234139,49.3779845 Z M272.963029,88.9432303 C272.957429,88.9447137 272.951819,88.9462019 272.946197,88.9476949 C272.956259,88.9450227 272.963951,88.942982 272.969481,88.9415173 Z" stroke-linejoin="square" fill="#004ABC" fill-rule="evenodd"></path>
                </g>
            </g>
        </g>
    </g>
</svg>