<?xml version="1.0" encoding="UTF-8"?>
<svg width="133px" height="111px" viewBox="0 0 133 111" version="1.1" xmlns="http://www.w3.org/2000/svg" xmlns:xlink="http://www.w3.org/1999/xlink">
    <!-- Generator: Sketch 52.6 (67491) - http://www.bohemiancoding.com/sketch -->
    <title>V8</title>
    <desc>Created with Sketch.</desc>
    <defs>
        <path d="M167.2968,21.5857709 C177.89849,18.3895903 183.966224,16.0378755 185.5,14.5306267 C187.678576,12.3897306 172.79737,7.93956111 179.885916,8 C181.993391,8.0179689 183.214056,7.07599899 185.5,5.16666667 C188.003354,3.07574278 191.565401,-2.77070034e-14 193.66825,-2.84217094e-14 C196.357925,-2.80643564e-14 192.388185,7.88896992 193.66825,9.76084997 C195.377993,12.2610599 199.850061,10.4987377 202.40545,11.7553901 C203.750098,12.4166416 203.700623,15.7372826 204.311298,17 C205.782358,20.0417725 210.926195,17.2476177 212.144045,19 C214.14374,21.8773903 215.429058,24.2107236 216,26 C207.63015,37.0447573 202.090363,45.3780907 199.380638,51 C196.670913,56.6219093 195.623453,61.9552427 196.238258,67 C196.336252,83.2939858 194.952587,90.3705213 192.087263,88.2296064 C183.630157,81.9106211 186.725613,81.4285966 183.009733,81.3332828 C180.880903,81.2786775 180.880903,90 170.618627,94.2459231 C166.413021,95.985954 169.835893,102.324637 169.146957,102.284692 C163.807594,101.975112 164.592082,102.504065 161.550379,101.801341 C160.278834,101.507576 160.145849,98.9758117 158.5,98.1286923 C155.532507,96.6013218 151.036806,96.29373 150.139011,94.2459231 C149.100694,91.8775981 153.033436,89.9487197 151.46836,88.2296064 C148.307937,84.7581289 141.434347,85.2129353 139.235043,85 C135.075756,84.5973003 132.958456,90.0035188 130.295708,90 C126.210134,89.9946009 131.593836,102.750846 128.180506,102.750846 C109.248093,102.750846 100.187924,102.833897 101,103 C96.9829269,99.5322031 94.5172524,97.0377307 93.6029765,95.5165826 C89.6980036,89.0195922 90.7305146,84.2793595 92.0787105,81.3332828 C94.5732006,75.882325 117.429171,71.0041652 117.429171,68 C117.429171,58.7539335 120.893795,54.7113237 122.013313,51.5 C123.907256,46.0672507 118.304545,45.6710633 119.745478,43 C121.156324,40.3847083 124.778696,38.8455592 126.131307,37 C127.892142,34.5974413 135.429648,41.1138744 137.236378,38.8951616 C139.857683,35.676129 151.600579,36.4216655 155.007792,34.2893621 C157.234688,32.8957252 157.225028,15.3890408 158.5,14.5306267 C162.961594,11.5267209 165.89386,13.8784357 167.2968,21.5857709 Z" id="path-1"></path>
        <filter x="-5.2%" y="-5.3%" width="110.4%" height="112.6%" filterUnits="objectBoundingBox" id="filter-2">
            <feOffset dx="0" dy="1" in="SourceAlpha" result="shadowOffsetOuter1"></feOffset>
            <feGaussianBlur stdDeviation="2" in="shadowOffsetOuter1" result="shadowBlurOuter1"></feGaussianBlur>
            <feComposite in="shadowBlurOuter1" in2="SourceAlpha" operator="out" result="shadowBlurOuter1"></feComposite>
            <feColorMatrix values="0 0 0 0 0   0 0 0 0 0   0 0 0 0 0  0 0 0 1 0" type="matrix" in="shadowBlurOuter1"></feColorMatrix>
        </filter>
    </defs>
    <g id="Page-1" stroke="none" stroke-width="1" fill="none" fill-rule="evenodd">
        <g id="Municipalità" transform="translate(-87.000000, -99.000000)">
            <g id="Group" transform="translate(0.000000, 102.000000)">
                <g id="V8">
                    <use fill="black" fill-opacity="1" filter="url(#filter-2)" xlink:href="#path-1"></use>
                    <path stroke="#000000" stroke-width="1" d="M178.66145,8.56092353 C178.633413,8.53817223 178.607331,8.51610135 178.583171,8.49468417 C178.489035,8.4112329 178.445069,8.35495729 178.44683,8.36101705 C178.479351,8.47293608 178.422908,8.60388235 178.35931,8.64458703 C178.4081,8.61335989 178.509474,8.58452597 178.66145,8.56092353 Z M215.442416,25.9080599 C215.471017,25.9905697 215.498099,26.0718819 215.523662,26.151995 L215.601499,25.6980113 C215.548358,25.7681364 215.49533,25.8381526 215.442416,25.9080599 Z M168.675892,101.757768 C168.688844,101.8115 168.69875,101.854051 168.704392,101.880843 C168.7323,102.013376 168.743647,102.100382 168.742113,102.126242 C168.751068,101.97529 168.896544,101.769333 169.175899,101.785531 C169.00265,101.775486 168.836284,101.766246 168.675892,101.757768 Z" stroke-linejoin="square" fill="#000000" fill-rule="evenodd"></path>
                </g>
            </g>
        </g>
    </g>
</svg>