<?xml version="1.0" encoding="UTF-8"?>
<svg width="142px" height="92px" viewBox="0 0 142 92" version="1.1" xmlns="http://www.w3.org/2000/svg" xmlns:xlink="http://www.w3.org/1999/xlink">
    <!-- Generator: Sketch 52.6 (67491) - http://www.bohemiancoding.com/sketch -->
    <title>V9</title>
    <desc>Created with Sketch.</desc>
    <defs>
        <path d="M11.6419087,107.507048 C13.8913887,107.150561 16.0218234,106.981109 18.0332129,106.998692 C20.7650294,107.022573 23.9097131,109.38462 27.4675734,109.384615 C32.293411,109.384609 45.5217141,102.075673 51.4639332,102.031727 C53.9558976,102.013298 52.1356713,99.7535869 54.6341588,97.8953846 C55.8691761,96.9768641 59.145313,98.417907 61.7171482,97.8953846 C63.9689284,97.4378882 65.4871026,94.9496909 67.2026493,95.0535196 C68.4866114,95.1312278 73.824098,93.9404021 75.5211398,94.1566923 C76.7384005,94.3118338 80.0986019,100.361586 84.4532557,101.435308 C85.0789229,101.589578 89.7348204,99.6968936 92.0890236,103.878623 C93.5296711,106.43762 91.7813406,115.707969 94.5383684,116.11471 C96.7546359,116.441673 99.3822208,114.402991 103.89435,114.615385 C105.854717,114.707663 109.041978,117.30897 113.837143,118 C115.207165,118.197434 118.137189,118.238568 122.627213,118.123403 L122.627213,118.123393 C123.731425,118.095071 124.649525,118.967252 124.677847,120.071465 C124.684242,120.320793 124.643945,120.569119 124.559036,120.803631 C124.10959,122.044959 124.058213,123.423317 124.404905,124.938705 C124.856727,126.913614 131.902301,127.538632 132.128334,130.615385 C132.360568,133.776543 137.859556,136.774558 137.727278,141.096494 C137.670473,142.952516 135.147216,142.112062 134.498268,145.336846 C134.320501,146.220217 137.999636,153.136503 137.727278,154.625308 C137.463136,156.069204 135.630272,158.995105 134.498268,161.998077 C133.817316,163.804502 130.83855,167.418083 129,172.463154 C128.852514,172.867864 128.794508,173.583688 128.825982,174.610628 L128.825966,174.610629 C128.859804,175.714671 127.992231,176.637105 126.888189,176.670943 C126.783576,176.674149 126.678873,176.669138 126.575044,176.655957 C124.297598,176.366835 122.736801,176.284873 121.892651,176.410072 C119.112312,176.822432 117.298558,178.874156 116.420557,178.345432 C113.621099,176.659626 114.879947,170.336531 112.210778,168.70631 C109.700741,167.173281 106.339147,170.128114 103.89435,168.70631 C101.808498,167.493256 100.131148,164.40435 98.1025518,163.230769 C94.6881314,161.255464 85.1688566,159.748447 77.750817,162.105 C75.2000258,162.915332 69.1340175,162.6526 67.2026493,164 C64.3119835,166.016644 65.927963,169.52834 64.316032,168.70631 C61.3816444,167.209872 54.8510134,170.672427 52.7272794,168.70631 C50.9880116,167.096125 52.6467562,163.975653 51.4639332,161.998077 C50.7634676,160.82696 46.7790258,163.206211 46.1506598,161.998077 C45.5723188,160.886124 46.6123314,158.426089 46.1506598,157.233846 C45.249544,154.906762 44.7111843,152.188623 43.5012422,150.413462 C42.2427275,148.567037 40.3110178,147.675451 39.3131204,145.847308 C37.7660029,143.012996 35.4499725,139.847951 33.2552462,138.814308 C32.8057449,138.602607 33.8432701,138.369077 33.2552462,138.369077 C19.4279083,138.369077 14.3757117,138.546328 11.010039,140.255418 C10.9981117,140.261475 10.2123092,141.431249 8.65263175,143.76474 L8.65262697,143.764737 C8.041249,144.679443 6.8058663,144.928573 5.88776569,144.322305 C3.72721471,142.895586 2.39195135,141.698411 1.8819756,140.730778 C1.17375777,139.386999 0.171019035,138.43854 0.247360239,136.439143 C0.351182505,133.720009 5.97400895,131.464729 7.57270592,126.385769 C7.99354602,125.048787 5.25014721,123.743505 5.48534852,121 C5.58659719,119.818985 10.0550756,117.292891 11.010039,114 C11.2099645,113.31062 10.9153384,112.074636 10.1261607,110.29205 L10.1261444,110.292057 C9.67899139,109.282032 10.135289,108.100757 11.1453136,107.653604 C11.3037959,107.583441 11.4707261,107.534177 11.6419087,107.507048 Z" id="path-1"></path>
        <filter x="-5.8%" y="-4.7%" width="111.6%" height="119.0%" filterUnits="objectBoundingBox" id="filter-2">
            <feOffset dx="0" dy="4" in="SourceAlpha" result="shadowOffsetOuter1"></feOffset>
            <feGaussianBlur stdDeviation="2" in="shadowOffsetOuter1" result="shadowBlurOuter1"></feGaussianBlur>
            <feComposite in="shadowBlurOuter1" in2="SourceAlpha" operator="out" result="shadowBlurOuter1"></feComposite>
            <feColorMatrix values="0 0 0 0 0   0 0 0 0 0   0 0 0 0 0  0 0 0 1 0" type="matrix" in="shadowBlurOuter1"></feColorMatrix>
        </filter>
    </defs>
    <g id="Page-1" stroke="none" stroke-width="1" fill="none" fill-rule="evenodd">
        <g id="Municipalità" transform="translate(0.000000, -196.000000)">
            <g id="Group" transform="translate(0.000000, 102.000000)">
                <g id="V9">
                    <use fill="black" fill-opacity="1" filter="url(#filter-2)" xlink:href="#path-1"></use>
                    <path stroke="#000000" stroke-width="1" d="M33.9055184,138.592618 C35.8744383,139.739777 38.0074438,142.411738 39.7519947,145.607747 C40.1369246,146.312937 40.6195894,146.837618 41.620219,147.730719 C41.6600911,147.766307 41.935518,148.011339 42.0167421,148.084013 C42.9147771,148.887512 43.4355706,149.429345 43.9143987,150.131856 C44.6114724,151.154565 45.0260976,152.209708 45.768352,154.547362 C45.8352222,154.75809 45.8352222,154.75809 45.9021083,154.968501 C46.2007285,155.906525 46.3946549,156.479299 46.616923,157.053295 C46.8471006,157.647717 46.8197652,158.209008 46.6163922,159.616258 C46.6150806,159.625335 46.6150806,159.625335 46.6137698,159.634406 C46.4317852,160.893847 46.4160145,161.424679 46.5942477,161.767361 C46.6790467,161.930401 47.2524635,161.886812 48.6743855,161.52294 C48.6842787,161.520408 48.6842787,161.520408 48.6941778,161.517875 C50.7134395,161.001205 51.4177332,160.946759 51.8930356,161.741423 C52.3904983,162.573137 52.4783604,163.403809 52.408929,164.999563 C52.4048812,165.091513 52.4048812,165.091513 52.4007618,165.182923 C52.316908,167.04328 52.4275703,167.747472 53.0669552,168.339404 C53.812385,169.02951 55.06711,168.97723 58.4312961,168.332428 C58.6227439,168.295751 58.6227439,168.295751 58.8148514,168.259211 C61.7901713,167.695071 63.2867751,167.620161 64.543183,168.260886 C64.6253208,168.302774 64.6422994,168.320061 64.6325073,168.339442 C64.6339292,168.281332 64.6717685,168.113265 64.715219,167.821194 C64.9041257,166.551374 64.9726368,166.224472 65.2818604,165.542113 C65.6305253,164.772719 66.1594934,164.118096 66.9165679,163.58993 C67.9055247,162.899994 69.4697928,162.608118 72.7032567,162.304864 C72.8947028,162.286909 73.0765583,162.270138 73.4472908,162.236068 C75.7705698,162.022095 76.7895375,161.885754 77.5994329,161.628468 C84.3251713,159.491844 94.1322339,160.356224 98.3529309,162.797976 C99.2129076,163.295488 99.9141316,163.978209 101.142378,165.382862 C101.262853,165.520791 101.262853,165.520791 101.382953,165.65852 C102.706154,167.175573 103.347384,167.809808 104.145714,168.274088 C104.994001,168.76742 105.816348,168.708805 107.850435,168.193802 C107.958862,168.166353 107.958862,168.166353 108.067851,168.138904 C110.181578,167.607856 111.29748,167.562623 112.471394,168.279602 C113.74372,169.056688 114.172248,170.241667 114.740441,173.316529 C114.752755,173.383176 114.752755,173.383176 114.765062,173.449741 C115.276419,176.214117 115.690332,177.322039 116.678494,177.9171 C116.838462,178.013431 116.378145,178.220844 118.858846,176.941154 C119.906177,176.40088 120.816164,176.064259 121.819297,175.915482 C122.722387,175.781541 124.316921,175.865275 126.638014,176.159938 C126.715885,176.169824 126.794412,176.173582 126.872872,176.171177 C127.700901,176.145799 128.351583,175.453974 128.326217,174.625946 C128.292922,173.539623 128.355081,172.772552 128.530222,172.291955 C129.095567,170.740622 129.794875,169.237986 130.641373,167.689778 C131.207759,166.653884 133.783534,162.476613 134.030406,161.821711 C134.349041,160.976437 134.732061,160.104746 135.229522,159.063883 C135.4213,158.662616 136.323341,156.829275 136.532205,156.383294 C136.937636,155.517593 137.162245,154.935443 137.23544,154.535332 C137.318879,154.079224 136.83697,152.661293 135.824444,150.270476 C135.740893,150.073508 135.740893,150.073508 135.656993,149.876735 C133.934732,145.841495 133.902895,145.76097 134.008095,145.238205 C134.278581,143.894094 134.850729,143.081101 135.759946,142.473324 C135.880399,142.392806 136.003291,142.317411 136.154565,142.229512 C136.207085,142.198995 136.444469,142.063417 136.50529,142.027814 C137.056592,141.705091 137.214253,141.514415 137.227512,141.081198 C137.280232,139.358676 136.498348,137.933377 134.540252,135.57115 C132.630326,133.267036 132.325256,132.86044 131.91628,131.837495 C131.755366,131.435011 131.65833,131.042031 131.629678,130.652018 C131.552096,129.595975 130.483751,128.811305 128.062812,127.784498 C127.968905,127.744668 126.884499,127.292685 126.580589,127.160682 C124.905492,126.433104 124.109818,125.890844 123.917498,125.050214 C123.550234,123.444904 123.605237,121.969251 124.088903,120.633411 C124.152585,120.457526 124.182808,120.271282 124.178011,120.084285 C124.15677,119.256124 123.468194,118.60199 122.640033,118.623239 C118.120966,118.739149 115.173668,118.697772 113.765824,118.494888 C111.905986,118.226867 110.21793,117.689726 108.289476,116.848313 C107.762992,116.6186 106.022244,115.810179 105.670914,115.658459 C104.853928,115.305647 104.301865,115.135121 103.87084,115.114832 C102.066153,115.029882 100.589974,115.274846 98.6079077,115.854939 C95.6022692,116.7346 95.4899557,116.760509 94.4653938,116.609356 C92.7410936,116.354972 92.399817,114.602717 92.2907384,109.690122 C92.2877659,109.555472 92.2877659,109.555472 92.2848304,109.421025 C92.2140797,106.181346 92.090947,104.901253 91.653324,104.123911 C90.9406129,102.857934 89.9756977,102.132423 88.7863415,101.819815 C87.8413508,101.571435 86.8830198,101.59139 85.6722222,101.785575 C85.5539314,101.804546 85.0571753,101.889636 84.9438014,101.906755 C84.6577824,101.949943 84.4945518,101.960465 84.3335562,101.920768 C82.4779704,101.463239 80.7478317,100.209531 78.8470679,98.2210076 C78.4594585,97.815502 78.0837203,97.4009217 77.6167729,96.8696876 C77.4891316,96.7244733 76.9676678,96.1276572 77.0561556,96.2287854 C76.8599021,96.0044666 76.7206047,95.8467049 76.5891012,95.7004421 C75.9661261,95.0075478 75.5776328,94.667937 75.4579255,94.6526802 C74.8320027,94.5729055 73.6155342,94.6948981 71.5568687,95.0057052 C71.3917745,95.0306303 71.218878,95.0570569 71.0184622,95.0879442 C68.2003383,95.5222625 67.7260456,95.5861115 67.1724434,95.5526063 C66.9197816,95.5373147 66.650568,95.6002558 66.3421348,95.7453675 C65.9225101,95.9427926 65.8444983,95.9982087 64.6402372,96.9077228 C63.5035924,97.7661699 62.7510589,98.1955392 61.8166999,98.3853739 C61.1610812,98.5185766 60.4446106,98.5423738 59.6088243,98.481517 C59.1325133,98.4468349 58.6946695,98.3942907 57.9649857,98.2924124 C55.9674774,98.0135208 55.332023,97.9994858 54.9325466,98.2965887 C54.6123596,98.5347217 54.3628547,98.7857807 54.1695879,99.0535044 C53.8326515,99.5202469 53.731201,99.8314556 53.5354297,100.758585 C53.27065,102.012522 52.8122505,102.52177 51.4676308,102.531714 C49.1959628,102.548514 45.9926278,103.542788 40.224017,105.79961 C39.9334401,105.913291 39.6295704,106.032644 39.2724091,106.173297 C31.7303541,109.143417 29.5590918,109.884613 27.4675741,109.884615 C25.8823634,109.884618 24.5387245,109.52757 22.2399894,108.659309 C19.7471085,107.717716 19.0587486,107.507676 18.0288422,107.498673 C16.0460322,107.48134 13.9431189,107.648603 11.7201697,108.000886 C11.5917824,108.021232 11.4665844,108.05818 11.3477223,108.110802 C10.5902009,108.446168 10.2479811,109.332125 10.5833594,110.089641 C11.4183683,111.975751 11.7338594,113.299264 11.4902526,114.139266 C11.0897032,115.520435 10.1634396,116.791357 8.68764347,118.251234 C8.27357888,118.660833 6.95167536,119.887398 6.75808288,120.07752 C6.24332329,120.58305 5.99456974,120.913832 5.98352117,121.042708 C5.89871004,122.031988 6.21053879,122.816149 6.95085259,123.853582 C7.04403202,123.984158 7.35903568,124.411996 7.384583,124.44721 C7.55584028,124.683271 7.67594225,124.860797 7.77810751,125.035247 C8.06420049,125.523759 8.18091966,125.955374 8.08441656,126.404365 C8.07492083,126.448545 8.06332837,126.492395 8.04963686,126.535892 C7.43497292,128.488641 6.29632565,130.088501 4.47205116,131.905343 C4.06244222,132.313283 2.66478629,133.634342 2.409302,133.887244 C1.72260649,134.567 1.29373486,135.075919 1.03140437,135.549084 C0.851118754,135.874265 0.757913445,136.172294 0.746996169,136.45822 C0.70468407,137.566386 0.953028545,138.239373 1.68814291,139.424345 C1.7555085,139.53271 1.7555085,139.53271 1.82396522,139.642675 C2.05334192,140.011627 2.1876957,140.238455 2.3243036,140.497656 C2.78430272,141.370462 4.06816958,142.521557 6.16328838,143.905068 C6.85186298,144.359767 7.7784007,144.172921 8.23693713,143.486895 C9.01697315,142.319854 9.60353204,141.443756 9.99669397,140.858481 C10.1935355,140.565455 10.3419945,140.345187 10.4422286,140.197444 C10.5116805,140.095254 10.5116805,140.095254 10.558059,140.02783 C10.566269,139.998834 10.566269,139.998834 10.7836545,139.809604 C14.0170144,138.167702 17.9672592,137.869077 33.2552462,137.869077 C33.3701457,137.869077 33.4545265,137.875454 33.5358293,137.896709 C33.8141993,137.969482 34.0514243,138.236632 33.9055184,138.592618 Z M77.0701666,96.2448023 C77.0720191,96.2469205 77.0739855,96.2491689 77.076068,96.2515502 C77.0742422,96.2494625 77.0724213,96.2473804 77.0706053,96.245304 Z" stroke-linejoin="square" fill="#8CACF9" fill-rule="evenodd"></path>
                </g>
            </g>
        </g>
    </g>
</svg>